<svg width="418" height="174" viewBox="0 0 418 174" fill="none" xmlns="http://www.w3.org/2000/svg">
<path d="M58.0941 89.3682L54.4891 94.0862L49.3131 101.044L49.2461 102.05L58.9371 89.3682H58.0941Z" fill="#FF808D"/>
<path d="M130.879 99.3018H143.929L140.439 121.213H140.77L145.946 114.255L149.707 90.6368H136.657L137.59 84.7979H133.197L130.879 99.3018Z" fill="#FF808D"/>
<path d="M67.5552 68.9268H66.7122L51.2852 89.1158H52.1282L67.5552 68.9268Z" fill="#FF808D"/>
<path d="M107.551 25.7498L107.544 25.2998L112.72 18.3408L143.75 18.7958L133.239 84.5458H137.632L142.39 54.7808H138.697V54.5278H142.43L149.528 10.1308L118.498 9.67578L113.322 16.6348L113.329 17.0848L73.9062 68.6748H74.7493L107.551 25.7498Z" fill="#FF808D"/>
<path d="M84.5955 90.4541L78.2305 99.1141L96.9485 99.2691L98.5215 90.5701L84.5955 90.4541Z" fill="#FF808D"/>
<path d="M353.04 71.5176L350.289 88.7246H354.682L357.433 71.5176H353.04Z" fill="#FF808D"/>
<path d="M342.598 99.3015H355.648L352.158 121.213H352.489L357.664 114.255L361.426 90.6365H348.376L348.641 88.9775H344.248L342.598 99.3015Z" fill="#FF808D"/>
<path d="M296.306 90.4541L289.941 99.1141L308.659 99.2691L310.232 90.5701L296.306 90.4541Z" fill="#FF808D"/>
<path d="M319.256 25.2998L324.432 18.3408L355.47 18.7958L347.082 71.2658H351.475L361.249 10.1308L330.21 9.67578L325.034 16.6348L325.041 17.0858L261.033 101.044L260.965 102.05L319.263 25.7508L319.256 25.2998Z" fill="#FF808D"/>
<path d="M334.594 149.296H334.922L340.098 142.337L342.103 129.878H337.719L334.594 149.296Z" fill="#FF808D"/>
<path d="M173.79 37.1711C175.252 35.0261 176.826 33.0331 178.515 31.1931C187.3 21.6401 198.526 16.8671 212.21 16.8671C212.62 16.8671 213.031 16.8711 213.445 16.8801C225.004 17.1291 234.11 21.0061 240.763 28.5111C247.408 36.0241 251.076 46.2651 251.749 59.2321C251.884 62.4071 251.841 65.5971 251.638 68.8021H256.43L257.09 64.1051C257.569 59.5602 257.718 55.0501 257.527 50.5671C256.853 37.6001 253.185 27.3591 246.541 19.8461C239.888 12.3421 230.782 8.46515 219.223 8.21515C218.809 8.20715 218.398 8.20215 217.988 8.20215C204.304 8.20215 193.078 12.9752 184.293 22.5282C183.064 23.8672 181.898 25.2881 180.79 26.7891C180.823 26.7441 180.855 26.6961 180.888 26.6511L175.712 33.6102C174.215 35.6222 172.834 37.7901 171.555 40.0951L175.109 35.3161C174.66 35.9211 174.22 36.5391 173.79 37.1711Z" fill="#FF808D"/>
<path d="M246.317 72.7687L243.011 96.2977C242.344 101.056 241.472 105.516 240.398 109.682H243.49C245.866 103.218 247.634 95.8707 248.789 87.6327L251.4 69.0537H246.631C246.548 70.2897 246.447 71.5277 246.317 72.7687Z" fill="#FF808D"/>
<path d="M199.34 46.0453C199.525 45.8113 199.712 45.5794 199.903 45.3604C199.712 45.5804 199.526 45.8113 199.34 46.0453Z" fill="#FF808D"/>
<path d="M167.68 48.585C167.903 48.051 168.129 47.52 168.361 46.999C168.128 47.52 167.903 48.051 167.68 48.585Z" fill="#FF808D"/>
<path d="M168.793 46.0555C169.02 45.5655 169.251 45.0805 169.486 44.6025C169.25 45.0815 169.02 45.5665 168.793 46.0555Z" fill="#FF808D"/>
<path d="M199.921 48.4395C198.738 48.9535 197.628 49.6335 196.595 50.4915C195.996 51.7235 195.447 53.0715 194.945 54.5285H198.529C198.922 52.3375 199.389 50.3145 199.921 48.4395Z" fill="#FF808D"/>
<path d="M172.449 39.2406C172.83 38.6276 173.22 38.0265 173.618 37.4355C173.22 38.0265 172.829 38.6276 172.449 39.2406Z" fill="#FF808D"/>
<path d="M203.486 54.7812H199.859C198.605 58.4932 197.651 62.8942 197.02 68.0372L194.824 84.5462H199.449L202.798 59.3723C202.995 57.7673 203.228 56.2452 203.486 54.7812Z" fill="#FF808D"/>
<path d="M204.329 120.729C204.037 120.729 203.74 120.722 203.442 120.707C196.141 120.288 192.556 114.468 192.696 103.265C192.66 100.841 192.91 97.1149 193.445 92.0889L194.415 84.7979H189.79L187.667 100.754C187.132 105.781 186.883 109.506 186.918 111.93C186.778 123.133 190.363 128.953 197.664 129.372C197.962 129.387 198.259 129.394 198.551 129.394C202.115 129.394 205.189 128.272 207.797 126.082C208.726 124.163 209.537 121.973 210.231 119.515C208.437 120.315 206.473 120.729 204.329 120.729Z" fill="#FF808D"/>
<path d="M238.281 128.13L239.969 125.86C239.903 125.95 239.831 126.031 239.764 126.12C243.208 121.552 246.081 116.153 248.39 109.934H245.326C243.535 116.81 241.185 122.874 238.281 128.13Z" fill="#FF808D"/>
<path d="M107.543 25.2998L107.55 25.7498L112.728 18.9738L112.719 18.3408L107.543 25.2998Z" fill="#AC5EFA"/>
<path d="M103.089 65.2916L98.5195 90.5696L102.432 90.6016L108.285 58.2236L103.089 65.2916Z" fill="#AC5EFA"/>
<path d="M96.9453 99.2693L100.857 99.3023L102.43 90.6023L98.5183 90.5703L96.9453 99.2693Z" fill="#AC5EFA"/>
<path d="M319.261 25.7508L324.439 18.9738L324.43 18.3408L319.254 25.2998L319.261 25.7508Z" fill="#AC5EFA"/>
<path d="M310.518 88.9775L310.23 90.5695L314.142 90.6016L314.435 88.9775H310.518Z" fill="#AC5EFA"/>
<path d="M319.673 71.5176L316.562 88.7246H320.48L323.59 71.5176H319.673Z" fill="#AC5EFA"/>
<path d="M319.994 58.2236L314.799 65.2926L313.719 71.2656H317.637L319.994 58.2236Z" fill="#AC5EFA"/>
<path d="M308.656 99.2693L312.568 99.3023L314.141 90.6023L310.229 90.5703L308.656 99.2693Z" fill="#AC5EFA"/>
<path d="M342.102 129.878H346.713L351.888 122.919H343.222L342.102 129.878Z" fill="#AC5EFA"/>
<path d="M338.839 122.919V122.92L337.719 129.878H342.103L343.223 122.919H338.839Z" fill="#AC5EFA"/>
<path d="M304.297 151.002L308.808 122.919H259.078L259.947 109.935H255.238L253.902 129.878H303.632L299.122 157.961H329.142L334.318 151.002H304.297Z" fill="#AC5EFA"/>
<path d="M260.428 102.751L255.273 109.682H259.964L260.428 102.751Z" fill="#AC5EFA"/>
<path d="M212.163 109.935C211.675 113.486 211.031 116.68 210.23 119.515C211.419 118.985 212.535 118.29 213.574 117.417C213.983 116.572 214.361 115.657 214.725 114.708C214.852 114.327 214.985 113.958 215.106 113.562C215.144 113.438 215.181 113.313 215.218 113.187C215.449 112.407 215.669 111.6 215.875 110.763C215.907 110.636 215.937 110.506 215.967 110.378C216.001 110.235 216.03 110.08 216.064 109.935H212.163Z" fill="#AC5EFA"/>
<path d="M216.82 69.0537H212.276C212.152 71.0937 211.963 73.2767 211.694 75.6367L207.424 107.891C207.353 108.498 207.278 109.094 207.199 109.682H211.122C211.269 109.038 211.418 108.398 211.551 107.723C211.573 107.61 211.594 107.493 211.616 107.379C211.799 106.43 211.97 105.455 212.126 104.445C212.138 104.37 212.148 104.291 212.159 104.216C212.32 103.154 212.468 102.062 212.6 100.933L216.82 69.0537Z" fill="#AC5EFA"/>
<path d="M221.871 68.6787C222.234 65.4967 222.465 62.6057 222.564 60.0057C222.597 59.1387 222.616 58.3047 222.619 57.5027C222.589 55.4237 222.437 53.5337 222.164 51.8317C221.891 50.1297 221.497 48.6167 220.981 47.2927C220.637 46.4097 220.239 45.6107 219.788 44.8947C219.337 44.1787 218.831 43.5477 218.271 42.9997C216.592 41.3557 214.428 40.4657 211.778 40.3287C211.477 40.3137 211.179 40.3057 210.885 40.3057C210.258 40.3057 209.647 40.3427 209.05 40.4107C208.851 40.4337 208.663 40.4797 208.467 40.5107C208.075 40.5717 207.682 40.6307 207.303 40.7217C207.078 40.7757 206.863 40.8547 206.642 40.9197C206.307 41.0187 205.97 41.1137 205.645 41.2377C205.417 41.3247 205.198 41.4347 204.975 41.5347C204.673 41.6697 204.369 41.8017 204.077 41.9597C203.853 42.0807 203.638 42.2217 203.42 42.3557C203.143 42.5257 202.865 42.6957 202.597 42.8877C202.382 43.0417 202.175 43.2127 201.966 43.3807C201.814 43.5027 201.664 43.6307 201.515 43.7607C200.928 45.1907 200.399 46.7567 199.922 48.4397C201.688 47.6717 203.611 47.2647 205.709 47.2647C206.003 47.2647 206.302 47.2727 206.602 47.2877C213.669 47.6527 217.28 53.3747 217.443 64.4617C217.436 65.8097 217.379 67.2707 217.29 68.8017H221.854L221.871 68.6787Z" fill="#AC5EFA"/>
<path d="M201.513 43.7598C201.411 43.8488 201.304 43.9278 201.204 44.0208C201 44.2078 200.803 44.4098 200.605 44.6098C200.367 44.8518 200.131 45.0978 199.902 45.3598C199.71 45.5788 199.524 45.8108 199.339 46.0448C198.332 47.3148 197.417 48.7978 196.594 50.4908C197.627 49.6328 198.738 48.9528 199.92 48.4388C200.397 46.7558 200.926 45.1898 201.513 43.7598Z" fill="#AC5EFA"/>
<path d="M213.575 117.417C212.536 118.29 211.419 118.985 210.231 119.515C209.537 121.973 208.726 124.162 207.797 126.082C209.014 125.06 210.139 123.823 211.148 122.323C211.161 122.303 211.176 122.284 211.189 122.264C211.558 121.712 211.91 121.123 212.251 120.507C212.284 120.447 212.319 120.39 212.352 120.329C212.678 119.73 212.989 119.096 213.288 118.437C213.329 118.347 213.37 118.26 213.411 118.169C213.701 117.516 213.977 116.832 214.243 116.121C214.285 116.01 214.326 115.899 214.367 115.786C214.493 115.44 214.606 115.067 214.726 114.708C214.362 115.657 213.983 116.572 213.575 117.417Z" fill="#AC5EFA"/>
<path d="M166.652 70.6282C166.707 70.2832 166.769 69.9462 166.827 69.6042C166.947 68.8912 167.07 68.1822 167.201 67.4832C167.275 67.0872 167.354 66.6982 167.431 66.3072C167.557 65.6722 167.685 65.0412 167.819 64.4192C167.905 64.0182 167.994 63.6212 168.084 63.2252C168.222 62.6182 168.365 62.0172 168.511 61.4212C168.605 61.0362 168.7 60.6522 168.798 60.2722C168.956 59.6612 169.12 59.0602 169.287 58.4622C169.383 58.1172 169.477 57.7692 169.576 57.4292C169.775 56.7452 169.983 56.0742 170.194 55.4072C170.259 55.2012 170.318 54.9872 170.385 54.7832H167.827C164.622 62.2152 162.342 70.8892 160.997 80.8182L160.492 84.5482H164.726L166.173 73.8592C166.32 72.7642 166.481 71.6902 166.652 70.6282Z" fill="#AC5EFA"/>
<path d="M232.296 136.916C231.718 137.603 231.128 138.272 230.52 138.917C228.335 141.237 226.004 143.266 223.527 145.006C220.431 147.181 217.106 148.902 213.552 150.171C212.841 150.425 212.121 150.66 211.393 150.878C209.935 151.313 208.441 151.675 206.91 151.965C203.848 152.545 200.64 152.835 197.286 152.835C196.861 152.835 196.434 152.83 196.005 152.821C188.457 152.634 181.843 150.869 176.173 147.5C175.463 147.08 174.773 146.635 174.103 146.166C172.763 145.227 171.502 144.19 170.321 143.055C169.14 141.92 168.038 140.686 167.016 139.354C165.482 137.356 164.127 135.137 162.95 132.697C161.773 130.254 160.79 127.685 160.003 124.992C159.74 124.094 159.5 123.182 159.28 122.257C158.842 120.405 158.49 118.498 158.225 116.535C157.96 114.572 157.782 112.553 157.691 110.479C157.63 109.358 157.591 108.235 157.575 107.11C157.542 104.86 157.6 102.603 157.751 100.339C157.826 99.2069 157.925 98.0738 158.047 96.9398L159.691 84.7979H155.458L152.872 103.898C152.384 108.434 152.271 112.953 152.516 117.436C152.88 125.733 154.635 133.14 157.774 139.655C160.913 146.161 165.318 151.098 170.997 154.458C176.668 157.827 183.281 159.591 190.829 159.779C191.259 159.788 191.685 159.793 192.11 159.793C205.527 159.793 216.605 155.154 225.344 145.876C226.633 144.507 227.858 143.043 229.017 141.484L234.193 134.525C234.127 134.615 234.055 134.696 233.988 134.785C233.618 135.277 233.236 135.752 232.853 136.225C232.667 136.455 232.485 136.691 232.296 136.916Z" fill="#AC5EFA"/>
<path d="M166.328 52.0338C166.374 51.9068 166.423 51.7848 166.469 51.6588C167.912 47.4638 169.608 43.6077 171.558 40.0938L169.936 42.2737C167.249 45.8867 164.915 49.9718 162.93 54.5278H165.466C165.743 53.6828 166.031 52.8518 166.328 52.0338Z" fill="#AC5EFA"/>
<path d="M166.55 51.4494C166.798 50.7834 167.049 50.1224 167.31 49.4744C167.431 49.1744 167.557 48.8824 167.681 48.5864C167.904 48.0524 168.13 47.5214 168.362 47.0004C168.504 46.6824 168.649 46.3704 168.794 46.0574C169.021 45.5674 169.252 45.0824 169.487 44.6044C169.641 44.2924 169.796 43.9834 169.953 43.6764C170.195 43.2034 170.443 42.7384 170.693 42.2784C170.851 41.9874 171.009 41.6954 171.17 41.4084C171.443 40.9244 171.724 40.4514 172.007 39.9804C172.155 39.7344 172.299 39.4844 172.449 39.2424C172.83 38.6294 173.22 38.0284 173.618 37.4374C173.677 37.3494 173.733 37.2584 173.792 37.1714C174.222 36.5404 174.662 35.9214 175.112 35.3164L171.558 40.0954C169.608 43.6094 167.912 47.4654 166.469 51.6604C166.495 51.5884 166.524 51.5204 166.55 51.4494Z" fill="#AC5EFA"/>
<path d="M131.512 122.919H140.17L140.441 121.213H131.787L131.512 122.919Z" fill="white"/>
<path d="M84.8028 89.3682L84.0078 90.4492L84.5948 90.4542L85.3938 89.3682H84.8028Z" fill="white"/>
<path d="M103.089 65.2919L103.109 65.183L108.285 58.224L102.432 90.602L102.726 90.6039L108.867 56.627L100.012 68.6749H100.603L103.089 65.2919Z" fill="white"/>
<path d="M92.8269 68.9268H67.5559L52.1289 89.1158H77.9879L92.8269 68.9268Z" fill="white"/>
<path d="M107.554 25.9326L112.729 18.9736L107.551 25.7496L107.554 25.9326Z" fill="white"/>
<path d="M112.719 18.3408L112.728 18.9738L112.719 18.3408Z" fill="white"/>
<path d="M103.11 65.1826L103.09 65.2916L108.286 58.2236L103.11 65.1826Z" fill="white"/>
<path d="M95.6836 106.26L100.859 99.3015L96.9466 99.2686L95.6836 106.26Z" fill="white"/>
<path d="M95.5859 151.002L100.096 122.919L95.5859 151.002Z" fill="white"/>
<path d="M48.7082 102.751L47.3672 122.919L48.7082 102.751Z" fill="white"/>
<path d="M314.821 65.1829L319.996 58.2239L317.639 71.2659H317.933L320.579 56.6279L295.719 90.4489L296.306 90.4539L314.801 65.2929L314.821 65.1829Z" fill="white"/>
<path d="M260.453 109.682L260.964 102.05L260.429 102.751L259.965 109.682H260.453Z" fill="white"/>
<path d="M314.145 90.6016L314.438 90.6035L314.732 88.9775H314.438L314.145 90.6016Z" fill="white"/>
<path d="M343.223 122.919H351.889L352.161 121.213H343.498L343.223 122.919Z" fill="white"/>
<path d="M309.41 121.213H259.68L260.435 109.935H259.947L259.078 122.919H308.808L304.297 151.002H334.318L334.592 149.296H304.9L309.41 121.213Z" fill="white"/>
<path d="M320.48 88.7246H320.774L323.884 71.5176H323.59L320.48 88.7246Z" fill="white"/>
<path d="M320.777 88.7246H350.291L353.042 71.5176H323.887L320.777 88.7246Z" fill="white"/>
<path d="M342.599 99.3018L344.249 88.9778H314.729L314.435 90.6038L314.142 90.6018L312.569 99.3018L307.393 106.26L308.657 99.2688L289.939 99.1138L296.304 90.4538L295.717 90.4488L320.577 56.6278L317.931 71.2658H347.08L355.468 18.7958L324.43 18.3408L324.439 18.9738L319.264 25.9328L319.261 25.7508L260.963 102.05L260.452 109.682H274.901V109.935H260.435L259.68 121.213H309.41L304.9 149.296H334.592L337.717 129.878H333.662L338.837 122.92V122.919H343.221L343.496 121.213H352.159L355.649 99.3018H342.599Z" fill="white"/>
<path d="M319.262 25.7508L319.265 25.9328L324.44 18.9738L324.431 18.3408L324.44 18.9738L319.262 25.7508Z" fill="white"/>
<path d="M314.821 65.1826L314.801 65.2926L319.996 58.2236L314.821 65.1826Z" fill="white"/>
<path d="M307.395 106.26L312.571 99.3015L308.659 99.2686L307.395 106.26Z" fill="white"/>
<path d="M333.664 129.878H337.719L338.839 122.92L333.664 129.878Z" fill="white"/>
<path d="M304.297 151.002L308.808 122.919L304.297 151.002Z" fill="white"/>
<path d="M166.773 72.1503C167.625 65.8563 168.858 60.0713 170.458 54.7803H170.386C170.319 54.9853 170.258 55.1973 170.192 55.4043C169.981 56.0713 169.773 56.7423 169.574 57.4263C169.475 57.7673 169.381 58.1153 169.285 58.4593C169.118 59.0573 168.954 59.6593 168.796 60.2693C168.698 60.6493 168.603 61.0333 168.509 61.4183C168.363 62.0143 168.22 62.6153 168.082 63.2223C167.992 63.6183 167.903 64.0163 167.817 64.4163C167.683 65.0393 167.555 65.6703 167.429 66.3043C167.352 66.6953 167.273 67.0853 167.199 67.4803C167.068 68.1793 166.946 68.8893 166.825 69.6013C166.767 69.9433 166.706 70.2803 166.65 70.6253C166.479 71.6873 166.318 72.7613 166.17 73.8543L164.723 84.5433H165.095L166.773 72.1503Z" fill="white"/>
<path d="M165.536 54.5285C165.83 53.5655 166.138 52.6195 166.458 51.6895C166.415 51.8055 166.369 51.9174 166.327 52.0334C166.03 52.8504 165.746 53.6845 165.469 54.5275H165.536V54.5285Z" fill="white"/>
<path d="M202.596 42.8866C202.864 42.6946 203.142 42.5256 203.419 42.3546C203.637 42.2206 203.852 42.0796 204.076 41.9586C204.368 41.8006 204.672 41.6686 204.974 41.5336C205.197 41.4336 205.416 41.3236 205.644 41.2366C205.968 41.1126 206.306 41.0176 206.641 40.9186C206.862 40.8536 207.077 40.7746 207.302 40.7206C207.681 40.6296 208.074 40.5706 208.466 40.5096C208.661 40.4796 208.85 40.4326 209.049 40.4096C209.646 40.3416 210.257 40.3046 210.884 40.3046C211.178 40.3046 211.477 40.3126 211.777 40.3276C214.427 40.4646 216.591 41.3546 218.27 42.9986C218.83 43.5466 219.335 44.1786 219.787 44.8936C220.239 45.6086 220.636 46.4086 220.98 47.2916C221.496 48.6166 221.89 50.1296 222.163 51.8306C222.436 53.5316 222.588 55.4226 222.618 57.5016C222.614 58.3036 222.596 59.1386 222.563 60.0046C222.464 62.6046 222.232 65.4956 221.87 68.6776L221.854 68.8006H222.231L222.473 66.9716C222.957 62.7296 223.206 59.0036 223.222 55.7956C223.059 44.7086 219.449 38.9866 212.381 38.6216C212.08 38.6066 211.782 38.5986 211.488 38.5986C207.984 38.5986 204.951 39.6866 202.374 41.8256C202.081 42.4286 201.801 43.0636 201.531 43.7196C201.673 43.5976 201.823 43.4946 201.967 43.3786C202.174 43.2126 202.381 43.0406 202.596 42.8866Z" fill="white"/>
<path d="M215.968 110.378C215.937 110.506 215.907 110.636 215.876 110.763C215.669 111.6 215.45 112.406 215.219 113.187C215.182 113.313 215.144 113.438 215.107 113.562C215.022 113.84 214.936 114.116 214.848 114.388C215.362 113.01 215.831 111.528 216.251 109.935H216.076C216.04 110.084 216.003 110.23 215.968 110.378Z" fill="white"/>
<path d="M231.122 137.211C222.383 146.489 211.304 151.128 197.888 151.128C197.463 151.128 197.036 151.123 196.607 151.114C189.059 150.927 182.445 149.162 176.775 145.793C171.096 142.433 166.691 137.496 163.552 130.99C160.413 124.475 158.657 117.069 158.294 108.771C158.049 104.288 158.162 99.7688 158.65 95.2328L160.063 84.7979H159.691L158.047 96.9398C157.925 98.0738 157.826 99.2069 157.751 100.339C157.6 102.602 157.542 104.86 157.575 107.11C157.591 108.235 157.63 109.358 157.691 110.479C157.782 112.553 157.96 114.572 158.225 116.535C158.49 118.498 158.842 120.405 159.28 122.257C159.499 123.183 159.74 124.094 160.003 124.992C160.791 127.686 161.773 130.254 162.95 132.697C164.127 135.137 165.482 137.356 167.016 139.354C168.038 140.686 169.14 141.92 170.321 143.055C171.502 144.19 172.763 145.228 174.103 146.166C174.773 146.635 175.463 147.08 176.173 147.5C181.844 150.869 188.457 152.634 196.005 152.821C196.435 152.83 196.861 152.835 197.286 152.835C200.64 152.835 203.848 152.545 206.91 151.965C208.441 151.675 209.935 151.313 211.393 150.878C212.122 150.661 212.842 150.425 213.552 150.171C217.105 148.902 220.43 147.181 223.527 145.006C226.004 143.266 228.335 141.237 230.52 138.917C231.127 138.272 231.717 137.603 232.296 136.916C232.485 136.691 232.667 136.454 232.853 136.225C233.237 135.753 233.618 135.277 233.988 134.785C235.535 132.733 236.966 130.514 238.284 128.129L234.796 132.818C233.636 134.378 232.411 135.842 231.122 137.211Z" fill="white"/>
<path d="M212.6 100.932C212.468 102.062 212.32 103.153 212.159 104.215C212.148 104.291 212.137 104.369 212.126 104.444C211.97 105.454 211.799 106.429 211.616 107.378C211.594 107.492 211.573 107.609 211.551 107.722C211.419 108.389 211.282 109.044 211.137 109.681H211.321C212.121 106.592 212.75 103.111 213.203 99.2247L217.197 69.0527H216.82L212.6 100.932Z" fill="white"/>
<path d="M216.251 109.935C215.831 111.528 215.362 113.009 214.848 114.388C214.693 114.866 214.532 115.331 214.367 115.786C214.326 115.899 214.284 116.01 214.243 116.121C213.978 116.831 213.701 117.516 213.411 118.169C213.371 118.26 213.329 118.347 213.288 118.437C212.988 119.096 212.677 119.73 212.352 120.329C212.319 120.39 212.285 120.447 212.251 120.507C211.91 121.123 211.558 121.712 211.189 122.264C211.175 122.284 211.161 122.303 211.148 122.323C210.957 122.606 210.764 122.883 210.567 123.15L205.391 130.109C206.266 128.933 207.067 127.591 207.797 126.083C205.189 128.273 202.115 129.395 198.551 129.395C198.259 129.395 197.962 129.388 197.664 129.373C190.363 128.954 186.778 123.134 186.918 111.931C186.882 109.507 187.132 105.781 187.667 100.755L189.79 84.7988H160.062L158.649 95.2338C158.161 99.7698 158.048 104.289 158.293 108.772C158.657 117.069 160.412 124.476 163.551 130.991C166.69 137.497 171.095 142.434 176.774 145.794C182.445 149.163 189.058 150.927 196.606 151.115C197.036 151.124 197.462 151.129 197.887 151.129C211.303 151.129 222.382 146.49 231.121 137.212C232.411 135.843 233.635 134.379 234.794 132.82L238.282 128.131C241.186 122.874 243.536 116.811 245.327 109.936H216.251V109.935Z" fill="white"/>
<path d="M246.314 72.7687C246.445 71.5277 246.546 70.2887 246.627 69.0527H217.196L213.202 99.2247C212.749 103.111 212.12 106.592 211.32 109.681H240.395C241.469 105.514 242.341 101.054 243.008 96.2967L246.314 72.7687Z" fill="white"/>
<path d="M199.857 54.7812H170.457C168.857 60.0712 167.625 65.8562 166.772 72.1512L165.094 84.5462H194.821L197.017 68.0372C197.648 62.8942 198.603 58.4932 199.857 54.7812Z" fill="white"/>
<path d="M165.535 54.5282H194.943C195.445 53.0722 195.994 51.7242 196.593 50.4912C195.586 51.3272 194.642 52.3092 193.777 53.4722L198.953 46.5132C199.077 46.3462 199.211 46.2052 199.338 46.0452C199.523 45.8112 199.71 45.5792 199.901 45.3602C200.13 45.0982 200.366 44.8522 200.604 44.6102C200.802 44.4092 200.999 44.2072 201.203 44.0212C201.311 43.9222 201.417 43.8172 201.528 43.7212C201.798 43.0652 202.078 42.4302 202.371 41.8272C204.948 39.6872 207.98 38.6002 211.485 38.6002C211.779 38.6002 212.078 38.6082 212.378 38.6232C219.445 38.9882 223.056 44.7102 223.219 55.7972C223.203 59.0052 222.954 62.7312 222.47 66.9732L222.228 68.8022H251.639C251.841 65.5972 251.885 62.4072 251.75 59.2322C251.076 46.2652 247.408 36.0242 240.764 28.5112C234.111 21.0072 225.005 17.1302 213.446 16.8802C213.032 16.8722 212.621 16.8672 212.211 16.8672C198.527 16.8672 187.301 21.6402 178.516 31.1932C176.827 33.0332 175.252 35.0262 173.791 37.1712C173.732 37.2582 173.676 37.3502 173.617 37.4372C173.219 38.0282 172.829 38.6282 172.448 39.2422C172.298 39.4842 172.154 39.7342 172.006 39.9802C171.723 40.4512 171.442 40.9242 171.169 41.4082C171.007 41.6942 170.85 41.9872 170.692 42.2782C170.441 42.7392 170.194 43.2042 169.952 43.6762C169.795 43.9832 169.64 44.2922 169.486 44.6042C169.25 45.0822 169.02 45.5672 168.793 46.0572C168.648 46.3702 168.503 46.6822 168.361 47.0002C168.129 47.5212 167.903 48.0522 167.68 48.5862C167.556 48.8822 167.43 49.1752 167.309 49.4742C167.048 50.1222 166.796 50.7832 166.549 51.4492C166.519 51.5302 166.487 51.6092 166.458 51.6902C166.137 52.6192 165.83 53.5652 165.535 54.5282Z" fill="white"/>
<path d="M216.121 109.682H216.136C216.281 109.045 216.418 108.391 216.55 107.723C216.417 108.399 216.268 109.039 216.121 109.682Z" fill="white"/>
<path d="M215.969 110.378C216.004 110.23 216.041 110.084 216.075 109.935H216.066C216.032 110.08 216.003 110.235 215.969 110.378Z" fill="white"/>
<path d="M215.876 110.763C215.669 111.6 215.45 112.406 215.219 113.187C215.45 112.407 215.67 111.6 215.876 110.763Z" fill="white"/>
<path d="M207.301 40.7218C207.68 40.6308 208.073 40.5717 208.465 40.5107C208.073 40.5707 207.68 40.6298 207.301 40.7218Z" fill="white"/>
<path d="M221.855 68.8007L221.871 68.6787L221.855 68.8007Z" fill="white"/>
<path d="M212.601 100.932C212.469 102.062 212.321 103.153 212.16 104.215C212.321 103.153 212.47 102.062 212.601 100.932Z" fill="white"/>
<path d="M222.564 60.0059C222.465 62.6059 222.233 65.4969 221.871 68.6789C222.233 65.4969 222.464 62.6059 222.564 60.0059Z" fill="white"/>
<path d="M201.967 43.3799C201.823 43.4959 201.673 43.5979 201.531 43.7209C201.526 43.7339 201.521 43.7479 201.516 43.7599C201.665 43.6299 201.815 43.5019 201.967 43.3799Z" fill="white"/>
<path d="M214.727 114.708C214.768 114.601 214.809 114.496 214.849 114.388C214.937 114.117 215.023 113.841 215.108 113.562C214.988 113.958 214.855 114.326 214.727 114.708Z" fill="white"/>
<path d="M201.528 43.7207C201.418 43.8157 201.312 43.9217 201.203 44.0207C201.304 43.9287 201.41 43.8487 201.512 43.7597C201.518 43.7467 201.523 43.7327 201.528 43.7207Z" fill="white"/>
<path d="M198.953 46.5129L193.777 53.4719C194.642 52.3089 195.586 51.3269 196.593 50.4909C197.416 48.7979 198.331 47.3149 199.338 46.0449C199.211 46.2049 199.077 46.3469 198.953 46.5129Z" fill="white"/>
<path d="M214.367 115.786C214.532 115.331 214.693 114.865 214.848 114.388C214.808 114.496 214.766 114.602 214.726 114.708C214.606 115.067 214.493 115.44 214.367 115.786Z" fill="white"/>
<path d="M207.797 126.082C207.067 127.59 206.266 128.932 205.391 130.108L210.567 123.149C210.765 122.883 210.958 122.606 211.148 122.322C210.139 123.823 209.015 125.06 207.797 126.082Z" fill="white"/>
<path d="M167.013 139.354C165.479 137.356 164.124 135.137 162.947 132.697C161.77 130.254 160.787 127.685 160 124.992C160.788 127.686 161.77 130.254 162.947 132.697C164.124 135.136 165.48 137.355 167.013 139.354Z" fill="white"/>
<path d="M167.012 139.354C168.034 140.686 169.136 141.92 170.317 143.055C169.136 141.919 168.035 140.686 167.012 139.354Z" fill="white"/>
<path d="M233.987 134.786C233.617 135.278 233.235 135.753 232.852 136.226C233.236 135.753 233.617 135.277 233.987 134.786Z" fill="white"/>
<path d="M161.827 69.6035C161.769 69.9455 161.708 70.2825 161.652 70.6275C161.707 70.2825 161.769 69.9455 161.827 69.6035Z" fill="white"/>
<path d="M166.469 51.6592C166.423 51.7852 166.374 51.9072 166.328 52.0342C166.37 51.9172 166.416 51.8062 166.459 51.6902C166.462 51.6792 166.466 51.6692 166.469 51.6592Z" fill="white"/>
<path d="M167.429 66.3057C167.352 66.6967 167.273 67.0867 167.199 67.4817C167.273 67.0867 167.351 66.6967 167.429 66.3057Z" fill="white"/>
<path d="M165.385 54.7812H165.382C165.316 54.9852 165.256 55.1993 165.191 55.4053C165.256 55.1983 165.318 54.9862 165.385 54.7812Z" fill="white"/>
<path d="M170.695 42.2772C170.853 41.9862 171.011 41.6942 171.172 41.4072C171.01 41.6942 170.853 41.9862 170.695 42.2772Z" fill="white"/>
<path d="M166.548 51.4492C166.522 51.5202 166.493 51.5882 166.467 51.6592C166.463 51.6692 166.46 51.6792 166.457 51.6902C166.487 51.6082 166.518 51.5302 166.548 51.4492Z" fill="white"/>
<path d="M167.312 49.4739C167.433 49.1739 167.56 48.8819 167.684 48.5859C167.56 48.8809 167.432 49.1739 167.312 49.4739Z" fill="white"/>
<path d="M168.363 46.9987C168.505 46.6807 168.65 46.3687 168.795 46.0557C168.65 46.3687 168.504 46.6817 168.363 46.9987Z" fill="white"/>
<path d="M173.617 37.4369C173.676 37.3499 173.732 37.2579 173.791 37.1709C173.732 37.2579 173.676 37.3489 173.617 37.4369Z" fill="white"/>
<path d="M172.008 39.9792C172.156 39.7332 172.3 39.4832 172.45 39.2412C172.299 39.4842 172.155 39.7342 172.008 39.9792Z" fill="white"/>
<path d="M125.609 132.348H129.993L130.39 129.878H126.007L125.609 132.348Z" fill="#FF808D"/>
<path d="M125.883 149.296H126.211L131.386 142.337L132.953 132.601H128.569L125.883 149.296Z" fill="#FF808D"/>
<path d="M134.993 129.878L140.169 122.919H131.511L130.391 129.878H134.993Z" fill="#AC5EFA"/>
<path d="M126.008 129.878H130.391L131.511 122.919H127.127L126.008 129.878Z" fill="#AC5EFA"/>
<path d="M95.5862 151.002L95.7372 150.06H91.6792L90.4102 157.961H120.431L125.606 151.002H95.5862Z" fill="#AC5EFA"/>
<path d="M97.0974 122.919H47.3674L48.7084 102.751L43.5334 109.709L42.1914 129.878H91.9214L91.5254 132.348H95.5824L97.0974 122.919Z" fill="#AC5EFA"/>
<path d="M98.5407 132.601H94.4827L91.7188 149.808H95.7767L98.5407 132.601Z" fill="#AC5EFA"/>
<path d="M95.5859 151.002H125.606L125.758 150.06H95.7369L95.5859 151.002Z" fill="white"/>
<path d="M47.3672 122.919H97.0972L95.5822 132.348H95.9112L97.6992 121.213H47.9692L49.2442 102.05L48.7082 102.751L47.3672 122.919Z" fill="white"/>
<path d="M98.8703 132.601H98.5413L95.7773 149.808H125.798L125.881 149.296H96.1883L98.8703 132.601Z" fill="white"/>
<path d="M97.6988 121.213L95.9107 132.348H125.609L126.007 129.878H121.951L127.126 122.919H131.51L131.785 121.213H140.439L143.929 99.3018H130.879L133.197 84.7978H129.34V84.5458H133.238L143.749 18.7958L112.719 18.3408L112.728 18.9738L107.553 25.9328L107.55 25.7498L74.7477 68.6748H100.011L108.866 56.6268L102.725 90.6038L102.431 90.6018L100.858 99.3018L95.6827 106.26L96.9457 99.2688L78.2277 99.1138L84.5928 90.4538L84.0057 90.4488L84.8007 89.3678H58.9347L49.2437 102.05L47.9688 121.213H97.6988Z" fill="white"/>
<path d="M98.8695 132.601L96.1875 149.296H125.881L128.566 132.601H98.8695Z" fill="white"/>
<path d="M121.953 129.878H126.009L127.128 122.919L121.953 129.878Z" fill="white"/>
<path d="M389.358 46.7625L365.165 46.7314V47.8774L389.358 47.9084V46.7625Z" fill="#AC5EFA"/>
<path d="M386.882 18.2364L351.907 18.1914V23.1194L386.882 23.1644V18.2364Z" fill="white"/>
<path d="M383.858 12.7808L367.594 12.7598V14.7008L383.858 14.7218V12.7808Z" fill="#FF808D"/>
<path d="M67.7155 150.096L49.6445 150.053V151.994L67.7155 152.036V150.096Z" fill="#FF808D"/>
<path d="M386.598 65.3813L372.138 65.3623V68.1073L386.598 68.1263V65.3813Z" fill="#FF808D"/>
<path d="M408.724 42.3742L403.167 42.3672V43.4812L408.724 43.4882V42.3742Z" fill="white"/>
<path d="M397.309 85.8576L389.358 85.8477V88.8777L397.309 88.8886V85.8576Z" fill="#AC5EFA"/>
<path d="M126.208 14.2432V15.9552C126.208 16.0372 126.185 16.1082 126.173 16.1842L131.947 16.1912V14.2512L126.208 14.2432Z" fill="white"/>
<path d="M132.35 0.571548L123.397 0.560547V1.82155L132.35 1.83356V0.571548Z" fill="white"/>
<path d="M45.7639 130.757L30.2539 130.737V133.767L45.7639 133.787V130.757Z" fill="#AC5EFA"/>
<path d="M111.391 163.091V168.019L115.751 168.025V163.097L111.391 163.091Z" fill="#AC5EFA"/>
<path d="M326.159 127.873V136.891C326.159 137.325 326.136 137.696 326.124 138.097L331.898 138.136V127.912L326.159 127.873Z" fill="white"/>
<path d="M358.377 99.1378L323.401 99.0928V104.021L358.377 104.066V99.1378Z" fill="white"/>
<path d="M348.215 118.312L331.951 118.292V120.232L348.215 120.253V118.312Z" fill="white"/>
<path d="M42.5126 144.555L17.0566 144.521V145.915L42.4466 145.948C42.4676 145.484 42.4896 145.02 42.5126 144.555Z" fill="white"/>
<path d="M304.096 10.6483L277.622 10.6143C277.599 11.0793 277.577 11.5443 277.556 12.0083L304.096 12.0423V10.6483Z" fill="white"/>
<path d="M271.081 166.115V167.509L281.412 167.523V166.128L271.081 166.115Z" fill="white"/>
<path d="M5.557 83.7492L0 83.7412V84.8562L5.557 84.8632V83.7492Z" fill="white"/>
<path d="M71.7842 45.5996V50.5276L76.1452 50.5336V45.6056L71.7842 45.5996Z" fill="white"/>
<path d="M259.945 99.4502H238.703V101.503H259.945V99.4502Z" fill="white"/>
<path d="M293.418 104.065V105.777C293.418 105.859 293.395 105.93 293.383 106.006L299.157 106.014V104.074L293.418 104.065Z" fill="#AC5EFA"/>
<path d="M54.5944 14.6145L45.6494 14.6035V16.9905L54.5944 17.0015V14.6145Z" fill="#FF808D"/>
<path d="M304.131 6.7998V8.5108C304.131 8.5938 304.108 8.66381 304.096 8.73981L309.87 8.74681V6.80582L304.131 6.7998Z" fill="#FF808D"/>
<path d="M219.195 0.670898L202.974 0.780899V1.8959L219.195 1.7849V0.670898Z" fill="white"/>
<path d="M150.447 12.7462V17.6752L163.177 17.5882V12.6602L150.447 12.7462Z" fill="white"/>
<path d="M185.342 89.4425V94.3705L200.604 94.2845V89.3555L185.342 89.4425Z" fill="white"/>
<path d="M172.326 105.372L113.009 105.501V107.866L172.326 107.736V105.372Z" fill="white"/>
<path d="M233.301 29.8604L193.799 29.9273V32.9583L233.325 32.8913C233.308 31.8803 233.302 30.8704 233.301 29.8604Z" fill="#FF808D"/>
<path d="M224.164 10.4793L172.326 10.2793V11.2613L224.164 11.4613V10.4793Z" fill="#FF808D"/>
<path d="M74.505 40.7547L22.667 40.5547V41.5367L74.505 41.7367V40.7547Z" fill="white"/>
<path d="M344.638 56.8883L303.543 56.8203V59.2073L344.638 59.2743V56.8883Z" fill="#FF808D"/>
<path d="M119.64 86.1716L79.2178 86.0156V87.2276L119.64 87.3836V86.1716Z" fill="white"/>
<path d="M170.183 65.4971L136.96 65.3691V67.7561L170.183 67.8841V65.4971Z" fill="#FF808D"/>
<path d="M167.55 122.827L134.328 122.699V125.086L167.55 125.214V122.827Z" fill="#FF808D"/>
<path d="M144.485 80.2481L111.262 80.1201V82.5071L144.485 82.6351V80.2481Z" fill="#FF808D"/>
<path d="M98.6269 102.645L48.5859 102.452V103.037L98.6269 103.23V102.645Z" fill="white"/>
<path d="M185.934 170.138L164.628 170.21L164.583 172.241L185.889 172.169L185.934 170.138Z" fill="#AC5EFA"/>
<path d="M247.126 111.792V112.87L295.026 112.485L295.036 111.406L247.126 111.792Z" fill="white"/>
<path d="M307.287 49.8457L284.945 49.9207L284.917 51.2217L307.258 51.1467L307.287 49.8457Z" fill="white"/>
<path d="M96.2448 56.792L76.3828 56.859L76.3428 58.699L96.2038 58.632L96.2448 56.792Z" fill="white"/>
<path d="M417.421 103.746L387.512 103.827L387.479 104.998L417.388 104.917L417.421 103.746Z" fill="white"/>
<path d="M245.691 69.7481L209.998 69.7031V70.8491L245.691 70.8951V69.7481Z" fill="#AC5EFA"/>
<path d="M279.988 42.0127L253.771 41.9717V43.8437L279.988 43.8847V42.0127Z" fill="white"/>
<path d="M390.963 139.564L384.827 139.556V140.142L390.963 140.15V139.564Z" fill="#FF808D"/>
<path d="M316.947 148.181L310.211 148.172V148.758L316.947 148.767V148.181Z" fill="#AC5EFA"/>
<path d="M201.221 129.266L194.659 129.258V131.644L201.221 131.653V129.266Z" fill="#AC5EFA"/>
<path d="M183.244 31.7678L176.681 31.7598V34.1468L183.244 34.1548V31.7678Z" fill="#AC5EFA"/>
<path d="M242.334 162.545L233.388 162.533V164.92L242.334 164.931V162.545Z" fill="#AC5EFA"/>
<path d="M176.5 149.599L152.736 149.555V150.048L176.5 150.093V149.599Z" fill="#AC5EFA"/>
<path d="M291.295 125.242L259.785 125.202V127.588L291.295 127.629V125.242Z" fill="white"/>
<path d="M256.721 73.8319L229.386 73.7969V76.5419L256.721 76.5769V73.8319Z" fill="#AC5EFA"/>
<path d="M65.0361 75.2215L37.7021 75.1865V77.9315L65.0361 77.9675V75.2215Z" fill="white"/>
<path d="M336.625 171.201L327.538 171.19V173.576L336.625 173.588V171.201Z" fill="white"/>
<path d="M243.052 70.0793L236.916 70.0713V70.6573L243.052 70.6653V70.0793Z" fill="white"/>
<path d="M218.812 158.496L212.25 158.488V160.874L218.812 160.883V158.496Z" fill="#FF808D"/>
<path d="M265.723 88.1507L256.777 88.1387V90.5257L265.723 90.5367V88.1507Z" fill="white"/>
<path d="M93.0289 47.2248L86.2939 47.2158V47.8018L93.0289 47.8098V47.2248Z" fill="#AC5EFA"/>
<path d="M29.7854 111.552L23.6494 111.544V112.13L29.7854 112.138V111.552Z" fill="#AC5EFA"/>
<path d="M73.9651 36.4914L67.8281 36.4834V37.0694L73.9651 37.0764V36.4914Z" fill="#AC5EFA"/>
<path d="M91.3266 0.00799561L84.7646 0V2.38599L91.3266 2.39499V0.00799561Z" fill="#AC5EFA"/>
<path d="M278.913 112.301L275.54 112.292V112.878L278.913 112.886V112.301Z" fill="#AC5EFA"/>
<path d="M269.364 101.567L266.291 101.559V102.145L269.364 102.152V101.567Z" fill="#AC5EFA"/>
</svg>
