<svg width="148" height="173" viewBox="0 0 148 173" fill="none" xmlns="http://www.w3.org/2000/svg">
<path d="M50.6038 68.5581C42.0056 66.2542 36.883 57.3841 39.1873 48.7842L47.2862 18.5586C47.5306 17.6465 48.467 17.1059 49.3791 17.3503C50.2911 17.5947 50.8317 18.531 50.5874 19.4431L42.4884 49.6687C40.672 56.4479 44.7092 63.4405 51.4883 65.257C58.2675 67.0735 65.2601 63.0363 67.0766 56.2571L75.5954 24.4643C75.8398 23.5522 76.7762 23.0116 77.6883 23.256C78.6003 23.5004 79.1409 24.4368 78.8966 25.3488L70.3777 57.1416C68.0717 65.741 59.202 70.862 50.6038 68.5581Z" fill="#263238"/>
<path d="M106.203 157.783L28.8027 149.489C24.5973 149.039 21.553 145.263 22.0049 141.058L34.1277 27.9278C34.5779 23.7225 38.3537 20.6781 42.5586 21.13L119.959 29.4238C124.164 29.874 127.208 33.6498 126.756 37.8547L114.633 150.985C114.184 155.189 110.408 158.233 106.203 157.783Z" fill="#939393"/>
<path opacity="0.6" d="M106.203 157.783L28.8027 149.489C24.5973 149.039 21.553 145.263 22.0049 141.058L34.1277 27.9278C34.5779 23.7225 38.3537 20.6781 42.5586 21.13L119.959 29.4238C124.164 29.874 127.208 33.6498 126.756 37.8547L114.633 150.985C114.184 155.189 110.408 158.233 106.203 157.783Z" fill="white"/>
<path opacity="0.2" d="M107.104 88.2484L44.9837 81.8931C44.0163 81.7944 43.1527 82.4986 43.0544 83.4644L42.997 84.0326C42.8983 85.0001 43.6025 85.8636 44.5683 85.9619L106.688 92.3172C107.656 92.416 108.519 91.7117 108.618 90.7459L108.675 90.1777C108.774 89.2102 108.07 88.3467 107.104 88.2484Z" fill="black"/>
<path opacity="0.2" d="M105.401 104.87L43.2807 98.5147C42.3132 98.416 41.4497 99.1202 41.351 100.088L41.2936 100.656C41.1948 101.623 41.899 102.487 42.8665 102.586L104.987 108.941C105.954 109.04 106.818 108.336 106.916 107.368L106.974 106.8C107.072 105.834 106.368 104.97 105.401 104.87Z" fill="black"/>
<path opacity="0.2" d="M103.705 121.494L41.5853 115.139C40.6178 115.04 39.7543 115.745 39.656 116.71L39.5986 117.279C39.4999 118.246 40.2041 119.11 41.1716 119.208L103.292 125.564C104.259 125.662 105.123 124.958 105.223 123.993L105.28 123.425C105.377 122.458 104.673 121.593 103.705 121.494Z" fill="black"/>
<path d="M98.4767 160.551L21.4692 149.173C17.285 148.555 14.3943 144.662 15.0121 140.478L31.6429 27.9205C32.2607 23.7363 36.1539 20.8456 40.3381 21.4634L117.346 32.8418C121.53 33.4596 124.42 37.3528 123.803 41.537L107.172 154.094C106.552 158.278 102.661 161.169 98.4767 160.551Z" fill="#939393"/>
<path opacity="0.7" d="M98.4767 160.551L21.4692 149.173C17.285 148.555 14.3943 144.662 15.0121 140.478L31.6429 27.9205C32.2607 23.7363 36.1539 20.8456 40.3381 21.4634L117.346 32.8418C121.53 33.4596 124.42 37.3528 123.803 41.537L107.172 154.094C106.552 158.278 102.661 161.169 98.4767 160.551Z" fill="white"/>
<path opacity="0.2" d="M102.143 91.1077L40.3253 82.2765C39.3627 82.139 38.472 82.8086 38.3349 83.7694L38.2545 84.3351C38.1169 85.2977 38.7865 86.1884 39.7491 86.3259L101.565 95.1567C102.528 95.2942 103.418 94.6246 103.555 93.6638L103.636 93.0981C103.773 92.1372 103.106 91.2453 102.143 91.1077Z" fill="black"/>
<path opacity="0.2" d="M99.7759 107.651L37.9581 98.8195C36.9955 98.682 36.1048 99.3515 35.9673 100.314L35.8868 100.88C35.7493 101.842 36.4184 102.735 37.3814 102.871L99.1992 111.702C100.162 111.839 101.052 111.17 101.19 110.207L101.27 109.642C101.408 108.679 100.738 107.788 99.7759 107.651Z" fill="black"/>
<path opacity="0.2" d="M97.4229 124.191L35.6069 115.361C34.6443 115.223 33.7519 115.892 33.6165 116.853L33.5361 117.419C33.3985 118.382 34.0681 119.272 35.029 119.41L96.845 128.24C97.8076 128.378 98.7 127.709 98.8371 126.748L98.9175 126.182C99.0529 125.221 98.3855 124.329 97.4229 124.191Z" fill="black"/>
<path d="M122.95 70.6348L98.3524 163.102C98.0354 164.292 96.8134 165 95.623 164.685L10.1223 141.939C8.93245 141.622 8.22398 140.4 8.53929 139.21L40.5342 18.9389C40.8512 17.749 42.0733 17.0406 43.2637 17.3559L100.874 32.6812L122.95 70.6348Z" fill="#939393"/>
<g opacity="0.8">
<path d="M122.95 70.6348L98.3524 163.102C98.0354 164.292 96.8134 165 95.623 164.685L10.1223 141.939C8.93245 141.622 8.22398 140.4 8.53929 139.21L40.5342 18.9389C40.8512 17.749 42.0733 17.0406 43.2637 17.3559L100.874 32.6812L122.95 70.6348Z" fill="white"/>
</g>
<path d="M100.782 94.5575L40.3873 78.6849C39.4467 78.4383 38.4847 78.9995 38.2382 79.9401L38.0939 80.4923C37.8473 81.433 38.4084 82.3949 39.3491 82.6415L99.7433 98.5141C100.684 98.7606 101.646 98.1995 101.892 97.2589L102.037 96.7066C102.285 95.7681 101.722 94.804 100.782 94.5575Z" fill="#263238"/>
<path d="M96.5316 110.719L36.1374 94.846C35.1967 94.5994 34.2348 95.1606 33.9882 96.1012L33.8439 96.6534C33.5973 97.5941 34.1584 98.556 35.0991 98.8026L95.4933 114.675C96.434 114.922 97.3959 114.361 97.6425 113.42L97.7868 112.868C98.0329 111.929 97.4718 110.967 96.5316 110.719Z" fill="#263238"/>
<path d="M92.2816 126.881L31.8873 111.008C30.9467 110.762 29.9848 111.323 29.7382 112.263L29.5939 112.816C29.3473 113.756 29.9084 114.718 30.8491 114.965L91.2433 130.837C92.184 131.084 93.1459 130.523 93.3925 129.582L93.5368 129.03C93.7851 128.09 93.2223 127.127 92.2816 126.881Z" fill="#263238"/>
<path d="M100.945 32.6289L93.5266 60.52C93.2096 61.7098 93.918 62.9319 95.1096 63.2494L122.915 70.6469L100.945 32.6289Z" fill="#939393"/>
<path opacity="0.9" d="M100.945 32.6289L93.5266 60.52C93.2096 61.7098 93.918 62.9319 95.1096 63.2494L122.915 70.6469L100.945 32.6289Z" fill="white"/>
<path opacity="0.5" d="M100.782 94.5575L40.3873 78.6849C39.4467 78.4383 38.4847 78.9995 38.2382 79.9401L38.0939 80.4923C37.8473 81.433 38.4084 82.3949 39.3491 82.6415L99.7433 98.5141C100.684 98.7606 101.646 98.1995 101.892 97.2589L102.037 96.7066C102.285 95.7681 101.722 94.804 100.782 94.5575Z" fill="white"/>
<path opacity="0.5" d="M96.5316 110.719L36.1374 94.846C35.1967 94.5994 34.2348 95.1606 33.9882 96.1012L33.8439 96.6534C33.5973 97.5941 34.1584 98.556 35.0991 98.8026L95.4933 114.675C96.434 114.922 97.3959 114.361 97.6425 113.42L97.7868 112.868C98.0329 111.929 97.4718 110.967 96.5316 110.719Z" fill="white"/>
<path opacity="0.5" d="M92.2816 126.881L31.8873 111.008C30.9467 110.762 29.9848 111.323 29.7382 112.263L29.5939 112.816C29.3473 113.756 29.9084 114.718 30.8491 114.965L91.2433 130.837C92.184 131.084 93.1459 130.523 93.3925 129.582L93.5368 129.03C93.7851 128.09 93.2223 127.127 92.2816 126.881Z" fill="white"/>
<path d="M69.4235 26.3059L66.1224 25.4213L67.6397 19.7584C68.8206 15.3512 66.1956 10.807 61.7901 9.62656C57.3847 8.44612 52.8387 11.0707 51.6583 15.4762L50.5832 19.4886L47.2821 18.604L48.3572 14.5917C50.0255 8.36548 56.4485 4.65715 62.6747 6.32545C68.9008 7.99374 72.6092 14.4168 70.9409 20.6429L69.4235 26.3059Z" fill="#263238"/>
<path d="M54.3153 54.3974C50.417 53.3528 48.0967 49.3316 49.1408 45.4349L56.1437 19.3C56.3881 18.3879 57.3244 17.8473 58.2365 18.0917C59.1486 18.3361 59.6892 19.2724 59.4448 20.1845L52.4419 46.3195C51.8852 48.3971 53.1222 50.5396 55.1999 51.0963C57.2775 51.653 59.42 50.416 59.9767 48.3384L66.5596 23.7706C66.804 22.8586 67.7403 22.3179 68.6524 22.5623C69.5645 22.8067 70.1051 23.7431 69.8607 24.6551L63.2778 49.2229C62.2332 53.1213 58.2137 55.4419 54.3153 54.3974Z" fill="#263238"/>
</svg>
