<svg width="48" height="48" viewBox="0 0 48 48" fill="none" xmlns="http://www.w3.org/2000/svg">
<path d="M41.7657 44.25H39.8907V37.3168C39.8907 31.5861 36.7112 26.5868 32.0296 24C36.7113 21.4132 39.8907 16.414 39.8907 10.6832V3.75H41.7657C44.2398 3.66309 44.2591 0.0949688 41.7657 0H6.23445C3.76029 0.0870938 3.74116 3.65503 6.23445 3.75H8.0157V10.6832C8.0157 16.4139 11.1952 21.4132 15.8768 24C11.1952 26.5868 8.0157 31.5861 8.0157 37.3168V44.25H6.23445C3.75851 44.3378 3.74276 47.9056 6.23445 48H41.7657C44.238 47.9138 44.2608 44.3456 41.7657 44.25ZM11.7657 10.6832V3.75H36.1407V10.6832C36.1407 16.9922 31.0306 22.125 24.7492 22.125C17.7797 22.7099 11.8439 17.8282 11.7657 10.6832ZM11.7657 37.3168C11.846 30.1692 17.7776 25.2915 24.7491 25.8751C31.0306 25.875 36.1407 31.0078 36.1407 37.3168V44.25H11.7657V37.3168ZM30.8907 40.5C30.4126 40.5 29.9344 40.3183 29.5686 39.9547L24.6844 35.098C24.3847 34.7999 23.8969 34.7999 23.5969 35.098L18.7127 39.9547C16.8912 41.6401 14.3698 39.1151 16.0686 37.2954L20.9528 32.4389C22.7104 30.6911 25.5708 30.6911 27.3284 32.4389L32.2127 37.2955C33.4004 38.4587 32.5345 40.5179 30.8907 40.5Z" fill="#eb8f36"/>
</svg>
