
<svg width="52" height="52" viewBox="0 0 52 52" fill="none" xmlns="http://www.w3.org/2000/svg">
<path d="M49.1962 21.625C48.9125 21.4676 48.6633 21.2548 48.4634 20.9993C48.2635 20.7438 48.117 20.4507 48.0324 20.1375C47.9477 19.8234 47.9281 19.4953 47.9747 19.1733C48.0214 18.8513 48.1333 18.5422 48.3037 18.265C48.7678 17.4924 49.0165 16.6095 49.0242 15.7082C49.0318 14.8069 48.798 13.92 48.3471 13.1396C47.8962 12.3592 47.2445 11.7137 46.4599 11.2702C45.6752 10.8267 44.7861 10.6013 43.8849 10.6175C43.2321 10.624 42.6032 10.3724 42.1349 9.91753C41.9061 9.68825 41.726 9.41498 41.6057 9.1142C41.4854 8.81342 41.4273 8.49139 41.4349 8.16753C41.4511 7.26634 41.2257 6.37725 40.7822 5.59259C40.3387 4.80792 39.6933 4.15629 38.9128 3.70535C38.1324 3.25442 37.2455 3.02064 36.3442 3.02827C35.4429 3.03591 34.5601 3.28469 33.7874 3.74878C33.5035 3.92265 33.1866 4.03592 32.8568 4.08148C32.5269 4.12703 32.1912 4.10389 31.8708 4.0135C31.5503 3.92312 31.252 3.76744 30.9946 3.55624C30.7371 3.34505 30.5262 3.08291 30.3749 2.78628C29.9324 2.01616 29.2943 1.37666 28.5251 0.932533C27.7559 0.488408 26.883 0.255436 25.9948 0.257212C25.1067 0.258989 24.2347 0.49545 23.4673 0.942648C22.6999 1.38985 22.0643 2.0319 21.6249 2.80378C21.4675 3.08743 21.2547 3.3366 20.9992 3.5365C20.7437 3.7364 20.4506 3.88297 20.1374 3.96753C19.8233 4.05222 19.4952 4.07184 19.1732 4.0252C18.8512 3.97855 18.5421 3.86663 18.2649 3.69628C17.4922 3.23219 16.6094 2.98341 15.7081 2.97577C14.8068 2.96814 13.9199 3.20192 13.1395 3.65285C12.3591 4.10379 11.7136 4.75542 11.2701 5.54009C10.8266 6.32475 10.6012 7.21384 10.6174 8.11503C10.625 8.43889 10.5669 8.76093 10.4466 9.0617C10.3263 9.36248 10.1463 9.63575 9.91742 9.86503C9.44916 10.3199 8.82022 10.5715 8.16742 10.565C7.26623 10.5488 6.37714 10.7742 5.59247 11.2177C4.80781 11.6612 4.15617 12.3067 3.70524 13.0871C3.25431 13.8675 3.02053 14.7544 3.02816 15.6557C3.0358 16.557 3.28458 17.4399 3.74867 18.2125C3.92254 18.4965 4.03581 18.8133 4.08137 19.1432C4.12692 19.473 4.10378 19.8087 4.01339 20.1292C3.92301 20.4496 3.76733 20.748 3.55613 21.0054C3.34494 21.2628 3.08279 21.4738 2.78617 21.625C1.99628 22.0602 1.33763 22.6994 0.878916 23.4758C0.4202 24.2523 0.178223 25.1376 0.178223 26.0394C0.178223 26.9412 0.4202 27.8265 0.878916 28.603C1.33763 29.3794 1.99628 30.0186 2.78617 30.4538C3.06982 30.6112 3.31899 30.824 3.51889 31.0795C3.71879 31.335 3.86536 31.6281 3.94992 31.9413C4.03461 32.2554 4.05423 32.5835 4.00759 32.9055C3.96094 33.2275 3.84902 33.5366 3.67867 33.8138C3.21458 34.5864 2.9658 35.4693 2.95816 36.3706C2.95053 37.2719 3.18431 38.1588 3.63524 38.9392C4.08617 39.7196 4.73781 40.3651 5.52247 40.8086C6.30714 41.2521 7.19623 41.4775 8.09742 41.4613C8.75022 41.4548 9.37916 41.7064 9.84742 42.1613C10.0763 42.3906 10.2563 42.6638 10.3766 42.9646C10.4969 43.2654 10.555 43.5874 10.5474 43.9113C10.5312 44.8125 10.7566 45.7016 11.2001 46.4862C11.6436 47.2709 12.2891 47.9225 13.0695 48.3735C13.8499 48.8244 14.7368 49.0582 15.6381 49.0505C16.5394 49.0429 17.4222 48.7941 18.1949 48.33C18.4747 48.1503 18.7885 48.0303 19.1168 47.9775C19.4451 47.9247 19.7808 47.9403 20.1028 48.0232C20.4248 48.1062 20.7262 48.2548 20.9881 48.4596C21.2501 48.6645 21.4668 48.9212 21.6249 49.2138C22.0601 50.0037 22.6992 50.6623 23.4757 51.121C24.2521 51.5797 25.1375 51.8217 26.0393 51.8217C26.9411 51.8217 27.8264 51.5797 28.6029 51.121C29.3793 50.6623 30.0185 50.0037 30.4537 49.2138C30.6111 48.9301 30.8239 48.681 31.0794 48.4811C31.3349 48.2812 31.628 48.1346 31.9412 48.05C32.2551 47.9632 32.5836 47.9425 32.9059 47.9892C33.2282 48.0359 33.5373 48.149 33.8137 48.3213C34.5863 48.7854 35.4692 49.0341 36.3705 49.0418C37.2718 49.0494 38.1587 48.8156 38.9391 48.3647C39.7195 47.9138 40.365 47.2621 40.8085 46.4775C41.252 45.6928 41.4774 44.8037 41.4612 43.9025C41.4536 43.5787 41.5117 43.2566 41.632 42.9559C41.7523 42.6551 41.9323 42.3818 42.1612 42.1525C42.3919 41.9257 42.6655 41.747 42.9659 41.6268C43.2663 41.5067 43.5876 41.4474 43.9112 41.4525C44.8124 41.4687 45.7014 41.2434 46.4861 40.7999C47.2708 40.3564 47.9224 39.7109 48.3733 38.9305C48.8243 38.15 49.0581 37.2631 49.0504 36.3618C49.0428 35.4605 48.794 34.5777 48.3299 33.805C48.1641 33.5291 48.0551 33.2228 48.0094 32.9042C47.9637 32.5855 47.9821 32.261 48.0637 31.9495C48.1452 31.6381 48.2881 31.3462 48.4841 31.0908C48.6801 30.8354 48.9252 30.6218 49.2049 30.4625C49.9948 30.0273 50.6535 29.3882 51.1122 28.6117C51.5709 27.8353 51.8129 26.95 51.8129 26.0482C51.8129 25.1463 51.5709 24.261 51.1122 23.4846C50.6535 22.7081 49.9948 22.069 49.2049 21.6338L49.1962 21.625ZM39.5187 21.4763L26.3937 34.6013C24.9201 36.0547 22.9335 36.8696 20.8637 36.8696C18.7939 36.8696 16.8073 36.0547 15.3337 34.6013L10.7312 30.025C10.3864 29.6803 10.113 29.2711 9.92644 28.8207C9.73988 28.3703 9.64386 27.8875 9.64386 27.4C9.64386 26.9125 9.73988 26.4298 9.92644 25.9794C10.113 25.529 10.3864 25.1197 10.7312 24.775C11.0759 24.4303 11.4851 24.1569 11.9355 23.9703C12.3859 23.7837 12.8687 23.6877 13.3562 23.6877C13.8437 23.6877 14.3264 23.7837 14.7768 23.9703C15.2272 24.1569 15.6364 24.4303 15.9812 24.775L20.3562 29.15C20.484 29.2772 20.6571 29.3486 20.8374 29.3486C21.0178 29.3486 21.1908 29.2772 21.3187 29.15L34.2774 16.2C34.9736 15.5038 35.9179 15.1127 36.9024 15.1127C37.887 15.1127 38.8312 15.5038 39.5274 16.2C40.2236 16.8962 40.6147 17.8405 40.6147 18.825C40.6147 19.8096 40.2236 20.7538 39.5274 21.45L39.5187 21.4763Z" fill="#14C544"/>
</svg>
