<svg width="147" height="122" viewBox="0 0 147 122" fill="none" xmlns="http://www.w3.org/2000/svg">
<path d="M89.8526 10.7579C90.1848 10.5506 90.5662 10.4357 90.9576 10.425C91.349 10.4143 91.7361 10.5083 92.0791 10.6972C92.422 10.8861 92.7084 11.1631 92.9085 11.4995C93.1087 11.836 93.2155 12.2198 93.2179 12.6114V118.415C93.2158 118.807 93.1091 119.191 92.909 119.527C92.709 119.864 92.4226 120.141 92.0796 120.33C91.7366 120.519 91.3494 120.613 90.9579 120.603C90.5664 120.592 90.1849 120.477 89.8526 120.27L80.3496 114.25C79.998 114.028 79.5908 113.91 79.175 113.91C78.7592 113.91 78.352 114.028 78.0004 114.25L66.2945 121.66C65.9429 121.882 65.5357 122 65.1199 122C64.7041 122 64.2969 121.882 63.9453 121.66L52.2562 114.25C51.9046 114.028 51.4973 113.91 51.0816 113.91C50.6658 113.91 50.2585 114.028 49.907 114.25L38.2088 121.66C37.8573 121.882 37.45 122 37.0342 122C36.6185 122 36.2112 121.882 35.8596 121.66L24.1576 114.25C23.806 114.028 23.3988 113.91 22.983 113.91C22.5672 113.91 22.16 114.028 21.8084 114.25L12.3106 120.266C11.9783 120.473 11.5968 120.588 11.2053 120.599C10.8138 120.609 10.4265 120.515 10.0835 120.326C9.74055 120.137 9.45423 119.86 9.25414 119.523C9.05405 119.187 8.94743 118.803 8.94531 118.411V12.6114C8.94766 12.2198 9.05443 11.836 9.25461 11.4995C9.4548 11.1631 9.74116 10.8861 10.0841 10.6972C10.4271 10.5083 10.8142 10.4143 11.2056 10.425C11.597 10.4357 11.9784 10.5506 12.3106 10.7579L21.8135 16.7778C22.1651 16.9998 22.5724 17.1175 22.9882 17.1175C23.4039 17.1175 23.8112 16.9998 24.1628 16.7778L35.8687 9.36647C36.2198 9.14389 36.6269 9.02571 37.0426 9.02571C37.4584 9.02571 37.8655 9.14389 38.2166 9.36647L49.907 16.7752C50.2585 16.9972 50.6658 17.115 51.0816 17.115C51.4973 17.115 51.9046 16.9972 52.2562 16.7752L63.9543 9.36517C64.3055 9.14259 64.7126 9.02441 65.1283 9.02441C65.544 9.02441 65.9512 9.14259 66.3023 9.36517L78.0017 16.7765C78.3533 16.9985 78.7605 17.1163 79.1763 17.1163C79.5921 17.1163 79.9993 16.9985 80.3509 16.7765L89.8526 10.7579Z" fill="#EDEDED"/>
<path fill-rule="evenodd" clip-rule="evenodd" d="M22.2891 52.1113H51.2031V54.8747H22.2891V52.1113Z" fill="#CFD3D6"/>
<path fill-rule="evenodd" clip-rule="evenodd" d="M66.2812 52.1113H79.631V54.8747H66.2812V52.1113Z" fill="#CFD3D6"/>
<path fill-rule="evenodd" clip-rule="evenodd" d="M22.5078 60.9219H44.3289V63.6853H22.5078V60.9219Z" fill="#CFD3D6"/>
<path fill-rule="evenodd" clip-rule="evenodd" d="M66.2812 60.9219H79.631V63.6853H66.2812V60.9219Z" fill="#CFD3D6"/>
<path fill-rule="evenodd" clip-rule="evenodd" d="M22.5078 69.7295H51.4219V72.4929H22.5078V69.7295Z" fill="#CFD3D6"/>
<path fill-rule="evenodd" clip-rule="evenodd" d="M66.2812 69.7295H79.631V72.4929H66.2812V69.7295Z" fill="#CFD3D6"/>
<path fill-rule="evenodd" clip-rule="evenodd" d="M22.5078 78.5391H51.4219V81.3025H22.5078V78.5391Z" fill="#CFD3D6"/>
<path fill-rule="evenodd" clip-rule="evenodd" d="M66.2812 78.5391H79.631V81.3025H66.2812V78.5391Z" fill="#CFD3D6"/>
<path fill-rule="evenodd" clip-rule="evenodd" d="M22.5078 87.3486H48.0035V90.112H22.5078V87.3486Z" fill="#CFD3D6"/>
<path fill-rule="evenodd" clip-rule="evenodd" d="M66.2812 87.3486H79.631V90.112H66.2812V87.3486Z" fill="#CFD3D6"/>
<path fill-rule="evenodd" clip-rule="evenodd" d="M22.5078 96.1582H51.4219V98.9216H22.5078V96.1582Z" fill="#CFD3D6"/>
<path fill-rule="evenodd" clip-rule="evenodd" d="M66.2812 96.1582H79.631V98.9216H66.2812V96.1582Z" fill="#CFD3D6"/>
<path fill-rule="evenodd" clip-rule="evenodd" d="M22.2891 40.1494H32.2412V43.4668H22.2891V40.1494Z" fill="#CFD3D6"/>
<path opacity="0.48" d="M82.8192 3.75716C83.1573 3.54171 83.5472 3.42118 83.9479 3.40819C84.3486 3.3952 84.7455 3.49023 85.0969 3.68332C85.4483 3.87642 85.7412 4.16046 85.9451 4.5057C86.149 4.85093 86.2562 5.24465 86.2556 5.64559V111.304C86.2556 111.704 86.1482 112.097 85.9446 112.442C85.741 112.786 85.4487 113.07 85.0981 113.263C84.7476 113.456 84.3516 113.551 83.9517 113.539C83.5518 113.526 83.1624 113.407 82.8244 113.193L73.4042 107.225C73.0464 106.998 72.6317 106.878 72.2083 106.878C71.7848 106.878 71.3701 106.998 71.0123 107.225L59.3491 114.602C58.9913 114.829 58.5766 114.949 58.1531 114.949C57.7297 114.949 57.315 114.829 56.9572 114.602L45.3082 107.225C44.9505 106.998 44.5357 106.878 44.1122 106.878C43.6887 106.878 43.274 106.998 42.9163 107.225L31.2673 114.602C30.91 114.829 30.4954 114.95 30.072 114.95C29.6486 114.95 29.234 114.829 28.8767 114.602L17.2277 107.225C16.8699 106.998 16.4552 106.878 16.0317 106.878C15.6083 106.878 15.1936 106.998 14.8358 107.225L5.41435 113.193C5.07641 113.407 4.68716 113.526 4.28725 113.539C3.88733 113.551 3.49143 113.456 3.14093 113.263C2.79043 113.07 2.4982 112.786 2.29475 112.442C2.0913 112.097 1.98411 111.704 1.98438 111.304V5.64559C1.98411 5.24548 2.0913 4.85264 2.29475 4.50812C2.4982 4.1636 2.79043 3.88004 3.14093 3.68707C3.49143 3.4941 3.88733 3.3988 4.28725 3.41113C4.68716 3.42346 5.07641 3.54296 5.41435 3.75716L14.8358 9.72531C15.1936 9.95173 15.6083 10.0719 16.0317 10.0719C16.4552 10.0719 16.8699 9.95173 17.2277 9.72531L28.8909 2.34763C29.2484 2.12088 29.6629 2.00048 30.0862 2.00048C30.5095 2.00048 30.9241 2.12088 31.2816 2.34763L42.9305 9.72531C43.2882 9.95203 43.703 10.0724 44.1265 10.0724C44.55 10.0724 44.9648 9.95203 45.3224 9.72531L56.9779 2.34763C57.3352 2.12058 57.7498 2 58.1732 2C58.5966 2 59.0112 2.12058 59.3685 2.34763L71.024 9.72531C71.3818 9.95173 71.7965 10.0719 72.2199 10.0719C72.6434 10.0719 73.0581 9.95173 73.4159 9.72531L82.8192 3.75716Z" stroke="#EDEDED" stroke-width="3" stroke-miterlimit="10"/>
<path fill-rule="evenodd" clip-rule="evenodd" d="M127.1 14.3398L127.224 25.7093L124.335 25.7409L124.211 14.3714L127.1 14.3398Z" fill="#5DC90A"/>
<path fill-rule="evenodd" clip-rule="evenodd" d="M145.301 17.2957L133.479 29.3774L131.414 27.3571L143.236 15.2754L145.301 17.2957Z" fill="#5DC90A"/>
<path fill-rule="evenodd" clip-rule="evenodd" d="M146.994 37.0733H135.625V34.1846H146.994V37.0733Z" fill="#5DC90A"/>
<g style="mix-blend-mode:multiply" opacity="0.2">
<path d="M68.6406 39.9893H105.741V97.5845H90.702L74.3304 110.9L77.3066 97.5845H74.731C73.1157 97.5845 71.5666 96.9429 70.4245 95.8007C69.2823 94.6586 68.6406 93.1095 68.6406 91.4942V39.9893Z" fill="#5DC90A"/>
</g>
<path d="M69.7778 32.3643H124.047C125.662 32.3643 127.212 33.0059 128.354 34.1481C129.496 35.2902 130.138 36.8393 130.138 38.4546V86.4597C130.138 88.0749 129.496 89.624 128.354 90.7662C127.212 91.9083 125.662 92.55 124.047 92.55H85.7489L69.3772 105.865L72.3535 92.55H69.7778C68.1626 92.55 66.6135 91.9083 65.4713 90.7662C64.3292 89.624 63.6875 88.0749 63.6875 86.4597V38.4546C63.6875 36.8393 64.3292 35.2902 65.4713 34.1481C66.6135 33.0059 68.1626 32.3643 69.7778 32.3643Z" fill="#5DC90A"/>
<path d="M97.8258 76.4999C89.2029 76.4999 82.1875 69.4845 82.1875 60.8616C82.1875 52.2387 89.2029 45.2236 97.8258 45.2236C106.449 45.2236 113.464 52.2387 113.464 60.8616C113.464 69.4848 106.449 76.4999 97.8258 76.4999ZM97.8258 45.8686C89.5581 45.8686 82.8322 52.5946 82.8322 60.8619C82.8322 69.1293 89.5581 75.8556 97.8258 75.8556C106.093 75.8556 112.819 69.1296 112.819 60.8619C112.819 52.5946 106.093 45.8686 97.8258 45.8686Z" fill="white"/>
<path d="M94.6111 69.136L88.0859 62.6108L90.4338 60.263L94.6111 64.4407L105.163 53.8887L107.511 56.2362L94.6111 69.136Z" fill="white"/>
<path d="M94.6128 69.6933L87.5312 62.6115L90.4354 59.7073L94.6131 63.885L105.165 53.333L108.069 56.2372L94.6128 69.6933ZM88.6442 62.6115L94.6128 68.58L106.956 56.2372L105.165 54.446L94.6128 64.9983L90.4354 60.8206L88.6442 62.6115Z" fill="white"/>
</svg>
