<svg width="10" height="20" viewBox="0 0 134 32" fill="none" xmlns="http://www.w3.org/2000/svg">
<path fill-rule="evenodd" clip-rule="evenodd" d="M134 30H131.679C126.045 30 121.461 25.3186 121.461 19.5627V0H126.594V8.27563H134V13.5186H126.594V19.5627C126.594 22.4279 128.873 24.757 131.679 24.757H134V30ZM89.4819 30H94.6148V18.6197C94.6148 12.8638 90.0315 8.18242 84.3975 8.18242C82.5478 8.18242 80.8114 8.68702 79.3132 9.56858V0H74.1802V19.7132L74.1802 30H79.3132V18.6197C79.3132 15.7545 81.5922 13.4254 84.3975 13.4254C87.2029 13.4254 89.4819 15.7545 89.4819 18.6197V30ZM40 19.5627C40 25.3186 44.5833 30 50.2173 30C55.8513 30 60.4346 25.3186 60.4346 19.5627V8.27563H55.3016V19.5627C55.3016 22.4279 53.0227 24.757 50.2173 24.757C47.4119 24.757 45.133 22.4279 45.133 19.5627V8.27563H40V19.5627ZM107.889 30C102.255 30 97.6718 25.3186 97.6718 19.5627V8.27563H102.805V19.5627C102.805 22.4279 105.084 24.757 107.889 24.757C110.694 24.757 112.973 22.4279 112.973 19.5627V8.27563H118.106V19.5627C118.106 25.3186 113.523 30 107.889 30ZM64.2843 8.27563V30H69.4173V8.27563H64.2843ZM70.0092 3.2276C70.0092 5.00989 68.5948 6.45521 66.8507 6.45521C65.1066 6.45521 63.6923 5.00989 63.6923 3.2276C63.6923 1.44532 65.1066 0 66.8507 0C68.5948 0 70.0092 1.44532 70.0092 3.2276Z" fill="#B9C0DA"/>
<path d="M15 3.30941C15 1.48064 13.5601 0 11.7867 0H0V16C0 24.8387 6.71642 32 15 32V3.30941Z" fill="url(#paint0_linear_1_9066)"/>
<path d="M17 20.2133C17 18.4377 18.4399 17 20.2133 17H32C32 25.2858 25.2836 32 17 32V20.2133Z" fill="url(#paint1_linear_1_9066)"/>
<path d="M24.5 0C28.6424 0 32 3.35821 32 7.5C32 11.6418 28.6424 15 24.5 15C20.3576 15 17 11.6418 17 7.5C17 3.35821 20.3576 0 24.5 0Z" fill="url(#paint2_linear_1_9066)"/>
<defs>
<linearGradient id="paint0_linear_1_9066" x1="1.5" y1="-2.50001" x2="19.912" y2="-3.59921" gradientUnits="userSpaceOnUse">
<stop stop-color="#FF808D"/>
<stop offset="1" stop-color="#AC66F3"/>
</linearGradient>
<linearGradient id="paint1_linear_1_9066" x1="1.5" y1="-2.50001" x2="19.912" y2="-3.59921" gradientUnits="userSpaceOnUse">
<stop stop-color="#FF808D"/>
<stop offset="1" stop-color="#AC66F3"/>
</linearGradient>
<linearGradient id="paint2_linear_1_9066" x1="1.5" y1="-2.50001" x2="19.912" y2="-3.59921" gradientUnits="userSpaceOnUse">
<stop stop-color="#FF808D"/>
<stop offset="1" stop-color="#AC66F3"/>
</linearGradient>
</defs>
</svg>
