<svg width="190" height="97" viewBox="0 0 190 97" fill="none" xmlns="http://www.w3.org/2000/svg">
<path d="M150.487 59.3847C150.654 59.4196 150.787 59.5034 150.857 59.6639L150.947 59.643L151.003 59.7197C151.464 59.7058 151.924 59.6988 152.392 59.6848C152.504 59.4964 152.678 59.3917 152.874 59.3289C152.936 59.1265 153.027 58.9521 153.216 58.8404C153.216 58.3868 153.223 57.9262 153.229 57.4656C153.041 57.3469 152.943 57.1655 152.895 56.9631C152.692 56.9073 152.539 56.7817 152.42 56.6072H152.413C151.862 56.5374 151.317 56.5304 150.78 56.684C150.724 56.8235 150.619 56.8933 150.473 56.9212C150.445 57.0678 150.368 57.1725 150.229 57.2213C150.04 57.8424 150.033 58.4635 150.25 59.0777C150.389 59.1265 150.466 59.2312 150.494 59.3708L150.487 59.3847Z" fill="#32384B">
 <animate
         attributeName="fill-opacity"
         values="0;1;0"
         dur="2s"
         repeatCount="indefinite"
         />
</path>
<path d="M169.218 77.9304C169.371 77.9653 169.462 78.063 169.49 78.2165C169.657 78.2375 169.783 78.3003 169.853 78.4608C169.936 78.4189 170.006 78.4329 170.055 78.5166C170.418 78.4957 170.781 78.4677 171.137 78.4468C171.2 78.3072 171.311 78.2444 171.465 78.2374L171.486 78.2235C171.514 78.0769 171.604 77.9862 171.744 77.9583L171.758 77.9443C171.765 77.7769 171.828 77.6443 171.988 77.5745C171.939 77.4907 171.96 77.4279 172.037 77.3721C172.037 77.0929 172.03 76.8138 172.023 76.5346L171.946 76.4718L171.974 76.3811C171.807 76.3043 171.744 76.1648 171.723 75.9903C171.577 75.9554 171.479 75.8647 171.437 75.7181C171.214 75.6902 171.011 75.6134 170.865 75.432C170.613 75.432 170.355 75.432 170.104 75.432C169.964 75.6274 169.755 75.6902 169.525 75.7321C169.483 75.8786 169.392 75.9693 169.246 76.0042C169.211 76.2276 169.127 76.423 168.946 76.5625C168.987 76.6533 168.98 76.737 168.911 76.8138C168.911 76.9045 168.911 77.0022 168.911 77.0929C168.932 77.2395 168.952 77.386 168.973 77.5326C169.141 77.6163 169.197 77.7629 169.211 77.9374L169.218 77.9304Z" fill="#32384B">
 <animate
         attributeName="fill-opacity"
         values="0;1;0"
         dur="2.3s"
         repeatCount="indefinite"
         />
</path>
<path d="M169.218 21.4001C169.371 21.435 169.462 21.5327 169.49 21.6862C169.657 21.7072 169.783 21.77 169.853 21.9305C169.936 21.8886 170.006 21.9026 170.055 21.9863C170.418 21.9654 170.781 21.9375 171.137 21.9165C171.2 21.777 171.311 21.7142 171.465 21.7072L171.486 21.6932C171.514 21.5467 171.604 21.4559 171.744 21.428L171.758 21.4141C171.765 21.2466 171.828 21.114 171.988 21.0442C171.939 20.9604 171.96 20.8976 172.037 20.8418C172.037 20.5627 172.03 20.2835 172.023 20.0044L171.946 19.9415L171.974 19.8508C171.807 19.7741 171.744 19.6345 171.723 19.46C171.577 19.4251 171.479 19.3344 171.437 19.1878C171.214 19.1599 171.011 19.0832 170.865 18.9017C170.613 18.9017 170.355 18.9017 170.104 18.9017C169.964 19.0971 169.755 19.1599 169.525 19.2018C169.483 19.3483 169.392 19.4391 169.246 19.474C169.211 19.6973 169.127 19.8927 168.946 20.0323C168.987 20.123 168.98 20.2067 168.911 20.2835C168.911 20.3742 168.911 20.4719 168.911 20.5627C168.932 20.7092 168.952 20.8558 168.973 21.0023C169.141 21.0861 169.197 21.2326 169.211 21.4071L169.218 21.4001Z" fill="#32384B">
 <animate
         attributeName="fill-opacity"
         values="0;1;0"
         dur="2.1s"
         repeatCount="indefinite"
         />
</path>
<path d="M162.462 85.8737C162.301 85.797 162.238 85.6644 162.224 85.4969C162.071 85.462 161.973 85.3713 161.938 85.2177C161.708 85.2038 161.513 85.1131 161.359 84.9456C161.129 84.9595 160.905 84.9665 160.675 84.9805C160.584 85.148 160.424 85.1968 160.249 85.2038H160.242C160.208 85.3573 160.117 85.4411 159.963 85.469L159.949 85.4899C159.942 85.6365 159.88 85.7481 159.74 85.8109C159.726 86.1738 159.712 86.5367 159.698 86.8996C159.866 87.0322 159.977 87.2067 160.026 87.4161C160.187 87.4579 160.312 87.5417 160.382 87.7022L160.48 87.6882L160.543 87.772C160.919 87.772 161.289 87.765 161.666 87.758H161.68C161.806 87.5905 161.959 87.4579 162.162 87.4091C162.211 87.2067 162.294 87.0183 162.483 86.8857C162.497 86.6135 162.504 86.3413 162.518 86.0622C162.441 86.0133 162.42 85.9505 162.476 85.8737H162.462Z" fill="#32384B">
 <animate
         attributeName="fill-opacity"
         values="0;1;0"
         dur="2.5s"
         repeatCount="indefinite"
         />
</path>
<path d="M162.462 29.3435C162.301 29.2667 162.238 29.1341 162.224 28.9666C162.071 28.9317 161.973 28.841 161.938 28.6875C161.708 28.6735 161.513 28.5828 161.359 28.4153C161.129 28.4293 160.905 28.4362 160.675 28.4502C160.584 28.6177 160.424 28.6665 160.249 28.6735H160.242C160.208 28.827 160.117 28.9108 159.963 28.9387L159.949 28.9596C159.942 29.1062 159.88 29.2179 159.74 29.2807C159.726 29.6436 159.712 30.0065 159.698 30.3694C159.866 30.5019 159.977 30.6764 160.026 30.8858C160.187 30.9277 160.312 31.0114 160.382 31.1719L160.48 31.158L160.543 31.2417C160.919 31.2417 161.289 31.2347 161.666 31.2277H161.68C161.806 31.0603 161.959 30.9277 162.162 30.8788C162.211 30.6764 162.294 30.488 162.483 30.3554C162.497 30.0832 162.504 29.8111 162.518 29.5319C162.441 29.4831 162.42 29.4202 162.476 29.3435H162.462Z" fill="#32384B">
 <animate
         attributeName="fill-opacity"
         values="0;1;0"
         dur="1.5s"
         repeatCount="indefinite"
         />
</path>
<path d="M171.757 85.7552C171.59 85.6436 171.45 85.504 171.387 85.3086C171.185 85.2249 170.982 85.1411 170.78 85.0644C170.696 85.0504 170.613 85.0295 170.55 84.9666L170.494 85.0085L170.438 84.9666C169.998 85.176 169.566 85.3993 169.231 85.7832C169.175 86.2368 169.175 86.6904 169.287 87.137C169.426 87.1859 169.503 87.2906 169.531 87.4371C169.698 87.465 169.824 87.5418 169.894 87.7023C169.97 87.6535 170.033 87.6744 170.068 87.7582C170.347 87.7582 170.626 87.7582 170.906 87.7651C170.954 87.6814 171.017 87.6674 171.101 87.7093C171.171 87.5488 171.296 87.472 171.464 87.4511C171.492 87.3045 171.569 87.1999 171.715 87.151C171.827 86.6974 171.82 86.2368 171.771 85.7762V85.7552H171.757Z" fill="#32384B">
 <animate
         attributeName="fill-opacity"
         values="0;1;0"
         dur="2.6s"
         repeatCount="indefinite"
         />
</path>
<path d="M171.757 29.225C171.59 29.1133 171.45 28.9737 171.387 28.7783C171.185 28.6946 170.982 28.6108 170.78 28.5341C170.696 28.5201 170.613 28.4992 170.55 28.4364L170.494 28.4782L170.438 28.4364C169.998 28.6457 169.566 28.8691 169.231 29.2529C169.175 29.7065 169.175 30.1601 169.287 30.6068C169.426 30.6556 169.503 30.7603 169.531 30.9069C169.698 30.9348 169.824 31.0115 169.894 31.1721C169.97 31.1232 170.033 31.1441 170.068 31.2279C170.347 31.2279 170.626 31.2279 170.906 31.2349C170.954 31.1511 171.017 31.1372 171.101 31.179C171.171 31.0185 171.296 30.9418 171.464 30.9208C171.492 30.7743 171.569 30.6696 171.715 30.6207C171.827 30.1671 171.82 29.7065 171.771 29.2459V29.225H171.757Z" fill="#32384B">
 <animate
         attributeName="fill-opacity"
         values="0;1;0"
         dur="2.8s"
         repeatCount="indefinite"
         />
</path>
<path d="M180.955 95.0664C180.816 95.0245 180.725 94.9338 180.683 94.7942C180.153 94.6128 179.629 94.6198 179.106 94.8361C179.057 94.9966 178.959 95.1083 178.799 95.1781L178.813 95.2688L178.736 95.3176C178.75 95.6875 178.764 96.0574 178.771 96.4203C178.952 96.6017 179.141 96.7902 179.322 96.9716C179.692 96.9856 180.062 96.9925 180.432 96.9995H180.446C180.481 96.9367 180.53 96.9088 180.592 96.8809C180.697 96.8041 180.802 96.7204 180.907 96.6436C181.123 96.1202 181.137 95.5968 180.955 95.0594V95.0664Z" fill="#32384B">
 <animate
         attributeName="fill-opacity"
         values="0;1;0"
         dur="1.8s"
         repeatCount="indefinite"
         />
</path>
<path d="M180.955 38.5361C180.816 38.4942 180.725 38.4035 180.683 38.2639C180.153 38.0825 179.629 38.0895 179.106 38.3058C179.057 38.4663 178.959 38.578 178.799 38.6478L178.813 38.7385L178.736 38.7874C178.75 39.1572 178.764 39.5271 178.771 39.89C178.952 40.0714 179.141 40.2599 179.322 40.4413C179.692 40.4553 180.062 40.4623 180.432 40.4692H180.446C180.481 40.4064 180.53 40.3785 180.592 40.3506C180.697 40.2738 180.802 40.1901 180.907 40.1133C181.123 39.5899 181.137 39.0665 180.955 38.5291V38.5361Z" fill="#32384B">
 <animate
         attributeName="fill-opacity"
         values="0;1;0"
         dur="2s"
         repeatCount="indefinite"
         />
</path>
<path d="M178.758 86.0693C178.758 86.2577 178.744 86.4391 178.737 86.6206C178.807 86.6834 178.821 86.7532 178.779 86.8369C178.932 86.9067 178.995 87.0323 179.016 87.1928L179.03 87.2068C179.176 87.2347 179.281 87.3115 179.323 87.458C179.693 87.472 180.063 87.4859 180.433 87.4929L180.481 87.4162H180.572C180.719 87.2626 180.858 87.0951 181.005 86.9276V86.9137C180.991 86.5508 180.977 86.1809 180.956 85.818C180.816 85.7622 180.74 85.6575 180.705 85.5109C180.537 85.49 180.398 85.4272 180.328 85.2597C180.091 85.2527 179.853 85.2388 179.616 85.2318C179.567 85.2806 179.511 85.3086 179.449 85.3295C179.323 85.3993 179.197 85.4761 179.072 85.5458C179.002 85.6645 178.932 85.7761 178.862 85.8948C178.841 85.9576 178.807 86.0204 178.758 86.0693Z" fill="#32384B">
 <animate
         attributeName="fill-opacity"
         values="0;1;0"
         dur="2.3s"
         repeatCount="indefinite"
         />
</path>
<path d="M178.758 29.539C178.758 29.7274 178.744 29.9089 178.737 30.0903C178.807 30.1531 178.821 30.2229 178.779 30.3066C178.932 30.3764 178.995 30.502 179.016 30.6626L179.03 30.6765C179.176 30.7044 179.281 30.7812 179.323 30.9278C179.693 30.9417 180.063 30.9557 180.433 30.9626L180.481 30.8859H180.572C180.719 30.7323 180.858 30.5649 181.005 30.3974V30.3834C180.991 30.0205 180.977 29.6506 180.956 29.2877C180.816 29.2319 180.74 29.1272 180.705 28.9807C180.537 28.9597 180.398 28.8969 180.328 28.7294C180.091 28.7225 179.853 28.7085 179.616 28.7015C179.567 28.7504 179.511 28.7783 179.449 28.7992C179.323 28.869 179.197 28.9458 179.072 29.0156C179.002 29.1342 178.932 29.2459 178.862 29.3645C178.841 29.4273 178.807 29.4901 178.758 29.539Z" fill="#32384B">
 <animate
         attributeName="fill-opacity"
         values="0;1;0"
         dur="2.2s"
         repeatCount="indefinite"
         />
</path>
<path d="M122.467 30.6065C122.599 30.6414 122.697 30.7251 122.739 30.8577C123.171 30.9903 123.604 30.9903 124.044 30.8717C124.093 30.7321 124.183 30.6484 124.33 30.6135C124.386 30.3762 124.421 30.1319 124.616 29.9505H124.623C124.449 29.455 124.197 29.0083 123.744 28.7152C123.513 28.7152 123.283 28.7152 123.06 28.7152C122.983 28.8758 122.85 28.9316 122.683 28.9455L122.662 28.9595C122.634 29.106 122.543 29.1968 122.404 29.2386C122.32 29.7062 122.32 30.1598 122.474 30.6065H122.467Z" fill="#32384B">
 <animate
         attributeName="fill-opacity"
         values="0;1;0"
         dur="3s"
         repeatCount="indefinite"
         />
</path>
<path d="M133.911 57.7447L133.834 57.6889L133.855 57.5982C133.695 57.5284 133.604 57.4098 133.555 57.2562C133.116 57.0887 132.662 57.0818 132.208 57.1655H132.194C132.02 57.3888 131.852 57.6052 131.685 57.8215C131.685 58.0448 131.685 58.2682 131.685 58.4915C131.845 58.5682 131.901 58.7078 131.915 58.8753V58.8893C132.069 58.9172 132.173 59.0009 132.215 59.1475C132.585 59.1614 132.955 59.1754 133.325 59.1824L133.374 59.0986H133.471C133.611 58.9311 133.751 58.7567 133.89 58.5892C133.89 58.31 133.897 58.0309 133.904 57.7517L133.911 57.7447Z" fill="#32384B">
 <animate
         attributeName="fill-opacity"
         values="0;1;0"
         dur="3.2s"
         repeatCount="indefinite"
         />
</path>
<path d="M47.1514 21.107C47.298 21.1489 47.3817 21.2466 47.4236 21.3932C47.6609 21.428 47.8912 21.4699 48.0656 21.6514H48.1634C48.3448 21.4769 48.5751 21.428 48.8124 21.4001C48.8542 21.2536 48.945 21.1629 49.0915 21.121C49.2032 20.6604 49.1962 20.2068 49.0566 19.7531C48.9171 19.7113 48.8194 19.6275 48.7775 19.4879C48.3378 19.3763 47.8982 19.3763 47.4585 19.5019C47.4166 19.6345 47.3259 19.7252 47.1863 19.7671C47.0537 20.2137 47.0537 20.6604 47.1514 21.107Z" fill="#32384B">
 <animate
         attributeName="fill-opacity"
         values="0;1;0"
         dur="1.5s"
         repeatCount="indefinite"
         />
</path>
<path d="M132.195 49.6267L132.216 49.6407C132.676 49.7663 133.13 49.7314 133.569 49.543C133.646 49.4174 133.73 49.2987 133.807 49.1731C133.828 49.1243 133.856 49.0754 133.897 49.0335C133.89 48.7963 133.877 48.552 133.87 48.3147C133.709 48.2449 133.639 48.1123 133.604 47.9518C133.444 47.9169 133.311 47.8471 133.241 47.6866L133.137 47.7145L133.06 47.6448C132.879 47.6448 132.69 47.6587 132.509 47.6587C132.474 47.7006 132.425 47.7285 132.369 47.7494C132.25 47.8262 132.125 47.903 132.006 47.9797C131.818 48.4194 131.776 48.873 131.915 49.3406L131.929 49.3615C132.034 49.4313 132.125 49.5151 132.195 49.6267Z" fill="#32384B">
 <animate
         attributeName="fill-opacity"
         values="0;1;0"
         dur="1.8s"
         repeatCount="indefinite"
         />
</path>
<path d="M143.187 76.5347C143.103 76.5137 143.075 76.4649 143.11 76.3811C142.928 76.2485 142.747 76.109 142.572 75.9764L142.44 75.9973L142.314 75.9415C142.223 75.9415 142.133 75.9415 142.035 75.9554L141.944 76.0182L141.833 75.9973C141.77 76.1508 141.644 76.2276 141.484 76.2625C141.456 76.423 141.386 76.5626 141.225 76.6324C141.225 76.8557 141.218 77.086 141.212 77.3093C141.393 77.5187 141.574 77.7211 141.749 77.9304C142.105 77.9095 142.461 77.8885 142.824 77.8676C142.865 77.735 142.963 77.6513 143.096 77.6094C143.124 77.2535 143.159 76.8906 143.187 76.5347Z" fill="#32384B">
 <animate
         attributeName="fill-opacity"
         values="0;1;0"
         dur="2s"
         repeatCount="indefinite"
         />
</path>
<path d="M67.9072 20.0044C67.8235 19.9835 67.7956 19.9346 67.8304 19.8509C67.649 19.7183 67.4676 19.5787 67.2931 19.4461L67.1605 19.467L67.0349 19.4112C66.9442 19.4112 66.8534 19.4112 66.7557 19.4252L66.665 19.488L66.5533 19.467C66.4905 19.6206 66.3649 19.6973 66.2044 19.7322C66.1765 19.8927 66.1067 20.0323 65.9462 20.1021C65.9462 20.3254 65.9392 20.5557 65.9322 20.779C66.1137 20.9884 66.2951 21.1908 66.4696 21.4001C66.8255 21.3792 67.1814 21.3583 67.5443 21.3373C67.5862 21.2047 67.6839 21.121 67.8165 21.0791C67.8444 20.7232 67.8793 20.3603 67.9072 20.0044Z" fill="#32384B">
 <animate
         attributeName="fill-opacity"
         values="0;1;0"
         dur="2.4s"
         repeatCount="indefinite"
         />
</path>
<path d="M179.078 77.6163C179.211 77.6582 179.309 77.7419 179.357 77.8745C179.713 77.8885 180.062 77.9024 180.418 77.9094C180.474 77.7698 180.579 77.6931 180.718 77.6582C180.739 77.4837 180.788 77.3302 180.949 77.2395C180.956 77.1138 180.963 76.9812 180.977 76.8556C180.935 76.8068 180.914 76.7509 180.893 76.6951C180.823 76.5555 180.753 76.4229 180.683 76.2834C180.523 76.2485 180.39 76.1717 180.328 76.0112C180.09 76.0042 179.853 75.9903 179.609 75.9833C179.441 76.0949 179.281 76.2066 179.113 76.3183C178.946 76.744 178.939 77.1836 179.071 77.6233L179.078 77.6163Z" fill="#32384B">
 <animate
         attributeName="fill-opacity"
         values="0;1;0"
         dur="2.6s"
         repeatCount="indefinite"
         />
</path>
<path d="M179.078 21.086C179.211 21.1279 179.309 21.2117 179.357 21.3443C179.713 21.3582 180.062 21.3722 180.418 21.3792C180.474 21.2396 180.579 21.1628 180.718 21.1279C180.739 20.9534 180.788 20.7999 180.949 20.7092C180.956 20.5836 180.963 20.451 180.977 20.3254C180.935 20.2765 180.914 20.2207 180.893 20.1648C180.823 20.0253 180.753 19.8927 180.683 19.7531C180.523 19.7182 180.39 19.6414 180.328 19.4809C180.09 19.4739 179.853 19.46 179.609 19.453C179.441 19.5647 179.281 19.6763 179.113 19.788C178.946 20.2137 178.939 20.6534 179.071 21.093L179.078 21.086Z" fill="#32384B">
 <animate
         attributeName="fill-opacity"
         values="0;1;0"
         dur="2.8s"
         repeatCount="indefinite"
         />
</path>
<path d="M124.344 1.982C124.344 1.74472 124.344 1.50745 124.344 1.27017C124.19 1.20736 124.127 1.08174 124.099 0.928205H124.093C123.939 0.893312 123.813 0.823523 123.751 0.676969C123.513 0.676969 123.269 0.676969 123.032 0.676969C122.969 0.830502 122.836 0.900292 122.683 0.935186C122.655 1.0957 122.592 1.23527 122.432 1.30506C122.432 1.51442 122.432 1.73077 122.432 1.94013C122.592 2.0169 122.662 2.15647 122.69 2.31698C122.85 2.35188 122.99 2.41468 123.074 2.5752C123.283 2.5752 123.485 2.5752 123.688 2.5752C123.765 2.41468 123.904 2.35187 124.065 2.32396C124.099 2.16345 124.169 2.03783 124.323 1.97502L124.344 1.982Z" fill="#32384B">
 <animate
         attributeName="fill-opacity"
         values="0;1;0"
         dur="2s"
         repeatCount="indefinite"
         />
</path>
<path d="M141.205 67.8027C141.386 67.9353 141.47 68.1237 141.533 68.3261C141.965 68.5075 142.412 68.5285 142.866 68.3959C142.9 68.2493 142.984 68.1516 143.131 68.1028C143.2 67.7399 143.194 67.3839 143.124 67.0211C142.984 66.9722 142.9 66.8745 142.859 66.7279C142.412 66.6163 141.972 66.6163 141.54 66.7977C141.477 67.0001 141.386 67.1885 141.198 67.3211C141.198 67.4817 141.198 67.6422 141.198 67.7957L141.205 67.8027Z" fill="#32384B">
 <animate
         attributeName="fill-opacity"
         values="0;1;0"
         dur="2.9s"
         repeatCount="indefinite"
         />
</path>
<path d="M161.952 67.2793C161.875 67.2444 161.854 67.1955 161.896 67.1188C161.778 66.9931 161.652 66.8745 161.533 66.7489L161.436 66.7628L161.373 66.6931C161.184 66.6931 161.003 66.6931 160.815 66.6931L160.738 66.7628L160.633 66.7489C160.515 66.8605 160.403 66.9722 160.284 67.0839C160.312 67.1676 160.291 67.2304 160.214 67.2793C160.249 67.5445 160.277 67.8027 160.312 68.0679C160.459 68.1237 160.556 68.2214 160.612 68.368C160.696 68.34 160.766 68.368 160.815 68.4377C160.996 68.4377 161.184 68.4377 161.366 68.4377C161.408 68.361 161.471 68.34 161.547 68.3749C161.659 68.2563 161.778 68.1377 161.889 68.019C161.847 67.9423 161.868 67.8864 161.945 67.8445C161.945 67.6561 161.945 67.4747 161.945 67.2862L161.952 67.2793Z" fill="#32384B">
 <animate
         attributeName="fill-opacity"
         values="0;1;0"
         dur="2.1s"
         repeatCount="indefinite"
         />
</path>
<path d="M160.284 77.351C160.347 77.4697 160.445 77.5534 160.528 77.6511C160.905 77.7628 161.275 77.7558 161.645 77.6441C161.68 77.4906 161.757 77.372 161.91 77.3091C161.91 77.0858 161.903 76.8625 161.896 76.6392C161.743 76.5764 161.659 76.4577 161.61 76.3042C161.261 76.1995 160.912 76.1925 160.563 76.2972C160.521 76.4438 160.431 76.5554 160.277 76.6113C160.312 76.695 160.298 76.7578 160.228 76.8137C160.249 76.9951 160.263 77.1765 160.277 77.351H160.284Z" fill="#32384B">
 <animate
         attributeName="fill-opacity"
         values="0;1;0"
         dur="3s"
         repeatCount="indefinite"
         />
</path>
<path d="M160.284 20.8207C160.347 20.9394 160.445 21.0231 160.528 21.1208C160.905 21.2325 161.275 21.2255 161.645 21.1139C161.68 20.9603 161.757 20.8417 161.91 20.7789C161.91 20.5556 161.903 20.3322 161.896 20.1089C161.743 20.0461 161.659 19.9275 161.61 19.7739C161.261 19.6692 160.912 19.6623 160.563 19.767C160.521 19.9135 160.431 20.0252 160.277 20.081C160.312 20.1647 160.298 20.2276 160.228 20.2834C160.249 20.4648 160.263 20.6463 160.277 20.8207H160.284Z" fill="#32384B">
 <animate
         attributeName="fill-opacity"
         values="0;1;0"
         dur="1.9s"
         repeatCount="indefinite"
         />
</path>
<path d="M179.071 57.8562C179.071 58.0586 179.071 58.261 179.071 58.4564C179.225 58.5262 179.308 58.6588 179.35 58.8193C179.706 58.931 180.062 58.938 180.425 58.8612C180.523 58.7705 180.614 58.6867 180.683 58.5751C180.683 58.3029 180.69 58.0307 180.697 57.7585C180.62 57.6539 180.516 57.5701 180.446 57.4654H180.432C180.062 57.3747 179.692 57.3887 179.329 57.5003C179.295 57.6608 179.218 57.7865 179.064 57.8562H179.071Z" fill="#32384B">
 <animate
         attributeName="fill-opacity"
         values="0;1;0"
         dur="2s"
         repeatCount="indefinite"
         />
</path>
<path d="M171.193 48.2102C171.088 48.1265 171.004 48.0288 170.9 47.945C170.627 47.945 170.355 47.952 170.083 47.959C169.971 48.0288 169.881 48.1195 169.79 48.2172C169.706 48.5801 169.72 48.943 169.839 49.2919C169.951 49.3617 170.069 49.4315 170.188 49.5013C170.251 49.5222 170.313 49.5501 170.362 49.606C170.502 49.592 170.648 49.585 170.788 49.5711C170.865 49.4106 170.997 49.3408 171.158 49.2989C171.269 48.936 171.283 48.5731 171.207 48.2032L171.193 48.2102Z" fill="#32384B">
 <animate
         attributeName="fill-opacity"
         values="0;1;0"
         dur="2.3s"
         repeatCount="indefinite"
         />
</path>
<path d="M169.845 68.0748C169.956 68.1516 170.075 68.2214 170.187 68.2982C170.249 68.3191 170.305 68.347 170.347 68.4028C170.487 68.3889 170.633 68.3749 170.773 68.3679C170.891 68.2772 171.01 68.1865 171.136 68.1027C171.247 67.7538 171.247 67.3979 171.122 67.049C170.94 66.9443 170.759 66.8466 170.577 66.7419L170.48 66.7768L170.382 66.7419C170.208 66.8466 170.026 66.9512 169.852 67.0629C169.74 67.4049 169.733 67.7398 169.838 68.0818L169.845 68.0748Z" fill="#32384B">
 <animate
         attributeName="fill-opacity"
         values="0;1;0"
         dur="2.8s"
         repeatCount="indefinite"
         />
</path>
<path d="M141.882 58.8333C141.951 58.7914 142 58.8054 142.035 58.8821C142.126 58.8821 142.217 58.8961 142.314 58.9031C142.391 58.8472 142.468 58.8333 142.559 58.8542C142.677 58.7775 142.782 58.6867 142.873 58.5821C142.873 58.3029 142.887 58.0238 142.894 57.7446C142.789 57.6609 142.698 57.5632 142.6 57.4724C142.419 57.4585 142.231 57.4445 142.049 57.4306L141.958 57.5003H141.847C141.735 57.626 141.63 57.7516 141.526 57.8842C141.512 58.0168 141.505 58.1563 141.491 58.2889C141.623 58.4704 141.756 58.6518 141.889 58.8333H141.882Z" fill="#32384B">
 <animate
         attributeName="fill-opacity"
         values="0;1;0"
         dur="2.1s"
         repeatCount="indefinite"
         />
</path>
<path d="M132.216 77.386C132.32 77.4628 132.418 77.5535 132.509 77.6442C132.69 77.6512 132.879 77.6651 133.06 77.6721C133.088 77.5884 133.144 77.5744 133.221 77.6163C133.57 77.1068 133.486 76.6602 133.025 76.2624C132.879 76.2624 132.725 76.2694 132.579 76.2764C132.439 76.3252 132.327 76.4229 132.244 76.5416C132.23 76.8207 132.216 77.0999 132.202 77.372V77.386H132.216Z" fill="#32384B">
 <animate
         attributeName="fill-opacity"
         values="0;1;0"
         dur="1.5s"
         repeatCount="indefinite"
         />
</path>
<path d="M56.9364 20.8557C57.0411 20.9325 57.1388 21.0232 57.2295 21.1139C57.411 21.1209 57.5994 21.1349 57.7809 21.1418C57.8088 21.0581 57.8646 21.0441 57.9414 21.086C58.2903 20.5766 58.2066 20.1299 57.746 19.7321C57.5994 19.7321 57.4459 19.7391 57.2993 19.7461C57.1598 19.7949 57.0481 19.8926 56.9643 20.0113C56.9504 20.2904 56.9364 20.5696 56.9225 20.8418V20.8557H56.9364Z" fill="#32384B">
 <animate
         attributeName="fill-opacity"
         values="0;1;0"
         dur="1.6s"
         repeatCount="indefinite"
         />
</path>
<path d="M34.0136 28.1235C34.1183 28.2003 34.216 28.291 34.3067 28.3818C34.4881 28.3887 34.6766 28.4027 34.858 28.4097C34.8859 28.3259 34.9418 28.312 35.0185 28.3538C35.3675 27.8444 35.2837 27.3977 34.8231 27C34.6766 27 34.523 27.0069 34.3765 27.0139C34.2369 27.0628 34.1252 27.1605 34.0415 27.2791C34.0275 27.5583 34.0136 27.8374 33.9996 28.1096V28.1235H34.0136Z" fill="#32384B">
 <animate
         attributeName="fill-opacity"
         values="0;1;0"
         dur="1.9s"
         repeatCount="indefinite"
         />
</path>
<path d="M132.216 39.6317C132.313 39.7154 132.404 39.8131 132.495 39.9108C132.683 39.9178 132.865 39.9317 133.053 39.9387C133.081 39.855 133.137 39.834 133.22 39.8689C133.423 39.534 133.43 39.178 133.304 38.8151C132.962 38.6965 132.627 38.7105 132.299 38.857C132.271 39.1152 132.243 39.3665 132.216 39.6247V39.6317Z" fill="#32384B">
 <animate
         attributeName="fill-opacity"
         values="0;1;0"
         dur="2s"
         repeatCount="indefinite"
         />
</path>
<path d="M133.346 29.5249C133.241 29.4341 133.143 29.3434 133.032 29.2597C132.878 29.2597 132.725 29.2666 132.571 29.2736C132.418 29.3295 132.306 29.4411 132.243 29.5877C132.243 29.7552 132.229 29.9157 132.222 30.0832C132.313 30.1669 132.397 30.2716 132.459 30.3833L132.487 30.4042C132.759 30.46 133.018 30.4042 133.269 30.3135C133.29 30.0553 133.318 29.7901 133.339 29.5318L133.346 29.5249Z" fill="#32384B">
 <animate
         attributeName="fill-opacity"
         values="0;1;0"
         dur="2.5s"
         repeatCount="indefinite"
         />
</path>
<path d="M58.0664 29.5249C57.9617 29.4341 57.864 29.3434 57.7524 29.2597C57.5988 29.2597 57.4453 29.2666 57.2918 29.2736C57.1382 29.3295 57.0266 29.4411 56.9637 29.5877C56.9637 29.7552 56.9498 29.9157 56.9428 30.0832C57.0335 30.1669 57.1173 30.2716 57.1801 30.3833L57.208 30.4042C57.4802 30.46 57.7384 30.4042 57.9896 30.3135C58.0106 30.0553 58.0385 29.7901 58.0594 29.5318L58.0664 29.5249Z" fill="#32384B">
 <animate
         attributeName="fill-opacity"
         values="0;1;0"
         dur="2s"
         repeatCount="indefinite"
         />
</path>
<path d="M189.7 86.9064C189.784 86.7947 189.881 86.697 189.958 86.5854C189.951 86.4458 189.944 86.3062 189.937 86.1597C189.818 86.041 189.707 85.9294 189.588 85.8107C189.449 85.8038 189.302 85.7968 189.162 85.7898C189.051 85.8666 188.953 85.9643 188.841 86.041V86.055C188.765 86.3272 188.82 86.5854 188.904 86.8436C189.162 86.9273 189.421 86.9762 189.693 86.9134H189.7V86.9064Z" fill="#32384B">
 <animate
         attributeName="fill-opacity"
         values="0;1;0"
         dur="2.3s"
         repeatCount="indefinite"
         />
</path>
<path d="M189.7 30.3761C189.784 30.2645 189.881 30.1668 189.958 30.0551C189.951 29.9155 189.944 29.776 189.937 29.6294C189.818 29.5108 189.707 29.3991 189.588 29.2805C189.449 29.2735 189.302 29.2665 189.162 29.2595C189.051 29.3363 188.953 29.434 188.841 29.5108V29.5247C188.765 29.7969 188.82 30.0551 188.904 30.3133C189.162 30.3971 189.421 30.4459 189.693 30.3831H189.7V30.3761Z" fill="#32384B">
 <animate
         attributeName="fill-opacity"
         values="0;1;0"
         dur="2.5s"
         repeatCount="indefinite"
         />
</path>
<path d="M132.78 68.1584C132.871 68.1444 132.962 68.1305 133.06 68.1235C133.15 68.0258 133.248 67.9421 133.346 67.8583C133.346 67.6629 133.346 67.4745 133.339 67.2861C133.241 67.1884 133.143 67.1046 133.039 67.0139C132.878 67.0139 132.711 67.0209 132.55 67.0278C132.404 67.0976 132.299 67.2093 132.236 67.3628C132.236 67.5094 132.236 67.649 132.236 67.7955C132.299 67.9351 132.404 68.0467 132.536 68.1235C132.627 68.1026 132.704 68.1235 132.773 68.1724L132.78 68.1584Z" fill="#32384B">
 <animate
         attributeName="fill-opacity"
         values="0;1;0"
         dur="2.1s"
         repeatCount="indefinite"
         />
</path>
<path d="M189.616 67.0209C189.455 67.0139 189.295 67.0069 189.127 67C189.036 67.0977 188.939 67.1814 188.834 67.2582V67.2721C188.82 67.4606 188.82 67.656 188.82 67.8444L188.834 67.8723C188.939 67.9421 189.036 68.0189 189.113 68.1235C189.288 68.1166 189.455 68.1096 189.63 68.1026C189.727 67.977 189.832 67.8444 189.93 67.7188C189.909 67.6839 189.874 67.656 189.874 67.6211C189.881 67.5513 189.909 67.4815 189.93 67.4117C189.825 67.2791 189.72 67.1465 189.616 67.0209Z" fill="#32384B">
 <animate
         attributeName="fill-opacity"
         values="0;1;0"
         dur="2.4s"
         repeatCount="indefinite"
         />
</path>
<path d="M66.9295 29.2805H66.8667C66.7411 29.3713 66.6224 29.455 66.4968 29.5457C66.441 29.797 66.4829 30.0342 66.5666 30.2715C66.8109 30.2925 67.0551 30.3204 67.2994 30.3413C67.3832 30.2157 67.4739 30.0901 67.5576 29.9645V29.9296C67.4111 29.6574 67.2017 29.441 66.9365 29.2805H66.9295Z" fill="#32384B">
 <animate
         attributeName="fill-opacity"
         values="0;1;0"
         dur="2.8s"
         repeatCount="indefinite"
         />
</path>
<path d="M171.142 58.1772V58.1562C170.933 57.9399 170.717 57.7235 170.507 57.5072H170.459C170.033 57.7584 169.893 58.1213 170.068 58.5889C170.542 58.7564 170.898 58.6168 171.149 58.1841L171.142 58.1772Z" fill="#32384B">
 <animate
         attributeName="fill-opacity"
         values="0;1;0"
         dur="2.6s"
         repeatCount="indefinite"
         />
</path>
<path d="M170.843 38.85C170.676 38.822 170.508 38.7941 170.348 38.7662L170.278 38.836L170.18 38.822C170.04 39.0803 169.985 39.3454 170.054 39.6316V39.6455C170.18 39.7293 170.285 39.827 170.417 39.8828C170.466 39.834 170.515 39.8409 170.571 39.8828C170.976 39.6176 171.059 39.2687 170.85 38.85H170.843Z" fill="#32384B">
 <animate
         attributeName="fill-opacity"
         values="0;1;0"
         dur="2.9s"
         repeatCount="indefinite"
         />
</path>
<path d="M87.0701 30.6484V30.6344H87.0771C87.0771 30.6344 87.0771 30.6414 87.0701 30.6484Z" fill="#32384B">
 <animate
         attributeName="fill-opacity"
         values="0;1;0"
         dur="2s"
         repeatCount="indefinite"
         />
</path>
<path d="M11.7899 30.6484V30.6344H11.7969C11.7969 30.6344 11.7969 30.6414 11.7899 30.6484Z" fill="#32384B">
 <animate
         attributeName="fill-opacity"
         values="0;1;0"
         dur="2.2s"
         repeatCount="indefinite"
         />
</path>
<path d="M11.4828 28.7363C11.2734 28.6874 11.092 28.5897 10.9594 28.4153C10.5965 28.4222 10.2336 28.4292 9.87067 28.4432C9.59152 28.7153 9.31236 28.9945 9.03321 29.2667C9.01926 29.6365 9.0053 29.9994 8.99134 30.3693L9.06812 30.4391L9.04718 30.5368C9.21467 30.6066 9.28444 30.7392 9.31236 30.9067C9.45891 30.9416 9.55663 31.0183 9.60548 31.1649C10.1428 31.3254 10.6872 31.3254 11.2385 31.1998C11.2874 31.0532 11.392 30.9765 11.5386 30.9555L11.5526 30.9416C11.5735 30.795 11.6433 30.6903 11.7898 30.6345C11.8875 30.0971 11.9015 29.5598 11.727 29.0294C11.5875 28.9805 11.5107 28.8759 11.4828 28.7363Z" fill="#32384B">
 <animate
         attributeName="fill-opacity"
         values="0;1;0"
         dur="2.5s"
         repeatCount="indefinite"
         />
</path>
<path d="M84.5858 10.2046C84.551 10.4349 84.5021 10.6513 84.3067 10.8118C84.3067 10.9583 84.3067 11.1049 84.3067 11.2584C84.4951 11.4189 84.5509 11.6353 84.5789 11.8656C84.7254 11.9074 84.8161 12.0051 84.851 12.1517C85.0255 12.1726 85.1721 12.2285 85.2558 12.396C85.5629 12.396 85.8699 12.4029 86.177 12.4099C86.4771 12.1238 86.7772 11.8307 87.0773 11.5445C87.0354 11.4608 87.0494 11.384 87.1191 11.3142C87.1191 11.1258 87.1191 10.9444 87.1191 10.7559C87.0494 10.6931 87.0354 10.6233 87.0773 10.5326C86.9028 10.3233 86.7353 10.1069 86.5608 9.89756H86.5469C86.3794 9.87662 86.2328 9.82777 86.1491 9.66726C85.9118 9.66028 85.6745 9.64632 85.4373 9.63934C85.2907 9.81381 85.0883 9.89755 84.865 9.92547C84.8301 10.072 84.7394 10.1697 84.5928 10.2116L84.5858 10.2046Z" fill="#32384B">
 <animate
         attributeName="fill-opacity"
         values="0;1;0"
         dur="2.4s"
         repeatCount="indefinite"
         />
</path>
<path d="M66.287 28.9386C66.1335 29.0433 65.9939 29.1619 65.8404 29.2666C65.8194 29.6365 65.8055 29.9994 65.7845 30.3693C65.966 30.5577 66.1405 30.7461 66.3219 30.9415C66.5103 30.9555 66.6918 30.9764 66.8802 30.9834C67.4176 30.9973 67.7735 30.7182 67.948 30.2436C68.1294 29.7481 67.9759 29.3155 67.5711 28.9944C67.1663 28.6734 66.7267 28.6246 66.28 28.9386H66.287Z" fill="#32384B">
 <animate
         attributeName="fill-opacity"
         values="0;1;0"
         dur="1.8s"
         repeatCount="indefinite"
         />
</path>
<path d="M11.2526 38.7732C11.106 38.7314 11.0153 38.6407 10.9804 38.4941C10.6105 38.4313 10.2476 38.4383 9.88473 38.529C9.84285 38.6686 9.76609 38.7663 9.62652 38.8151C9.60558 39.0803 9.58464 39.3455 9.55672 39.6177L9.6335 39.6735L9.61257 39.7642C9.73818 39.8899 9.86379 40.0085 9.9894 40.1341L10.0801 40.1132L10.136 40.1899C10.4012 40.169 10.6663 40.1411 10.9315 40.1202C10.9804 39.9876 11.0781 39.9038 11.2177 39.8619C11.3224 39.499 11.3224 39.1361 11.2665 38.7732H11.2526Z" fill="#32384B">
 <animate
         attributeName="fill-opacity"
         values="0;1;0"
         dur="1.9s"
         repeatCount="indefinite"
         />
</path>
<path d="M106.393 29.0853C106.226 29.0085 106.163 28.862 106.149 28.6945C105.996 28.6526 105.912 28.5619 105.884 28.4084C105.73 28.3874 105.619 28.3176 105.57 28.1711C105.256 28.1153 104.928 28.0943 104.663 27.885H104.579C104.293 28.0594 103.972 28.1222 103.644 28.1362C103.365 28.4223 103.085 28.7084 102.806 28.9946C102.743 29.6366 102.59 30.2787 102.967 30.8788C103.511 31.7582 104.384 31.9396 105.779 31.4581C105.828 31.2906 105.94 31.1859 106.107 31.1371C106.114 31.0812 106.142 31.0254 106.156 30.9766C106.198 30.837 106.268 30.7114 106.414 30.6276C106.428 30.2159 106.435 29.8111 106.449 29.3993C106.449 29.3505 106.449 29.3016 106.449 29.2458L106.372 29.183L106.4 29.0853H106.393Z" fill="#32384B">
 <animate
         attributeName="fill-opacity"
         values="0;1;0"
         dur="3s"
         repeatCount="indefinite"
         />
</path>
<path d="M85.1652 19.767C85.1233 19.9205 85.0396 20.0461 84.8861 20.1089C84.8861 20.3322 84.8791 20.5625 84.8721 20.7859C85.0257 20.8487 85.0954 20.9743 85.1303 21.1278C85.2978 21.1557 85.4514 21.2046 85.5421 21.3651C85.6537 21.2744 85.7654 21.2953 85.8771 21.3721C86.1004 21.1976 86.3167 21.0301 86.54 20.8556C86.5331 20.5695 86.5191 20.2904 86.5121 20.0182C86.4354 19.9065 86.3446 19.8228 86.2469 19.7321C85.884 19.6623 85.5211 19.6693 85.1652 19.7739V19.767Z" fill="#32384B">
 <animate
         attributeName="fill-opacity"
         values="0;1;0"
         dur="2.8s"
         repeatCount="indefinite"
         />
</path>
<path d="M94.0976 21.6862C94.2651 21.7001 94.3907 21.7769 94.4605 21.9374C95.3538 22.1328 96.0865 21.8885 96.6309 21.1279C96.6169 20.6673 96.6099 20.1997 96.603 19.7391C96.4285 19.5437 96.261 19.3483 96.0935 19.1529H96.0796C95.9121 19.1389 95.7725 19.0831 95.6887 18.9156L95.584 18.9435L95.5073 18.8737C95.3189 18.8737 95.1374 18.8667 94.949 18.8598L94.8303 18.9156L94.7047 18.8946C94.5652 19.0831 94.3628 19.1598 94.1464 19.2017C94.1115 19.3483 94.0208 19.439 93.8743 19.4809C93.8324 19.7042 93.7766 19.9205 93.5672 20.0671C93.5672 20.3183 93.5602 20.5626 93.5532 20.8138C93.7347 20.9673 93.8115 21.1697 93.8324 21.393C93.9789 21.4349 94.0697 21.5326 94.0976 21.6862Z" fill="#32384B">
 <animate
         attributeName="fill-opacity"
         values="0;1;0"
         dur="2s"
         repeatCount="indefinite"
         />
</path>
<path d="M75.3526 20.1158C75.3526 20.3322 75.3456 20.5555 75.3387 20.7718C75.4922 20.8416 75.555 20.9742 75.5759 21.1277V21.1417C75.7015 21.2185 75.7923 21.3232 75.9179 21.386C76.0086 21.3511 76.0854 21.372 76.1552 21.4348C76.3296 21.4139 76.5111 21.3999 76.6925 21.379C76.7484 21.2394 76.86 21.1766 77.0066 21.1487L77.0275 21.1277C77.0903 21.0091 77.195 20.9114 77.2578 20.7928C77.2578 20.5555 77.2508 20.3182 77.2438 20.0809C77.0903 20.0181 77.0136 19.8855 76.9787 19.732C76.8112 19.7041 76.6646 19.6413 76.5739 19.4808C76.4413 19.4668 76.3087 19.4598 76.1691 19.4459C76.1133 19.5017 76.0365 19.5296 75.9667 19.5505C75.8481 19.6134 75.7295 19.6762 75.6108 19.739C75.5759 19.8995 75.5061 20.0391 75.3456 20.1088L75.3526 20.1158Z" fill="#32384B">
 <animate
         attributeName="fill-opacity"
         values="0;1;0"
         dur="2.1s"
         repeatCount="indefinite"
         />
</path>
<path d="M112.354 2.24038C112.626 2.54047 112.906 2.84753 113.178 3.14762C113.722 3.24532 114.266 3.24532 114.811 3.13366C114.867 2.98711 114.978 2.9243 115.132 2.90336H115.139C115.16 2.73587 115.25 2.64515 115.397 2.60327C115.411 2.37297 115.509 2.18455 115.676 2.03102C115.683 1.94029 115.697 1.85655 115.704 1.76582C115.697 1.5774 115.69 1.39595 115.683 1.20752L115.613 1.13773L115.648 1.04003C115.481 0.956286 115.425 0.809731 115.425 0.635262C115.23 0.446835 115.041 0.265388 114.846 0.0909185C114.287 -0.0277205 113.729 -0.0277181 113.171 0.0769634C112.899 0.384029 112.633 0.691093 112.361 0.99118C112.41 1.07493 112.396 1.14471 112.319 1.20054C112.319 1.47969 112.319 1.75885 112.319 2.038C112.403 2.08685 112.417 2.14965 112.368 2.22642L112.354 2.24038Z" fill="#32384B">
 <animate
         attributeName="fill-opacity"
         values="0;1;0"
         dur="2.6s"
         repeatCount="indefinite"
         />
</path>
<path d="M1.72606 40.2109L1.747 40.1969C1.77491 40.0504 1.85866 39.9597 2.00521 39.9178C2.08198 39.4502 2.082 39.0036 1.9145 38.5639C1.80982 38.4871 1.69815 38.4104 1.59347 38.3336C1.53764 38.3127 1.48181 38.2778 1.44692 38.222C1.16777 38.222 0.888622 38.222 0.602493 38.222C0.44896 38.3406 0.295424 38.4592 0.141891 38.5709C-0.0325778 39.0036 -0.0256026 39.4502 0.0511639 39.8969C0.197718 39.9387 0.28146 40.0434 0.309375 40.19H0.316361C0.483851 40.2109 0.630404 40.2667 0.70717 40.4272C0.923512 40.4272 1.13985 40.4272 1.35619 40.4272C1.43296 40.2667 1.57254 40.2109 1.73305 40.2039L1.72606 40.2109Z" fill="#32384B">
 <animate
         attributeName="fill-opacity"
         values="0;1;0"
         dur="2.3s"
         repeatCount="indefinite"
         />
</path>
<path d="M115.397 30.2926C115.39 29.9995 115.376 29.6994 115.369 29.4063C115.369 29.3644 115.369 29.3296 115.369 29.2877C115.069 29.0085 114.769 28.7294 114.469 28.4502L114.364 28.4781L114.281 28.4084C114.092 28.4084 113.911 28.4084 113.722 28.4084L113.625 28.4712L113.513 28.4432C113.213 28.7224 112.913 28.9946 112.613 29.2737C112.599 29.6436 112.585 30.0065 112.571 30.3764C112.655 30.4182 112.676 30.4741 112.634 30.5578C112.794 30.6206 112.871 30.7532 112.906 30.9137C113.052 30.9416 113.15 31.0184 113.206 31.158C113.736 31.2976 114.26 31.2976 114.79 31.144C114.839 31.0045 114.944 30.9277 115.083 30.8998C115.118 30.7323 115.195 30.5927 115.362 30.5159L115.335 30.4322L115.404 30.3764C115.404 30.3764 115.404 30.3205 115.404 30.2996L115.397 30.2926Z" fill="#32384B">
 <animate
         attributeName="fill-opacity"
         values="0;1;0"
         dur="2.2s"
         repeatCount="indefinite"
         />
</path>
<path d="M103.38 20.458C103.547 20.6464 103.596 20.8837 103.617 21.128C103.764 21.1698 103.854 21.2606 103.889 21.4071C104.14 21.442 104.385 21.4769 104.587 21.6514H104.601C104.782 21.4629 105.027 21.428 105.264 21.3722C105.299 21.2326 105.383 21.1349 105.522 21.0861C105.634 20.6464 105.627 20.2137 105.487 19.7811C105.355 19.7392 105.271 19.6554 105.229 19.5228C104.796 19.3763 104.364 19.3763 103.924 19.481C103.875 19.6205 103.777 19.7043 103.638 19.7392C103.596 19.9765 103.554 20.2068 103.366 20.3882V20.458H103.38Z" fill="#32384B">
 <animate
         attributeName="fill-opacity"
         values="0;1;0"
         dur="2.4s"
         repeatCount="indefinite"
         />
</path>
<path d="M76.3571 10.4975H76.2454C76.1268 10.5813 76.0012 10.665 75.8825 10.7488C75.8825 10.9372 75.8825 11.1256 75.8825 11.3141C75.9872 11.4118 76.0919 11.5095 76.2175 11.5723C76.2803 11.5374 76.3431 11.5374 76.4059 11.5723C76.5246 11.5025 76.6223 11.4048 76.7409 11.335L76.7549 11.3141C76.7549 11.1256 76.7549 10.9302 76.7479 10.7418H76.7409C76.6153 10.6511 76.4967 10.5743 76.378 10.4975H76.3571Z" fill="#32384B">
 <animate
         attributeName="fill-opacity"
         values="0;1;0"
         dur="2.5s"
         repeatCount="indefinite"
         />
</path>
<path d="M85.4727 0.956031C85.3401 1.01884 85.2354 1.10956 85.1587 1.2282C85.1587 1.4934 85.1726 1.75859 85.1796 2.03076C85.2982 2.12149 85.4099 2.21221 85.5285 2.30293C85.6541 2.30293 85.7797 2.30992 85.9054 2.31689C86.0449 2.26804 86.1496 2.16336 86.2613 2.06566C86.2613 1.77953 86.2752 1.4934 86.2822 1.21425L86.2683 1.19331C86.1496 1.12352 86.0589 1.02582 85.9472 0.949056C85.7937 0.949056 85.6332 0.956033 85.4727 0.963012V0.956031Z" fill="#32384B">
 <animate
         attributeName="fill-opacity"
         values="0;1;0"
         dur="2.2s"
         repeatCount="indefinite"
         />
</path>
<path d="M114.545 19.7321C114.175 19.6413 113.812 19.6413 113.442 19.7181C113.352 19.8158 113.254 19.8996 113.184 20.0112C113.177 20.2904 113.163 20.5625 113.156 20.8417C113.366 21.0231 113.575 21.1976 113.784 21.3721C113.924 21.3721 114.064 21.3721 114.203 21.3721C114.412 21.1906 114.615 21.0092 114.824 20.8277C114.817 20.5625 114.803 20.2973 114.796 20.0321C114.657 19.9763 114.58 19.8716 114.545 19.7321Z" fill="#32384B">
 <animate
         attributeName="fill-opacity"
         values="0;1;0"
         dur="2.7s"
         repeatCount="indefinite"
         />
</path>
<path d="M76.3785 28.9944L76.3018 29.0362L76.225 28.9944C76.0366 29.099 75.8551 29.2037 75.6667 29.3014C75.5481 29.6504 75.5271 30.0063 75.6039 30.3692C75.6946 30.4599 75.7853 30.5576 75.89 30.6274C76.1622 30.6274 76.4413 30.6344 76.7135 30.6414C76.8112 30.5576 76.9019 30.4599 77.0066 30.3831C77.0764 30.0063 77.0555 29.6434 76.9438 29.2945C76.7554 29.1968 76.567 29.0921 76.3785 28.9944Z" fill="#32384B">
 <animate
         attributeName="fill-opacity"
         values="0;1;0"
         dur="2.8s"
         repeatCount="indefinite"
         />
</path>
<path d="M1.09825 28.9944L1.0215 29.0362L0.94472 28.9944C0.756293 29.099 0.574854 29.2037 0.386427 29.3014C0.267788 29.6504 0.246854 30.0063 0.32362 30.3692C0.414344 30.4599 0.50505 30.5576 0.609731 30.6274C0.881903 30.6274 1.16107 30.6344 1.43324 30.6414C1.53094 30.5576 1.62166 30.4599 1.72634 30.3831C1.79613 30.0063 1.77519 29.6434 1.66353 29.2945C1.47511 29.1968 1.28668 29.0921 1.09825 28.9944Z" fill="#32384B">
 <animate
         attributeName="fill-opacity"
         values="0;1;0"
         dur="2.3s"
         repeatCount="indefinite"
         />
</path>
<path d="M104.189 10.1835C104.007 10.3858 103.826 10.5882 103.644 10.7906C103.644 10.9511 103.644 11.1047 103.644 11.2652C103.819 11.4675 103.993 11.6699 104.168 11.8723H104.182C104.461 11.8723 104.74 11.8584 105.019 11.8444C105.124 11.7676 105.215 11.6699 105.312 11.5862C105.389 11.2093 105.389 10.8395 105.305 10.4626C105.166 10.4277 105.061 10.3509 105.005 10.2114C104.733 10.1974 104.461 10.1904 104.189 10.1765V10.1835Z" fill="#32384B">
 <animate
         attributeName="fill-opacity"
         values="0;1;0"
         dur="1.5s"
         repeatCount="indefinite"
         />
</path>
<path d="M95.7521 30.5646C96.1499 29.4759 96.101 29.3782 94.9495 28.9734C94.9077 29.0223 94.8518 29.0502 94.796 29.0711C94.6774 29.1479 94.5657 29.2247 94.4471 29.3014C94.4122 29.3991 94.4052 29.4899 94.3912 29.5876C94.3494 29.8109 94.3424 30.0342 94.3773 30.2645C94.3773 30.2994 94.3773 30.3343 94.3842 30.3692C94.475 30.4669 94.5657 30.5576 94.6634 30.6483C95.0333 30.7251 95.3962 30.7042 95.7521 30.5646Z" fill="#32384B">
 <animate
         attributeName="fill-opacity"
         values="0;1;0"
         dur="1.8s"
         repeatCount="indefinite"
         />
</path>
<path d="M21.0073 33.3678C21.0073 33.3678 21.0213 33.3888 21.0352 33.3958C21.0492 33.4097 21.0562 33.4237 21.0701 33.4306C21.2027 33.5493 21.2865 33.6889 21.3493 33.8564C21.782 34.0308 22.2216 34.0378 22.6683 33.9261C23.2405 32.6839 23.1568 32.4885 21.8587 32C21.8099 32.0558 21.7401 32.0768 21.6773 32.1047C21.5586 32.1745 21.433 32.2373 21.3144 32.3071C21.2795 32.4536 21.2097 32.5723 21.0841 32.656C21.0701 32.663 21.0631 32.6839 21.0422 32.6909L21.0701 32.7816L21.0003 32.8444C21.0003 33.0259 21.0143 33.2003 21.0213 33.3818L21.0073 33.3678Z" fill="#32384B">
 <animate
         attributeName="fill-opacity"
         values="0;1;0"
         dur="1.3s"
         repeatCount="indefinite"
         />
</path>
<path d="M25.0073 21.3678C25.0073 21.3678 25.0213 21.3888 25.0352 21.3958C25.0492 21.4097 25.0562 21.4237 25.0701 21.4306C25.2027 21.5493 25.2865 21.6889 25.3493 21.8564C25.782 22.0308 26.2216 22.0378 26.6683 21.9261C27.2405 20.6839 27.1568 20.4885 25.8587 20C25.8099 20.0558 25.7401 20.0768 25.6773 20.1047C25.5586 20.1745 25.433 20.2373 25.3144 20.3071C25.2795 20.4536 25.2097 20.5723 25.0841 20.656C25.0701 20.663 25.0631 20.6839 25.0422 20.6909L25.0701 20.7816L25.0003 20.8444C25.0003 21.0259 25.0143 21.2003 25.0213 21.3818L25.0073 21.3678Z" fill="#32384B">
 <animate
         attributeName="fill-opacity"
         values="0;1;0"
         dur="1.9s"
         repeatCount="indefinite"
         />
</path>
<path d="M115.04 11.8097C115.04 11.8097 115.04 11.8097 115.047 11.8097C115.075 11.719 115.089 11.6352 115.103 11.5445C115.215 11.0211 115.159 10.5256 114.817 10.072C114.803 10.051 114.789 10.0301 114.775 10.0092C114.775 10.0092 114.775 9.9952 114.768 9.9952C114.252 9.82073 113.735 9.82771 113.212 9.98124C113.177 10.1278 113.086 10.2185 112.94 10.2464C112.758 10.7698 112.758 11.3002 112.933 11.8236C112.933 11.8236 112.933 11.8236 112.94 11.8236C113.086 11.8515 113.177 11.9423 113.205 12.0888C113.735 12.2563 114.259 12.2493 114.782 12.0749C114.782 12.0749 114.782 12.0749 114.782 12.0679C114.81 11.9213 114.894 11.8306 115.04 11.8027V11.8097Z" fill="#32384B">
 <animate
         attributeName="fill-opacity"
         values="0;1;0"
         dur="2s"
         repeatCount="indefinite"
         />
</path>
<path d="M180.389 67.0278C180.054 66.9301 179.726 66.9301 179.398 67.0697C179.398 67.0697 179.398 67.0697 179.391 67.0697C179.273 67.3907 179.273 67.7117 179.378 68.0327C179.378 68.0327 179.378 68.0397 179.378 68.0467C179.719 68.1863 180.061 68.1933 180.41 68.0886C180.41 68.0886 180.41 68.0816 180.41 68.0746C180.536 67.7257 180.536 67.3698 180.396 67.0208C180.396 67.0208 180.396 67.0208 180.389 67.0208V67.0278Z" fill="#32384B">
 <animate
         attributeName="fill-opacity"
         values="0;1;0"
         dur="2.3s"
         repeatCount="indefinite"
         />
</path>
<path d="M103.344 2.33107C103.344 2.33107 103.344 2.33108 103.344 2.33805C103.532 2.5195 103.728 2.69397 103.916 2.87542C104.37 2.9452 104.817 2.93823 105.263 2.8475C105.305 2.70793 105.41 2.63814 105.542 2.61023C105.549 2.61023 105.556 2.61022 105.563 2.60325C105.584 2.45669 105.647 2.33805 105.801 2.29618C105.884 1.85652 105.884 1.41685 105.815 0.977191C105.815 0.977191 105.815 0.977191 105.808 0.977191C105.661 0.928339 105.605 0.816679 105.577 0.677104C105.577 0.677104 105.577 0.670127 105.577 0.663148C105.431 0.635233 105.326 0.565447 105.277 0.418892C105.277 0.418892 105.277 0.418891 105.277 0.411912C104.817 0.404933 104.356 0.390975 103.895 0.383996C103.707 0.572423 103.519 0.753872 103.337 0.93532C103.26 1.4029 103.26 1.87048 103.344 2.33805V2.33107Z" fill="#32384B">
 <animate
         attributeName="fill-opacity"
         values="0;1;0"
         dur="2.5s"
         repeatCount="indefinite"
         />
</path>
<path d="M77.0059 2.06562C76.9291 0.788504 76.7686 0.690801 75.5892 1.21421C75.5892 1.49336 75.5892 1.77949 75.5962 2.05864C75.6869 2.14936 75.7776 2.24009 75.8683 2.33081C76.1475 2.33081 76.4336 2.33081 76.7128 2.33081C76.8035 2.24009 76.8942 2.15634 76.9849 2.06562C76.9849 2.06562 76.9919 2.05864 76.9989 2.05166L77.0059 2.06562Z" fill="#32384B">
 <animate
         attributeName="fill-opacity"
         values="0;1;0"
         dur="2.8s"
         repeatCount="indefinite"
         />
</path>
<path d="M95.7232 0.990963C95.7232 0.990963 95.7162 0.990963 95.7092 0.990963C95.3603 0.879303 95.0113 0.865344 94.6554 0.935131C94.6554 0.935131 94.6554 0.935133 94.6554 0.942112C94.6205 1.08169 94.5437 1.18637 94.3972 1.22824C94.3972 1.49343 94.4042 1.7656 94.4111 2.0308C94.5577 2.06569 94.6414 2.17037 94.6693 2.30995C95.0113 2.3937 95.3533 2.36578 95.6883 2.25412C95.6883 2.25412 95.6952 2.25412 95.7022 2.25412C95.9186 1.83539 95.9186 1.40969 95.7232 0.983983V0.990963Z" fill="#32384B">
 <animate
         attributeName="fill-opacity"
         values="0;1;0"
         dur="2.9s"
         repeatCount="indefinite"
         />
</path>
<path d="M95.5141 10.4626C95.5141 10.4626 95.5141 10.4626 95.5141 10.4556C95.2489 10.4696 94.9837 10.4835 94.7185 10.5045C94.7185 10.5045 94.7116 10.5045 94.7046 10.5045C94.565 10.8464 94.558 11.1954 94.6906 11.5373V11.5513C95.1024 11.6909 95.4722 11.6281 95.7793 11.3001C95.7793 11.1116 95.7793 10.9302 95.7793 10.7418C95.6956 10.651 95.6048 10.5533 95.5211 10.4626H95.5141Z" fill="#32384B">
 <animate
         attributeName="fill-opacity"
         values="0;1;0"
         dur="2.8s"
         repeatCount="indefinite"
         />
</path>
<path fill-rule="evenodd" clip-rule="evenodd" d="M171.387 85.3086C171.45 85.504 171.59 85.6436 171.757 85.7552H171.771V85.7762C171.82 86.2368 171.827 86.6974 171.715 87.151C171.569 87.1999 171.492 87.3045 171.464 87.4511C171.296 87.472 171.171 87.5488 171.101 87.7093C171.017 87.6674 170.954 87.6814 170.906 87.7651C170.626 87.7582 170.347 87.7582 170.068 87.7582C170.033 87.6744 169.97 87.6535 169.894 87.7023C169.824 87.5418 169.698 87.465 169.531 87.4371C169.503 87.2906 169.426 87.1859 169.287 87.137C169.175 86.6904 169.175 86.2368 169.231 85.7832C169.566 85.3993 169.998 85.176 170.438 84.9666L170.494 85.0085L170.55 84.9666C170.613 85.0295 170.696 85.0504 170.78 85.0644C170.982 85.1411 171.185 85.2249 171.387 85.3086L171.387 85.3086ZM10.9594 28.4154C11.0919 28.5898 11.2734 28.6875 11.4828 28.7364C11.5107 28.876 11.5874 28.9807 11.727 29.0295C11.9015 29.5599 11.8875 30.0973 11.7898 30.6346C11.6433 30.6905 11.5735 30.7951 11.5526 30.9417L11.5386 30.9556C11.392 30.9766 11.2874 31.0533 11.2385 31.1999C10.6872 31.3255 10.1428 31.3255 9.60548 31.165C9.55663 31.0185 9.45891 30.9417 9.31236 30.9068C9.28444 30.7393 9.21468 30.6067 9.04718 30.5369L9.06812 30.4392L8.99135 30.3694L9.03322 29.2668C9.08453 29.2167 9.13585 29.1665 9.18716 29.116L9.28746 29.0173L9.45102 28.8559L9.45193 28.855L9.45642 28.8506C9.59451 28.7143 9.73259 28.5779 9.87067 28.4433C10.2336 28.4293 10.5965 28.4224 10.9594 28.4154ZM25.0161 21.3792C25.0213 21.3853 25.0282 21.3923 25.0352 21.3958C25.0407 21.4013 25.0452 21.4068 25.0493 21.4119C25.0558 21.4197 25.0617 21.4265 25.0701 21.4307C25.2027 21.5493 25.2865 21.6889 25.3493 21.8564C25.782 22.0309 26.2216 22.0378 26.6683 21.9262C27.2405 20.684 27.1568 20.4886 25.8587 20.0001C25.8189 20.0456 25.7652 20.0679 25.7126 20.0897L25.6854 20.1012L25.6773 20.1047C25.6181 20.1395 25.5572 20.1726 25.4963 20.2057L25.4958 20.206L25.4952 20.2063C25.4344 20.2393 25.3735 20.2723 25.3144 20.3071C25.2795 20.4537 25.2097 20.5723 25.0841 20.6561C25.0782 20.659 25.0735 20.6644 25.0686 20.6702C25.0618 20.6782 25.0543 20.6869 25.0422 20.6909L25.0701 20.7817L25.0003 20.8445C25.0003 20.9639 25.0064 21.0802 25.0125 21.1975V21.1977V21.1979L25.0126 21.1991V21.1995V21.1998V21.2002V21.2004L25.0176 21.2986C25.0189 21.3262 25.0202 21.354 25.0213 21.3819L25.0073 21.3679C25.0073 21.3679 25.0108 21.3731 25.0161 21.3792ZM178.539 68.0036L178.513 68.0959C178.681 68.1726 178.743 68.3122 178.757 68.4867C178.904 68.5216 179.002 68.6123 179.044 68.7588C179.274 68.7868 179.476 68.8496 179.63 69.038C179.853 69.031 180.069 69.024 180.293 69.0101C180.39 68.8426 180.544 68.8007 180.718 68.7937H180.739L180.803 68.7199C180.955 68.5437 181.103 68.3721 181.256 68.2005C181.326 67.7469 181.319 67.2933 181.228 66.8467C181.088 66.7908 181.012 66.6792 180.998 66.5326C180.851 66.5047 180.746 66.4279 180.691 66.2814C180.153 66.1558 179.616 66.1558 179.085 66.3233C179.037 66.4628 178.939 66.5396 178.799 66.5745C178.757 66.7908 178.66 66.9793 178.485 67.1188C178.527 67.2096 178.513 67.3003 178.45 67.3771L178.471 67.9354L178.539 68.0036ZM134.142 66.9513C133.982 66.8746 133.905 66.735 133.863 66.5675C133.703 66.5326 133.584 66.4489 133.521 66.2884L133.409 66.3023L133.333 66.2186C133.148 66.2221 132.961 66.2273 132.774 66.2325H132.774H132.774H132.774C132.588 66.2378 132.401 66.243 132.216 66.2465C132.104 66.421 131.951 66.5466 131.749 66.6094L131.738 66.6435C131.672 66.849 131.605 67.0564 131.414 67.1886C131.414 67.4119 131.407 67.6422 131.4 67.8656C131.602 68.0051 131.658 68.2215 131.707 68.4448C131.846 68.4797 131.937 68.5704 131.986 68.71C132.516 68.8914 133.061 68.8984 133.605 68.7519C133.654 68.6053 133.751 68.5216 133.898 68.4937C133.919 68.3262 133.989 68.1936 134.149 68.1238C134.107 68.04 134.121 67.9772 134.205 67.9284C134.205 67.789 134.202 67.6495 134.198 67.5101L134.198 67.5096L134.198 67.5092C134.195 67.3698 134.191 67.2303 134.191 67.0909L134.114 67.0351L134.142 66.9513ZM171.387 28.7713C171.45 28.9667 171.59 29.1063 171.757 29.2179H171.771V29.2389C171.82 29.6995 171.827 30.1601 171.715 30.6137C171.569 30.6625 171.492 30.7672 171.464 30.9138C171.296 30.9347 171.171 31.0115 171.101 31.172C171.017 31.1301 170.954 31.1441 170.906 31.2278C170.626 31.2209 170.347 31.2209 170.068 31.2209C170.033 31.1371 169.97 31.1162 169.894 31.165C169.824 31.0045 169.698 30.9277 169.531 30.8998C169.503 30.7533 169.426 30.6486 169.287 30.5997C169.175 30.1531 169.175 29.6995 169.231 29.2459C169.566 28.862 169.998 28.6387 170.438 28.4293L170.494 28.4712L170.55 28.4293C170.613 28.4922 170.696 28.5131 170.78 28.527C170.982 28.6037 171.184 28.6873 171.386 28.7709L171.386 28.771L171.386 28.771L171.387 28.7711L171.387 28.7711L171.387 28.7712L171.387 28.7712L171.387 28.7713ZM189.7 30.3693C189.737 30.3201 189.776 30.2736 189.816 30.2274C189.866 30.1688 189.915 30.1107 189.958 30.0482C189.951 29.9087 189.944 29.7691 189.937 29.6225L189.588 29.2736L189.375 29.2631L189.162 29.2527C189.107 29.291 189.054 29.3346 189.002 29.3781L189.002 29.3782L189.002 29.3782L189.002 29.3782L189.002 29.3783C188.95 29.4219 188.897 29.4655 188.841 29.5039V29.5179C188.765 29.79 188.82 30.0482 188.904 30.3065C189.162 30.3902 189.421 30.4391 189.693 30.3762H189.7V30.3693ZM84.167 11.105C84.3625 10.9444 84.4113 10.7281 84.4462 10.4978L84.4532 10.5048C84.5997 10.4629 84.6904 10.3652 84.7253 10.2187C84.9487 10.1907 85.1511 10.107 85.2976 9.93253C85.3589 9.93433 85.4202 9.93659 85.4815 9.93909C85.5389 9.94142 85.5963 9.94395 85.6537 9.94649C85.7184 9.94934 85.7831 9.95219 85.8478 9.95477C85.9017 9.95691 85.9556 9.95885 86.0094 9.96044C86.0932 10.1209 86.2397 10.1698 86.4072 10.1907H86.4212C86.508 10.295 86.5932 10.4009 86.6783 10.5069L86.6794 10.5083L86.6799 10.5089L86.6804 10.5095L86.6809 10.5101L86.6814 10.5107C86.7662 10.6163 86.8511 10.7219 86.9376 10.8258C86.8958 10.9165 86.9097 10.9863 86.9795 11.0491V11.6074C86.9097 11.6772 86.8958 11.754 86.9376 11.8377C86.7882 11.9802 86.6388 12.1243 86.4895 12.2685L86.4875 12.2704L86.4855 12.2723C86.3361 12.4165 86.1867 12.5607 86.0374 12.7031C85.7303 12.6961 85.4232 12.6891 85.1161 12.6891C85.0324 12.5216 84.8859 12.4658 84.7114 12.4449C84.6765 12.2983 84.5858 12.2006 84.4392 12.1588C84.4113 11.9285 84.3555 11.7121 84.167 11.5516V11.105ZM66.287 28.9317C66.2103 28.9841 66.137 29.0399 66.0637 29.0957L66.0635 29.0959L66.0634 29.0959C65.9902 29.1517 65.9171 29.2074 65.8404 29.2597C65.8299 29.4447 65.8212 29.6278 65.8125 29.811C65.8037 29.9942 65.795 30.1774 65.7845 30.3624C65.9536 30.538 66.1167 30.7135 66.2849 30.8948L66.3219 30.9346C66.3865 30.9394 66.4502 30.945 66.5137 30.9506C66.6355 30.9613 66.7563 30.9719 66.8802 30.9765C67.4176 30.9905 67.7735 30.7113 67.948 30.2367C68.1294 29.7413 67.9759 29.3086 67.5711 28.9875C67.1663 28.6665 66.7267 28.6177 66.28 28.9317H66.287ZM115.383 29.8426L115.383 29.8446V29.8446C115.389 29.9922 115.394 30.1398 115.397 30.2857L115.404 30.2927V30.3695L115.335 30.4253L115.362 30.509C115.195 30.5858 115.118 30.7254 115.083 30.8929C114.944 30.9208 114.839 30.9975 114.79 31.1371C114.26 31.2907 113.736 31.2907 113.206 31.1511C113.15 31.0115 113.052 30.9347 112.906 30.9068C112.871 30.7463 112.794 30.6137 112.634 30.5509C112.676 30.4672 112.655 30.4113 112.571 30.3695L112.613 29.2668C112.763 29.1272 112.913 28.9894 113.063 28.8516C113.213 28.7137 113.363 28.5759 113.513 28.4363L113.625 28.4643L113.722 28.4014H114.281L114.364 28.4712L114.469 28.4433L115.369 29.2808V29.3994C115.373 29.546 115.378 29.6943 115.383 29.8426ZM115.04 11.8028H115.047C115.075 11.7121 115.089 11.6283 115.103 11.5376C115.215 11.0142 115.159 10.5187 114.817 10.0651L114.775 10.0023C114.775 10.0023 114.775 9.99834 114.774 9.99466C114.773 9.99139 114.772 9.98831 114.768 9.98831C114.252 9.81384 113.735 9.82082 113.212 9.97435C113.177 10.1209 113.086 10.2116 112.94 10.2395C112.758 10.763 112.758 11.2933 112.933 11.8167H112.94C113.086 11.8447 113.177 11.9354 113.205 12.0819C113.735 12.2494 114.259 12.2424 114.782 12.068V12.061C114.81 11.9144 114.894 11.8237 115.04 11.7958V11.8028ZM103.63 2.59983C103.534 2.51083 103.438 2.42182 103.344 2.33107C103.26 1.86349 103.26 1.39592 103.337 0.928337C103.427 0.83847 103.519 0.748604 103.611 0.65789C103.705 0.565445 103.8 0.472122 103.895 0.377014C104.126 0.380501 104.356 0.385735 104.586 0.390968C104.817 0.396202 105.047 0.401436 105.277 0.40493V0.411911C105.326 0.558464 105.431 0.62825 105.577 0.656166V0.67012C105.605 0.8097 105.661 0.921356 105.808 0.970207H105.815C105.884 1.40987 105.884 1.84953 105.801 2.2892C105.647 2.33107 105.584 2.44971 105.563 2.59627C105.556 2.60324 105.549 2.60324 105.542 2.60324C105.41 2.63116 105.305 2.70094 105.263 2.84052C104.817 2.93124 104.37 2.93822 103.916 2.86844C103.822 2.77774 103.726 2.68878 103.63 2.59983Z" fill="url(#paint0_linear_1_10933)">
 <animate
         attributeName="fill-opacity"
         values="0;1;0"
         dur="2s"
         repeatCount="indefinite"
         />
</path>
<defs>
<linearGradient id="paint0_linear_1_10933" x1="152.979" y1="87.7652" x2="34.5469" y2="70.1677" gradientUnits="userSpaceOnUse">
<stop stop-color="#FFB777"/>
<stop offset="0.429261" stop-color="#FF628A"/>
<stop offset="1" stop-color="#A144FF"/>
</linearGradient>
</defs>
</svg>
