<svg
   width="1279"
   height="506"
   viewBox="0 0 1279 506"
   fill="none"
   xmlns="http://www.w3.org/2000/svg"
   >
   <path
      d="M336.978 388.839C337.382 387.941 336.514 387.073 335.616 387.477C335.422 387.567 335.272 387.716 335.182 387.911C334.778 388.809 335.646 389.677 336.544 389.273C336.739 389.183 336.888 389.034 336.978 388.839Z"
      fill="white"
      fillOpacity="0.2"
      >
      <animate
         attributeName="fill-opacity"
         values="0;1;0"
         dur="2s"
         repeatCount="indefinite"
         />
   </path>
   <path
      d="M181.898 303.13C182.301 302.232 181.436 301.364 180.54 301.768C180.346 301.858 180.197 302.007 180.107 302.202C179.689 303.1 180.57 303.968 181.465 303.564C181.659 303.474 181.809 303.325 181.898 303.13Z"
      fill="#AC5EFA"
      >
      <animate
         attributeName="fill-opacity"
         values="0;1;0"
         dur="3s"
         repeatCount="indefinite"
         />
   </path>
   <path
      d="M945.898 425.13C946.302 424.232 945.434 423.364 944.536 423.768C944.341 423.858 944.192 424.007 944.102 424.202C943.698 425.1 944.566 425.968 945.464 425.564C945.659 425.474 945.808 425.325 945.898 425.13Z"
      fill="white"
      fillOpacity="0.4"
      >
      <animate
         attributeName="fill-opacity"
         values="0;1;0"
         dur="2.5s"
         repeatCount="indefinite"
         />
   </path>
   <path
      d="M1123.84 476.376C1124.26 475.478 1123.38 474.61 1122.48 475.014C1122.29 475.104 1122.14 475.254 1122.05 475.448C1121.64 476.346 1122.51 477.214 1123.41 476.81C1123.6 476.72 1123.75 476.571 1123.84 476.376Z"
      fill="white"
      fillOpacity="0.2"
      >
      <animate
         attributeName="fill-opacity"
         values="0;1;0"
         dur="1.5s"
         repeatCount="indefinite"
         />
   </path>
   <path
      d="M117.898 75.13C118.301 74.232 117.436 73.3638 116.54 73.768C116.346 73.8578 116.197 74.0074 116.107 74.202C115.689 75.1001 116.57 75.9682 117.465 75.5641C117.659 75.4743 117.809 75.3246 117.898 75.13Z"
      fill="white"
      fillOpacity="0.2"
      >
      <animate
         attributeName="fill-opacity"
         values="0;1;0"
         dur="2s"
         repeatCount="indefinite"
         />
   </path>
   <path
      d="M623.898 373.13C624.302 372.232 623.434 371.364 622.536 371.768C622.341 371.858 622.192 372.007 622.102 372.202C621.698 373.1 622.566 373.968 623.464 373.564C623.659 373.474 623.808 373.325 623.898 373.13Z"
      fill="white"
      fillOpacity="0.2"
      >
      <animate
         attributeName="fill-opacity"
         values="0;1;0"
         dur="3s"
         repeatCount="indefinite"
         />
   </path>
   <path
      d="M352.65 295.213C353.068 294.315 352.187 293.447 351.291 293.851C351.097 293.941 350.948 294.09 350.859 294.285C350.455 295.183 351.321 296.051 352.217 295.647C352.411 295.557 352.56 295.408 352.65 295.213Z"
      fill="white"
      fillOpacity="0.2"
      >
      <animate
         attributeName="fill-opacity"
         values="0;1;0"
         dur="4s"
         repeatCount="indefinite"
         />
   </path>
   <path
      d="M121.898 481.13C122.301 480.232 121.436 479.364 120.54 479.768C120.346 479.858 120.197 480.007 120.107 480.202C119.689 481.1 120.57 481.968 121.465 481.564C121.66 481.474 121.809 481.325 121.898 481.13Z"
      fill="white"
      fillOpacity="0.4"
      >
      <animate
         attributeName="fill-opacity"
         values="0;1;0"
         dur="2.5s"
         repeatCount="indefinite"
         />
   </path>
   <path
      d="M100.477 190.59C100.881 189.692 100.013 188.824 99.1151 189.228C98.9205 189.318 98.7708 189.467 98.681 189.662C98.2769 190.56 99.145 191.428 100.043 191.024C100.238 190.934 100.387 190.785 100.477 190.59Z"
      fill="white"
      fillOpacity="0.2"
      >
      <animate
         attributeName="fill-opacity"
         values="0;1;0"
         dur="2.8s"
         repeatCount="indefinite"
         />
   </path>
   <path
      d="M33.2604 110.385C33.6645 109.487 32.7964 108.619 31.8983 109.023C31.7037 109.113 31.5541 109.262 31.4642 109.457C31.0601 110.355 31.9282 111.223 32.8263 110.819C33.0209 110.729 33.1706 110.579 33.2604 110.385Z"
      fill="white"
      fillOpacity="0.4"
      >
      <animate
         attributeName="fill-opacity"
         values="0;1;0"
         dur="2.2s"
         repeatCount="indefinite"
         />
   </path>
   <path
      d="M33.2604 110.385C33.6645 109.487 32.7964 108.619 31.8983 109.023C31.7037 109.113 31.5541 109.262 31.4642 109.457C31.0601 110.355 31.9282 111.223 32.8263 110.819C33.0209 110.729 33.1706 110.579 33.2604 110.385Z"
      fill="#FF808D"
      >
      <animate
         attributeName="fill-opacity"
         values="0;1;0"
         dur="1.5s"
         repeatCount="indefinite"
         />
   </path>
   <path
      d="M481.898 351.13C482.301 350.232 481.436 349.364 480.54 349.768C480.346 349.858 480.197 350.007 480.107 350.202C479.689 351.1 480.57 351.968 481.465 351.564C481.659 351.474 481.809 351.325 481.898 351.13Z"
      fill="white"
      fillOpacity="0.2"
      >
      <animate
         attributeName="fill-opacity"
         values="0;1;0"
         dur="2s"
         repeatCount="indefinite"
         />
   </path>
   <path
      d="M759.898 505.126C760.301 504.23 759.436 503.365 758.54 503.768C758.346 503.857 758.197 504.007 758.107 504.201C757.689 505.096 758.57 505.977 759.465 505.559C759.659 505.469 759.809 505.32 759.898 505.126Z"
      fill="white"
      fillOpacity="0.2"
      >
      <animate
         attributeName="fill-opacity"
         values="0;1;0"
         dur="1.8s"
         repeatCount="indefinite"
         />
   </path>
   <path
      d="M623.898 443.13C624.302 442.232 623.434 441.364 622.536 441.768C622.341 441.858 622.192 442.007 622.102 442.202C621.698 443.1 622.566 443.968 623.464 443.564C623.659 443.474 623.808 443.325 623.898 443.13Z"
      fill="white"
      fillOpacity="0.4"
      >
      <animate
         attributeName="fill-opacity"
         values="0;1;0"
         dur="2.5s"
         repeatCount="indefinite"
         />
   </path>
   <path
      d="M1228.81 165.056C1229.21 164.158 1228.35 163.29 1227.45 163.694C1227.26 163.784 1227.11 163.933 1227.02 164.128C1226.6 165.026 1227.48 165.894 1228.38 165.49C1228.57 165.4 1228.72 165.25 1228.81 165.056Z"
      fill="white"
      fillOpacity="0.4"
      >
      <animate
         attributeName="fill-opacity"
         values="0;1;0"
         dur="2s"
         repeatCount="indefinite"
         />
   </path>
   <path
      d="M1264.1 84.1056C1264.5 83.2075 1263.63 82.3394 1262.74 82.7435C1262.54 82.8334 1262.39 82.983 1262.3 83.1776C1261.89 84.0757 1262.77 84.9438 1263.66 84.5397C1263.86 84.4499 1264.01 84.3002 1264.1 84.1056Z"
      fill="white"
      fillOpacity="0.2"
      >
      <animate
         attributeName="fill-opacity"
         values="0;1;0"
         dur="2s"
         repeatCount="indefinite"
         />
   </path>
   <path
      d="M337.195 232.034C337.599 231.136 336.731 230.268 335.833 230.672C335.638 230.762 335.489 230.912 335.399 231.106C334.995 232.004 335.863 232.872 336.761 232.468C336.955 232.379 337.105 232.229 337.195 232.034Z"
      fill="white"
      fillOpacity="0.2"
      >
      <animate
         attributeName="fill-opacity"
         values="0;1;0"
         dur="2.9s"
         repeatCount="indefinite"
         />
   </path>
   <path
      d="M1117.5 298.072C1117.92 297.174 1117.04 296.306 1116.14 296.71C1115.95 296.8 1115.8 296.95 1115.71 297.144C1115.31 298.042 1116.17 298.911 1117.07 298.506C1117.26 298.417 1117.41 298.267 1117.5 298.072Z"
      fill="white"
      fillOpacity="0.2"
      >
      <animate
         attributeName="fill-opacity"
         values="0;1;0"
         dur="1.6s"
         repeatCount="indefinite"
         />
   </path>
   <path
      d="M50.1019 5.13001C49.6978 4.23196 50.5659 3.36383 51.464 3.76796C51.6586 3.85776 51.8083 4.00744 51.8981 4.20202C52.3022 5.10008 51.4341 5.9682 50.536 5.56407C50.3414 5.47427 50.1917 5.32459 50.1019 5.13001Z"
      fill="white"
      fillOpacity="0.2"
      >
      <animate
         attributeName="fill-opacity"
         values="0;1;0"
         dur="2s"
         repeatCount="indefinite"
         />
   </path>
   <path
      d="M688.102 417.13C687.698 416.232 688.566 415.364 689.464 415.768C689.659 415.858 689.808 416.007 689.898 416.202C690.302 417.1 689.434 417.968 688.536 417.564C688.341 417.474 688.192 417.325 688.102 417.13Z"
      fill="white"
      fillOpacity="0.2"
      >
      <animate
         attributeName="fill-opacity"
         values="0;1;0"
         dur="3.1s"
         repeatCount="indefinite"
         />
   </path>
   <path
      d="M500.102 421.13C499.698 420.232 500.566 419.364 501.464 419.768C501.659 419.858 501.808 420.007 501.898 420.202C502.302 421.1 501.434 421.968 500.536 421.564C500.341 421.474 500.192 421.325 500.102 421.13Z"
      fill="white"
      fillOpacity="0.2"
      >
      <animate
         attributeName="fill-opacity"
         values="0;1;0"
         dur="2.5s"
         repeatCount="indefinite"
         />
   </path>
   <path
      d="M758.102 449.126C757.699 448.23 758.564 447.365 759.46 447.768C759.654 447.857 759.803 448.007 759.893 448.201C760.311 449.096 759.43 449.977 758.535 449.559C758.34 449.469 758.191 449.32 758.102 449.126Z"
      fill="white"
      fillOpacity="0.2"
      >
      <animate
         attributeName="fill-opacity"
         values="0;1;0"
         dur="2s"
         repeatCount="indefinite"
         />
   </path>
   <path
      d="M95.1517 394.724C94.7476 393.826 95.6157 392.958 96.5138 393.362C96.7084 393.452 96.8581 393.601 96.9479 393.796C97.352 394.694 96.4839 395.562 95.5858 395.158C95.3912 395.068 95.2416 394.918 95.1517 394.724Z"
      fill="#FFD334"
      >
      <animate
         attributeName="fill-opacity"
         values="0;1;0"
         dur="2.2s"
         repeatCount="indefinite"
         />
   </path>
   <path
      d="M436.102 443.13C435.698 442.232 436.566 441.364 437.464 441.768C437.659 441.858 437.808 442.007 437.898 442.202C438.302 443.1 437.434 443.968 436.536 443.564C436.341 443.474 436.192 443.325 436.102 443.13Z"
      fill="white"
      fillOpacity="0.2"
      >
      <animate
         attributeName="fill-opacity"
         values="0;1;0"
         dur="2s"
         repeatCount="indefinite"
         />
   </path>
   <path
      d="M572.102 501.13C571.698 500.232 572.566 499.364 573.464 499.768C573.659 499.858 573.808 500.007 573.898 500.202C574.302 501.1 573.434 501.968 572.536 501.564C572.341 501.474 572.192 501.325 572.102 501.13Z"
      fill="white"
      fillOpacity="0.4"
      >
      <animate
         attributeName="fill-opacity"
         values="0;1;0"
         dur="2.4s"
         repeatCount="indefinite"
         />
   </path>
   <path
      d="M815.265 364.652C814.861 363.753 815.729 362.885 816.627 363.289C816.822 363.379 816.971 363.529 817.061 363.724C817.465 364.622 816.597 365.49 815.699 365.086C815.505 364.996 815.355 364.846 815.265 364.652Z"
      fill="white"
      fillOpacity="0.4"
      >
      <animate
         attributeName="fill-opacity"
         values="0;1;0"
         dur="2s"
         repeatCount="indefinite"
         />
   </path>
   <path
      d="M815.265 364.652C814.861 363.753 815.729 362.885 816.627 363.289C816.822 363.379 816.971 363.529 817.061 363.724C817.465 364.622 816.597 365.49 815.699 365.086C815.505 364.996 815.355 364.846 815.265 364.652Z"
      fill="#FF808D"
      >
      <animate
         attributeName="fill-opacity"
         values="0;1;0"
         dur="2.8s"
         repeatCount="indefinite"
         />
   </path>
   <path
      d="M332.102 453.13C331.698 452.232 332.566 451.364 333.464 451.768C333.659 451.858 333.808 452.007 333.898 452.202C334.302 453.1 333.434 453.968 332.536 453.564C332.341 453.474 332.192 453.325 332.102 453.13Z"
      fill="white"
      fillOpacity="0.4"
      >
      <animate
         attributeName="fill-opacity"
         values="0;1;0"
         dur="2s"
         repeatCount="indefinite"
         />
   </path>
   <path
      d="M1042.78 377.097C1042.38 376.199 1043.24 375.331 1044.14 375.735C1044.33 375.825 1044.48 375.974 1044.57 376.169C1044.99 377.067 1044.11 377.935 1043.21 377.531C1043.02 377.441 1042.87 377.291 1042.78 377.097Z"
      fill="white"
      fillOpacity="0.2"
      >
      <animate
         attributeName="fill-opacity"
         values="0;1;0"
         dur="1.8s"
         repeatCount="indefinite"
         />
   </path>
   <path
      d="M973.889 351.605C973.471 350.707 974.352 349.838 975.248 350.243C975.442 350.332 975.591 350.482 975.681 350.677C976.084 351.575 975.218 352.443 974.322 352.039C974.128 351.949 973.979 351.799 973.889 351.605Z"
      fill="#AC5EFA"
      >
      <animate
         attributeName="fill-opacity"
         values="0;1;0"
         dur="3s"
         repeatCount="indefinite"
         />
   </path>
   <path
      d="M1225.79 376.46C1225.38 375.562 1226.25 374.694 1227.15 375.098C1227.34 375.188 1227.49 375.338 1227.58 375.532C1227.99 376.43 1227.12 377.298 1226.22 376.894C1226.03 376.804 1225.88 376.655 1225.79 376.46Z"
      fill="white"
      fillOpacity="0.2"
      >
      <animate
         attributeName="fill-opacity"
         values="0;1;0"
         dur="2.3s"
         repeatCount="indefinite"
         />
   </path>
   <path
      d="M1225.79 376.46C1225.38 375.562 1226.25 374.694 1227.15 375.098C1227.34 375.188 1227.49 375.338 1227.58 375.532C1227.99 376.43 1227.12 377.298 1226.22 376.894C1226.03 376.804 1225.88 376.655 1225.79 376.46Z"
      fill="#AC5EFA"
      >
      <animate
         attributeName="fill-opacity"
         values="0;1;0"
         dur="2s"
         repeatCount="indefinite"
         />
   </path>
   <path
      d="M848.102 443.13C847.698 442.232 848.566 441.364 849.464 441.768C849.659 441.858 849.808 442.007 849.898 442.202C850.302 443.1 849.434 443.968 848.536 443.564C848.341 443.474 848.192 443.325 848.102 443.13Z"
      fill="white"
      fillOpacity="0.2"
      >
      <animate
         attributeName="fill-opacity"
         values="0;1;0"
         dur="2.5s"
         repeatCount="indefinite"
         />
   </path>
   <path
      d="M1278.2 79.13C1278.6 78.232 1277.73 77.3638 1276.83 77.768C1276.64 77.8578 1276.49 78.0074 1276.4 78.202C1276 79.1001 1276.86 79.9682 1277.76 79.5641C1277.96 79.4743 1278.11 79.3246 1278.2 79.13Z"
      fill="white"
      fillOpacity="0.2"
      >
      <animate
         attributeName="fill-opacity"
         values="0;1;0"
         dur="2s"
         repeatCount="indefinite"
         />
   </path>
   <path
      d="M1278.2 79.13C1278.6 78.232 1277.73 77.3638 1276.83 77.768C1276.64 77.8578 1276.49 78.0074 1276.4 78.202C1276 79.1001 1276.86 79.9682 1277.76 79.5641C1277.96 79.4743 1278.11 79.3246 1278.2 79.13Z"
      fill="#FFD334"
      >
      <animate
         attributeName="fill-opacity"
         values="0;1;0"
         dur="2.8s"
         repeatCount="indefinite"
         />
   </path>
   <path
      d="M1014.11 63.4855C1013.69 62.5874 1014.57 61.7193 1015.47 62.1234C1015.66 62.2132 1015.81 62.3629 1015.9 62.5575C1016.3 63.4555 1015.44 64.3237 1014.54 63.9195C1014.35 63.8297 1014.2 63.6801 1014.11 63.4855Z"
      fill="white"
      fillOpacity="0.4"
      >
      <animate
         attributeName="fill-opacity"
         values="0;1;0"
         dur="2s"
         repeatCount="indefinite"
         />
   </path>
   <path
      d="M1184.46 253.153C1184.05 252.255 1184.93 251.387 1185.82 251.791C1186.02 251.881 1186.17 252.031 1186.26 252.225C1186.66 253.124 1185.79 253.992 1184.9 253.588C1184.7 253.498 1184.55 253.348 1184.46 253.153Z"
      fill="white"
      fillOpacity="0.2"
      >
      <animate
         attributeName="fill-opacity"
         values="0;1;0"
         dur="1.8s"
         repeatCount="indefinite"
         />
   </path>
   <path
      d="M840.786 214.865C841.204 213.967 840.323 213.099 839.427 213.503C839.233 213.593 839.084 213.743 838.994 213.937C838.591 214.835 839.457 215.704 840.353 215.299C840.547 215.21 840.696 215.06 840.786 214.865Z"
      fill="white"
      fillOpacity="0.2"
      >
      <animate
         attributeName="fill-opacity"
         values="0;1;0"
         dur="2s"
         repeatCount="indefinite"
         />
   </path>
   <path
      d="M904.53 29.13C904.934 28.232 904.066 27.3638 903.168 27.768C902.973 27.8578 902.824 28.0074 902.734 28.202C902.33 29.1001 903.198 29.9682 904.096 29.5641C904.29 29.4743 904.44 29.3246 904.53 29.13Z"
      fill="white"
      fillOpacity="0.2"
      >
      <animate
         attributeName="fill-opacity"
         values="0;1;0"
         dur="1.6s"
         repeatCount="indefinite"
         />
   </path>
   <path
      d="M405.893 147.13C406.311 146.232 405.43 145.364 404.535 145.768C404.341 145.858 404.191 146.007 404.102 146.202C403.699 147.1 404.564 147.968 405.46 147.564C405.654 147.474 405.803 147.325 405.893 147.13Z"
      fill="white"
      fillOpacity="0.2"
      >
      <animate
         attributeName="fill-opacity"
         values="0;1;0"
         dur="2s"
         repeatCount="indefinite"
         />
   </path>
   <path
      d="M744.525 291.13C744.943 290.232 744.062 289.364 743.166 289.768C742.972 289.858 742.823 290.007 742.734 290.202C742.33 291.1 743.196 291.968 744.092 291.564C744.286 291.474 744.435 291.325 744.525 291.13Z"
      fill="white"
      fillOpacity="0.2"
      >
      <animate
         attributeName="fill-opacity"
         values="0;1;0"
         dur="2.5s"
         repeatCount="indefinite"
         />
   </path>
   <path
      d="M1060.53 325.13C1060.93 324.232 1060.07 323.364 1059.17 323.768C1058.98 323.858 1058.83 324.007 1058.74 324.202C1058.32 325.1 1059.2 325.968 1060.1 325.564C1060.29 325.474 1060.44 325.325 1060.53 325.13Z"
      fill="white"
      fillOpacity="0.2"
      >
      <animate
         attributeName="fill-opacity"
         values="0;1;0"
         dur="2s"
         repeatCount="indefinite"
         />
   </path>
   <path
      d="M302.499 223.178C302.902 222.28 302.036 221.412 301.14 221.816C300.946 221.906 300.797 222.055 300.708 222.25C300.29 223.148 301.17 224.016 302.066 223.612C302.26 223.522 302.409 223.372 302.499 223.178Z"
      fill="white"
      fillOpacity="0.2"
      >
      <animate
         attributeName="fill-opacity"
         values="0;1;0"
         dur="3.1s"
         repeatCount="indefinite"
         />
   </path>
   <path
      d="M528.727 352.106C529.13 351.208 528.265 350.339 527.369 350.744C527.175 350.833 527.026 350.983 526.936 351.178C526.518 352.076 527.399 352.944 528.295 352.54C528.489 352.45 528.638 352.3 528.727 352.106Z"
      fill="white"
      fillOpacity="0.2"
      >
      <animate
         attributeName="fill-opacity"
         values="0;1;0"
         dur="3.5s"
         repeatCount="indefinite"
         />
   </path>
   <path
      d="M528.727 352.106C529.13 351.208 528.265 350.339 527.369 350.744C527.175 350.833 527.026 350.983 526.936 351.178C526.518 352.076 527.399 352.944 528.295 352.54C528.489 352.45 528.638 352.3 528.727 352.106Z"
      fill="#FF808D"
      >
      <animate
         attributeName="fill-opacity"
         values="0;1;0"
         dur="2s"
         repeatCount="indefinite"
         />
   </path>
   <path
      d="M914.096 93.773C913.198 93.355 912.33 94.2358 912.734 95.1314C912.824 95.3255 912.973 95.4748 913.168 95.5643C914.066 95.9674 914.934 95.1016 914.53 94.2059C914.44 94.0119 914.29 93.8626 914.096 93.773Z"
      fill="white"
      fillOpacity="0.2"
      >
      <animate
         attributeName="fill-opacity"
         values="0;1;0"
         dur="2.5s"
         repeatCount="indefinite"
         />
   </path>
   <path
      d="M191.898 74.0265C192.301 73.1284 191.436 72.2603 190.54 72.6644C190.346 72.7543 190.197 72.9039 190.107 73.0985C189.689 73.9966 190.57 74.8647 191.465 74.4606C191.659 74.3708 191.809 74.2211 191.898 74.0265Z"
      fill="#AC5EFA"
      >
      <animate
         attributeName="fill-opacity"
         values="0;1;0"
         dur="2s"
         repeatCount="indefinite"
         />
   </path>
   <path
      d="M272.674 14.3859C273.092 13.4878 272.211 12.6197 271.316 13.0238C271.122 13.1136 270.972 13.2633 270.883 13.4579C270.48 14.356 271.346 15.2241 272.241 14.8199C272.435 14.7301 272.585 14.5805 272.674 14.3859Z"
      fill="white"
      fillOpacity="0.2"
      >
      <animate
         attributeName="fill-opacity"
         values="0;1;0"
         dur="2.3s"
         repeatCount="indefinite"
         />
   </path>
   <path
      d="M836.669 344.152C837.073 343.254 836.205 342.386 835.307 342.79C835.112 342.88 834.962 343.03 834.872 343.224C834.468 344.123 835.336 344.991 836.235 344.587C836.429 344.497 836.579 344.347 836.669 344.152Z"
      fill="white"
      fillOpacity="0.2"
      >
      <animate
         attributeName="fill-opacity"
         values="0;1;0"
         dur="2s"
         repeatCount="indefinite"
         />
   </path>
   <path
      d="M431.308 1.46399C430.89 0.565934 431.771 -0.302183 432.667 0.101944C432.861 0.19175 433.01 0.341427 433.1 0.536007C433.503 1.43407 432.637 2.30218 431.741 1.89806C431.547 1.80825 431.398 1.65857 431.308 1.46399Z"
      fill="white"
      fillOpacity="0.4"
      >
      <animate
         attributeName="fill-opacity"
         values="0;1;0"
         dur="2.6s"
         repeatCount="indefinite"
         />
   </path>
   <path
      d="M431.308 1.46399C430.89 0.565934 431.771 -0.302183 432.667 0.101944C432.861 0.19175 433.01 0.341427 433.1 0.536007C433.503 1.43407 432.637 2.30218 431.741 1.89806C431.547 1.80825 431.398 1.65857 431.308 1.46399Z"
      fill="#FF808D"
      >
      <animate
         attributeName="fill-opacity"
         values="0;1;0"
         dur="1.4s"
         repeatCount="indefinite"
         />
   </path>
   <path
      d="M916.734 191.13C916.33 190.232 917.196 189.364 918.092 189.768C918.286 189.858 918.435 190.007 918.525 190.202C918.943 191.1 918.062 191.968 917.166 191.564C916.972 191.474 916.823 191.325 916.734 191.13Z"
      fill="white"
      fillOpacity="0.2"
      >
      <animate
         attributeName="fill-opacity"
         values="0;1;0"
         dur="2s"
         repeatCount="indefinite"
         />
   </path>
   <path
      d="M869.603 134.473C869.185 133.575 870.066 132.707 870.962 133.111C871.156 133.201 871.305 133.35 871.394 133.545C871.797 134.443 870.932 135.311 870.036 134.907C869.842 134.817 869.693 134.667 869.603 134.473Z"
      fill="white"
      fillOpacity="0.4"
      >
      <animate
         attributeName="fill-opacity"
         values="0;1;0"
         dur="1.6s"
         repeatCount="indefinite"
         />
   </path>
   <path
      d="M869.603 134.473C869.185 133.575 870.066 132.707 870.962 133.111C871.156 133.201 871.305 133.35 871.394 133.545C871.797 134.443 870.932 135.311 870.036 134.907C869.842 134.817 869.693 134.667 869.603 134.473Z"
      fill="#FFD334"
      >
      <animate
         attributeName="fill-opacity"
         values="0;1;0"
         dur="2s"
         repeatCount="indefinite"
         />
   </path>
   <path
      d="M956.591 279.042C956.188 278.144 957.054 277.276 957.949 277.68C958.143 277.77 958.293 277.92 958.382 278.114C958.8 279.012 957.919 279.88 957.024 279.476C956.83 279.386 956.68 279.237 956.591 279.042Z"
      fill="white"
      fillOpacity="0.2"
      >
      <animate
         attributeName="fill-opacity"
         values="0;1;0"
         dur="2s"
         repeatCount="indefinite"
         />
   </path>
   <path
      d="M1046.77 210.029C1045.88 210.433 1045.01 209.565 1045.41 208.667C1045.5 208.472 1045.65 208.323 1045.85 208.233C1046.74 207.829 1047.61 208.697 1047.21 209.595C1047.12 209.789 1046.97 209.939 1046.77 210.029Z"
      fill="white"
      fillOpacity="0.4"
      >
      <animate
         attributeName="fill-opacity"
         values="0;1;0"
         dur="2.3s"
         repeatCount="indefinite"
         />
   </path>
   <path
      d="M1046.77 210.029C1045.88 210.433 1045.01 209.565 1045.41 208.667C1045.5 208.472 1045.65 208.323 1045.85 208.233C1046.74 207.829 1047.61 208.697 1047.21 209.595C1047.12 209.789 1046.97 209.939 1046.77 210.029Z"
      fill="#FF808D"
      >
      <animate
         attributeName="fill-opacity"
         values="0;1;0"
         dur="2s"
         repeatCount="indefinite"
         />
   </path>
   <path
      d="M998.096 145.559C997.198 145.977 996.33 145.096 996.734 144.201C996.824 144.007 996.973 143.857 997.168 143.768C998.066 143.365 998.934 144.23 998.53 145.126C998.44 145.32 998.29 145.469 998.096 145.559Z"
      fill="white"
      fillOpacity="0.2"
      >
      <animate
         attributeName="fill-opacity"
         values="0;1;0"
         dur="2.4s"
         repeatCount="indefinite"
         />
   </path>
   <path
      d="M588.739 259.131C588.321 258.236 589.202 257.355 590.097 257.773C590.291 257.863 590.441 258.012 590.53 258.206C590.933 259.102 590.067 259.967 589.172 259.564C588.978 259.475 588.828 259.326 588.739 259.131Z"
      fill="white"
      fillOpacity="0.2"
      >
      <animate
         attributeName="fill-opacity"
         values="0;1;0"
         dur="2s"
         repeatCount="indefinite"
         />
   </path>
   <path
      d="M452.011 54.1456C451.607 53.2476 452.475 52.3795 453.373 52.7836C453.568 52.8734 453.717 53.0231 453.807 53.2177C454.211 54.1157 453.343 54.9838 452.445 54.5797C452.251 54.4899 452.101 54.3402 452.011 54.1456Z"
      fill="white"
      fillOpacity="0.4"
      >
      <animate
         attributeName="fill-opacity"
         values="0;1;0"
         dur="2.8s"
         repeatCount="indefinite"
         />
   </path>
   <path
      d="M346.734 81.13C346.33 80.232 347.196 79.3638 348.092 79.768C348.286 79.8578 348.435 80.0075 348.525 80.202C348.943 81.1001 348.062 81.9682 347.166 81.5641C346.972 81.4743 346.823 81.3246 346.734 81.13Z"
      fill="white"
      fillOpacity="0.2"
      >
      <animate
         attributeName="fill-opacity"
         values="0;1;0"
         dur="2s"
         repeatCount="indefinite"
         />
   </path>
   <path
      d="M463.571 124.847C463.153 123.949 464.034 123.081 464.929 123.485C465.123 123.575 465.273 123.724 465.362 123.919C465.765 124.817 464.899 125.685 464.004 125.281C463.81 125.191 463.66 125.041 463.571 124.847Z"
      fill="white"
      fillOpacity="0.2"
      >
      <animate
         attributeName="fill-opacity"
         values="0;1;0"
         dur="2.4s"
         repeatCount="indefinite"
         />
   </path>
   <path
      d="M242.102 117.126C241.699 116.23 242.564 115.365 243.46 115.768C243.654 115.857 243.803 116.007 243.893 116.201C244.311 117.096 243.43 117.977 242.535 117.559C242.341 117.469 242.191 117.32 242.102 117.126Z"
      fill="white"
      fillOpacity="0.2"
      >
      <animate
         attributeName="fill-opacity"
         values="0;1;0"
         dur="2.1s"
         repeatCount="indefinite"
         />
   </path>
   <path
      d="M618.25 330.174C617.846 329.276 618.714 328.408 619.612 328.812C619.807 328.902 619.957 329.051 620.046 329.246C620.451 330.144 619.583 331.012 618.684 330.608C618.49 330.518 618.34 330.369 618.25 330.174Z"
      fill="white"
      fillOpacity="0.2"
      >
      <animate
         attributeName="fill-opacity"
         values="0;1;0"
         dur="2s"
         repeatCount="indefinite"
         />
   </path>
   <path
      d="M1124.1 91.559C1123.2 91.977 1122.33 91.0963 1122.73 90.2006C1122.82 90.0065 1122.97 89.8573 1123.17 89.7677C1124.07 89.3646 1124.93 90.2304 1124.53 91.1261C1124.44 91.3202 1124.29 91.4694 1124.1 91.559Z"
      fill="white"
      fillOpacity="0.2"
      >
      <animate
         attributeName="fill-opacity"
         values="0;1;0"
         dur="1s"
         repeatCount="indefinite"
         />
   </path>
   <path
      d="M1124.1 91.559C1123.2 91.977 1122.33 91.0963 1122.73 90.2006C1122.82 90.0065 1122.97 89.8573 1123.17 89.7677C1124.07 89.3646 1124.93 90.2304 1124.53 91.1261C1124.44 91.3202 1124.29 91.4694 1124.1 91.559Z"
      fill="#AC5EFA"
      >
      <animate
         attributeName="fill-opacity"
         values="0;1;0"
         dur="2.5s"
         repeatCount="indefinite"
         />
   </path>
   <path
      d="M194.107 451.13C193.689 450.232 194.57 449.364 195.465 449.768C195.659 449.858 195.809 450.007 195.898 450.202C196.301 451.1 195.436 451.968 194.54 451.564C194.346 451.474 194.197 451.325 194.107 451.13Z"
      fill="white"
      fillOpacity="0.2"
      >
      <animate
         attributeName="fill-opacity"
         values="0;1;0"
         dur="2s"
         repeatCount="indefinite"
         />
   </path>
   <path
      d="M0.107005 441.13C-0.310977 440.232 0.569776 439.364 1.46545 439.768C1.65951 439.858 1.80876 440.007 1.89833 440.202C2.30138 441.1 1.43556 441.968 0.539882 441.564C0.345819 441.474 0.196572 441.325 0.107005 441.13Z"
      fill="white"
      fillOpacity="0.4"
      >
      <animate
         attributeName="fill-opacity"
         values="0;1;0"
         dur="2.5s"
         repeatCount="indefinite"
         />
   </path>
   <path
      d="M186.107 377.13C185.689 376.232 186.57 375.364 187.465 375.768C187.66 375.858 187.809 376.007 187.898 376.202C188.301 377.1 187.436 377.968 186.54 377.564C186.346 377.474 186.197 377.325 186.107 377.13Z"
      fill="white"
      fillOpacity="0.2"
      >
      <animate
         attributeName="fill-opacity"
         values="0;1;0"
         dur="2s"
         repeatCount="indefinite"
         />
   </path>
   <path
      d="M183.856 213.267C183.438 212.369 184.319 211.501 185.214 211.905C185.408 211.994 185.558 212.144 185.647 212.339C186.05 213.237 185.185 214.105 184.289 213.701C184.095 213.611 183.946 213.461 183.856 213.267Z"
      fill="white"
      fillOpacity="0.2"
      >
      <animate
         attributeName="fill-opacity"
         values="0;1;0"
         dur="1.8s"
         repeatCount="indefinite"
         />
   </path>
   <path
      d="M49.1693 333.918C48.7652 333.02 49.6333 332.152 50.5314 332.556C50.7259 332.646 50.8756 332.796 50.9654 332.99C51.3696 333.888 50.5014 334.756 49.6034 334.352C49.4088 334.262 49.2591 334.113 49.1693 333.918Z"
      fill="white"
      fillOpacity="0.2"
      >
      <animate
         attributeName="fill-opacity"
         values="0;1;0"
         dur="2s"
         repeatCount="indefinite"
         />
   </path>
</svg>