<svg width="266" height="103" viewBox="0 0 266 103" fill="none" xmlns="http://www.w3.org/2000/svg">
<path d="M265.631 13.5712C265.428 13.5712 265.263 13.7358 265.263 13.9389C265.263 14.142 265.428 14.3066 265.631 14.3066C265.835 14.3066 266 14.142 266 13.9389C266 13.7358 265.835 13.5712 265.631 13.5712Z" fill="white">
<animate
         attributeName="fill-opacity"
         values="0;1;0"
         dur="2.3s"
         repeatCount="indefinite"
         />
</path>
<path d="M19.9444 24.243C19.7408 24.243 19.5758 24.4076 19.5758 24.6107C19.5758 24.8137 19.7408 24.9784 19.9444 24.9784C20.1479 24.9784 20.3129 24.8137 20.3129 24.6107C20.3129 24.4076 20.1479 24.243 19.9444 24.243Z" fill="white">
<animate
         attributeName="fill-opacity"
         values="0;1;0"
         dur="2s"
         repeatCount="indefinite"
         />
</path>
<path d="M42.1351 81.1048C41.9316 81.1048 41.7666 81.2694 41.7666 81.4725C41.7666 81.6756 41.9316 81.8402 42.1351 81.8402C42.3386 81.8402 42.5037 81.6756 42.5037 81.4725C42.5037 81.2694 42.3386 81.1048 42.1351 81.1048Z" fill="white">
<animate
         attributeName="fill-opacity"
         values="0;1;0"
         dur="1.3s"
         repeatCount="indefinite"
         />
</path>
<path d="M76.8128 33.5209C76.6093 33.5209 76.4443 33.6855 76.4443 33.8886C76.4443 34.0916 76.6093 34.2563 76.8128 34.2563C77.0163 34.2563 77.1814 34.0916 77.1814 33.8886C77.1814 33.6855 77.0163 33.5209 76.8128 33.5209Z" fill="white">
<animate
         attributeName="fill-opacity"
         values="0;1;0"
         dur="2.5s"
         repeatCount="indefinite"
         />
</path>
<path d="M229.676 90.92C229.472 90.92 229.307 91.0846 229.307 91.2877C229.307 91.4907 229.472 91.6554 229.676 91.6554C229.88 91.6554 230.045 91.4907 230.045 91.2877C230.045 91.0846 229.88 90.92 229.676 90.92Z" fill="white">
<animate
         attributeName="fill-opacity"
         values="0;1;0"
         dur="2.0s"
         repeatCount="indefinite"
         />
</path>
<path d="M39.0186 54.1965C38.8151 54.1965 38.6501 54.3612 38.6501 54.5642C38.6501 54.7673 38.8151 54.9319 39.0186 54.9319C39.2222 54.9319 39.3872 54.7673 39.3872 54.5642C39.3872 54.3612 39.2222 54.1965 39.0186 54.1965Z" fill="white">
<animate
         attributeName="fill-opacity"
         values="0;1;0"
         dur="2.6s"
         repeatCount="indefinite"
         />
</path>
<path d="M35.8369 99.6741C35.6334 99.6741 35.4684 99.8387 35.4684 100.042C35.4684 100.245 35.6334 100.409 35.8369 100.409C36.0404 100.409 36.2054 100.245 36.2054 100.042C36.2054 99.8387 36.0404 99.6741 35.8369 99.6741Z" fill="white">
<animate
         attributeName="fill-opacity"
         values="0;1;0"
         dur="2.8s"
         repeatCount="indefinite"
         />
</path>
<path d="M191.489 0.689709C191.286 0.689709 191.121 0.85433 191.121 1.0574C191.121 1.26047 191.286 1.42509 191.489 1.42509C191.693 1.42509 191.858 1.26047 191.858 1.0574C191.858 0.85433 191.693 0.689709 191.489 0.689709Z" fill="white">
<animate
         attributeName="fill-opacity"
         values="0;1;0"
         dur="2.9s"
         repeatCount="indefinite"
         />
</path>
<path d="M234.862 68.128C234.658 68.128 234.493 68.2926 234.493 68.4957C234.493 68.6988 234.658 68.8634 234.862 68.8634C235.065 68.8634 235.23 68.6988 235.23 68.4957C235.23 68.2926 235.065 68.128 234.862 68.128Z" fill="white">
<animate
         attributeName="fill-opacity"
         values="0;1;0"
         dur="2.3s"
         repeatCount="indefinite"
         />
</path>
<path d="M196.389 27.339C196.185 27.339 196.02 27.5036 196.02 27.7067C196.02 27.9098 196.185 28.0744 196.389 28.0744C196.592 28.0744 196.757 27.9098 196.757 27.7067C196.757 27.5036 196.592 27.339 196.389 27.339Z" fill="white">
<animate
         attributeName="fill-opacity"
         values="0;1;0"
         dur="2.0s"
         repeatCount="indefinite"
         />
</path>
<path d="M69.6881 85.596C69.5523 85.596 69.4423 85.7058 69.4423 85.8412C69.4423 85.9766 69.5523 86.0864 69.6881 86.0864C69.8238 86.0864 69.9339 85.9766 69.9339 85.8412C69.9339 85.7058 69.8238 85.596 69.6881 85.596Z" fill="white">
<animate
         attributeName="fill-opacity"
         values="0;1;0"
         dur="1.8s"
         repeatCount="indefinite"
         />
</path>
<path d="M216.538 84.7847C216.402 84.7847 216.292 84.8945 216.292 85.0299C216.292 85.1653 216.402 85.2751 216.538 85.2751C216.674 85.2751 216.784 85.1653 216.784 85.0299C216.784 84.8945 216.674 84.7847 216.538 84.7847Z" fill="white">
<animate
         attributeName="fill-opacity"
         values="0;1;0"
         dur="1.5s"
         repeatCount="indefinite"
         />
</path>
<path d="M0.37988 101.279C0.244142 101.279 0.134104 101.389 0.134104 101.525C0.134104 101.66 0.244142 101.77 0.37988 101.77C0.515617 101.77 0.625653 101.66 0.625653 101.525C0.625653 101.389 0.515617 101.279 0.37988 101.279Z" fill="white">
<animate
         attributeName="fill-opacity"
         values="0;1;0"
         dur="2.1s"
         repeatCount="indefinite"
         />
</path>
<path d="M247.048 13.8899C246.912 13.8899 246.802 13.9997 246.802 14.1352C246.802 14.2706 246.912 14.3804 247.048 14.3804C247.184 14.3804 247.294 14.2706 247.294 14.1352C247.294 13.9997 247.184 13.8899 247.048 13.8899Z" fill="white">
<animate
         attributeName="fill-opacity"
         values="0;1;0"
         dur="2.5s"
         repeatCount="indefinite"
         />
</path>
<path d="M234.477 102.06C234.341 102.06 234.231 102.17 234.231 102.306C234.231 102.441 234.341 102.551 234.477 102.551C234.613 102.551 234.723 102.441 234.723 102.306C234.723 102.17 234.613 102.06 234.477 102.06Z" fill="white">
<animate
         attributeName="fill-opacity"
         values="0;1;0"
         dur="2.3s"
         repeatCount="indefinite"
         />
</path>
<path d="M89.9169 0C89.7812 0 89.6712 0.109787 89.6712 0.245216C89.6712 0.380645 89.7812 0.490433 89.9169 0.490433C90.0527 0.490433 90.1627 0.380645 90.1627 0.245216C90.1627 0.109787 90.0527 0 89.9169 0Z" fill="white">
<animate
         attributeName="fill-opacity"
         values="0;1;0"
         dur="2.8s"
         repeatCount="indefinite"
         />
</path>
<path d="M190.766 92.5838C190.63 92.5838 190.52 92.6936 190.52 92.829C190.52 92.9644 190.63 93.0742 190.766 93.0742C190.902 93.0742 191.012 92.9644 191.012 92.829C191.012 92.6936 190.902 92.5838 190.766 92.5838Z" fill="white">
<animate
         attributeName="fill-opacity"
         values="0;1;0"
         dur="2.1s"
         repeatCount="indefinite"
         />
</path>
<path d="M77.3008 68.9152C77.165 68.9152 77.055 69.025 77.055 69.1604C77.055 69.2958 77.165 69.4056 77.3008 69.4056C77.4365 69.4056 77.5466 69.2958 77.5466 69.1604C77.5466 69.025 77.4365 68.9152 77.3008 68.9152Z" fill="white">
<animate
         attributeName="fill-opacity"
         values="0;1;0"
         dur="2.3s"
         repeatCount="indefinite"
         />
</path>
<path d="M260.912 79.8029C260.776 79.8029 260.666 79.9127 260.666 80.0482C260.666 80.1836 260.776 80.2934 260.912 80.2934C261.047 80.2934 261.158 80.1836 261.158 80.0482C261.158 79.9127 261.047 79.8029 260.912 79.8029Z" fill="white">
<animate
         attributeName="fill-opacity"
         values="0;1;0"
         dur="1.8s"
         repeatCount="indefinite"
         />
</path>
<path d="M236.245 41.588C236.11 41.588 236 41.6978 236 41.8332C236 41.9686 236.11 42.0784 236.245 42.0784C236.381 42.0784 236.491 41.9686 236.491 41.8332C236.491 41.6978 236.381 41.588 236.245 41.588Z" fill="white">
<animate
         attributeName="fill-opacity"
         values="0;1;0"
         dur="2.3s"
         repeatCount="indefinite"
         />
</path>
<path d="M99.9108 10.3551C99.7751 10.3551 99.6651 10.4649 99.6651 10.6003C99.6651 10.7358 99.7751 10.8455 99.9108 10.8455C100.047 10.8455 100.157 10.7358 100.157 10.6003C100.157 10.4649 100.047 10.3551 99.9108 10.3551Z" fill="white">
<animate
         attributeName="fill-opacity"
         values="0;1;0"
         dur="2s"
         repeatCount="indefinite"
         />
</path>
<path d="M216.029 26.7384C215.893 26.7384 215.783 26.8482 215.783 26.9836C215.783 27.1191 215.893 27.2289 216.029 27.2289C216.165 27.2289 216.275 27.1191 216.275 26.9836C216.275 26.8482 216.165 26.7384 216.029 26.7384Z" fill="white">
<animate
         attributeName="fill-opacity"
         values="0;1;0"
         dur="3s"
         repeatCount="indefinite"
         />
</path>
<path d="M0.245774 7.55082C0.110037 7.55082 0 7.66061 0 7.79604C0 7.93147 0.110037 8.04125 0.245774 8.04125C0.381512 8.04125 0.491549 7.93147 0.491549 7.79604C0.491549 7.66061 0.381512 7.55082 0.245774 7.55082Z" fill="white">
<animate
         attributeName="fill-opacity"
         values="0;1;0"
         dur="2.5s"
         repeatCount="indefinite"
         />
</path>
<path d="M196.985 73.1518C196.849 73.1518 196.739 73.2616 196.739 73.397C196.739 73.5324 196.849 73.6422 196.985 73.6422C197.121 73.6422 197.231 73.5324 197.231 73.397C197.231 73.2616 197.121 73.1518 196.985 73.1518Z" fill="white">
<animate
         attributeName="fill-opacity"
         values="0;1;0"
         dur="2.3s"
         repeatCount="indefinite"
         />
</path>
<path d="M45.0692 17.9152C44.9334 17.9152 44.8234 18.025 44.8234 18.1604C44.8234 18.2958 44.9334 18.4056 45.0692 18.4056C45.2049 18.4056 45.315 18.2958 45.315 18.1604C45.315 18.025 45.2049 17.9152 45.0692 17.9152Z" fill="white">
<animate
         attributeName="fill-opacity"
         values="0;1;0"
         dur="1.6s"
         repeatCount="indefinite"
         />
</path>
<path d="M16.0006 79.8771C15.8648 79.8771 15.7548 79.9869 15.7548 80.1223C15.7548 80.2578 15.8648 80.3676 16.0006 80.3676C16.1363 80.3676 16.2463 80.2578 16.2463 80.1223C16.2463 79.9869 16.1363 79.8771 16.0006 79.8771Z" fill="white">
<animate
         attributeName="fill-opacity"
         values="0;1;0"
         dur="2.3s"
         repeatCount="indefinite"
         />
</path>
<path d="M203.121 56.2158C202.985 56.2158 202.875 56.3256 202.875 56.461C202.875 56.5965 202.985 56.7062 203.121 56.7062C203.257 56.7062 203.367 56.5965 203.367 56.461C203.367 56.3256 203.257 56.2158 203.121 56.2158Z" fill="white">
<animate
         attributeName="fill-opacity"
         values="0;1;0"
         dur="2s"
         repeatCount="indefinite"
         />
</path>
</svg>
