<svg width="17" height="17" viewBox="0 0 17 17" fill="none" xmlns="http://www.w3.org/2000/svg">
<path d="M8.83463 15.1667C12.5165 15.1667 15.5013 12.1819 15.5013 8.50004C15.5013 4.81814 12.5165 1.83337 8.83463 1.83337C5.15274 1.83337 2.16797 4.81814 2.16797 8.50004C2.16797 12.1819 5.15274 15.1667 8.83463 15.1667Z" fill="#1769FF"/>
<path d="M7.16199 5.83337C7.39249 5.83337 7.60543 5.85094 7.80083 5.90361C7.99619 5.93874 8.15646 6.01121 8.29916 6.09901C8.44186 6.18681 8.54723 6.31194 8.61966 6.47221C8.68993 6.63247 8.72723 6.82784 8.72723 7.04081C8.72723 7.28887 8.67456 7.50181 8.54943 7.66207C8.44186 7.82231 8.26623 7.96501 8.05109 8.07041C8.35403 8.15821 8.58453 8.31847 8.72503 8.53141C8.86553 8.74434 8.95556 9.00997 8.95556 9.31294C8.95556 9.56101 8.90286 9.77394 8.81286 9.95177C8.72503 10.1296 8.58236 10.2898 8.42209 10.3952C8.26183 10.5028 8.06646 10.5906 7.85349 10.6433C7.64056 10.696 7.42763 10.7311 7.21466 10.7311L4.83496 10.7355V5.83337H7.16199ZM7.01929 7.82231C7.21466 7.82231 7.37493 7.76964 7.49786 7.67964C7.62079 7.58961 7.67569 7.43154 7.67569 7.23617C7.67569 7.12861 7.65813 7.02324 7.62299 6.95297C7.58786 6.88274 7.53519 6.82784 7.46273 6.77517C7.39249 6.74004 7.32006 6.70491 7.23223 6.68734C7.14443 6.66977 7.05443 6.66977 6.94903 6.66977H5.91943V7.82451C5.91943 7.82231 7.01929 7.82231 7.01929 7.82231ZM7.07199 9.91884C7.17956 9.91884 7.28493 9.90127 7.37493 9.88371C7.46273 9.86614 7.55276 9.83104 7.62299 9.77614C7.69326 9.72127 7.74813 9.66857 7.80083 9.58077C7.83596 9.49294 7.87106 9.38537 7.87106 9.26024C7.87106 9.01217 7.80083 8.83437 7.65813 8.70924C7.51543 8.60164 7.32006 8.54897 7.08953 8.54897H5.91943V9.91664H7.07199V9.91884Z" fill="white"/>
<path d="M10.5006 9.90119C10.6433 10.0439 10.8563 10.1142 11.1395 10.1142C11.3349 10.1142 11.5127 10.0615 11.6554 9.97145C11.7981 9.86389 11.8859 9.75852 11.921 9.65092H12.7903C12.6477 10.0768 12.4347 10.3798 12.1515 10.5752C11.8683 10.753 11.5302 10.8584 11.1219 10.8584C10.8387 10.8584 10.5885 10.8057 10.3579 10.7157C10.1274 10.6279 9.94963 10.5027 9.78936 10.3249C9.62909 10.1646 9.50616 9.96925 9.43373 9.73875C9.34589 9.50825 9.30859 9.26015 9.30859 8.97479C9.30859 8.70915 9.34369 8.45889 9.43373 8.22839C9.52373 7.99785 9.64666 7.80249 9.80693 7.62465C9.96719 7.46442 10.1626 7.32172 10.3755 7.23389C10.606 7.14609 10.8365 7.09122 11.1219 7.09122C11.4249 7.09122 11.6905 7.14389 11.921 7.26902C12.1515 7.39415 12.3293 7.53465 12.472 7.74759C12.6147 7.94299 12.7201 8.17349 12.7925 8.42155C12.8277 8.66962 12.8452 8.91989 12.8277 9.20309H10.2526C10.2526 9.49289 10.3579 9.75852 10.5006 9.90119ZM11.6202 8.03519C11.4951 7.91005 11.2997 7.83982 11.0692 7.83982C10.909 7.83982 10.786 7.87492 10.6785 7.92762C10.5709 7.98032 10.5006 8.05275 10.4304 8.12299C10.3601 8.19325 10.3228 8.28325 10.3053 8.37109C10.2877 8.45889 10.2701 8.53132 10.2701 8.60159H11.8683C11.8332 8.33815 11.7432 8.16032 11.6202 8.03519ZM10.0572 6.17139H12.0461V6.64995H10.0572V6.17139Z" fill="white"/>
</svg>
