<svg width="26" height="26" viewBox="0 0 26 26" fill="none" xmlns="http://www.w3.org/2000/svg">
<path d="M13 19.4975C16.5898 19.4975 19.5 16.5874 19.5 12.9975C19.5 9.4077 16.5898 6.49756 13 6.49756C9.41014 6.49756 6.5 9.4077 6.5 12.9975C6.5 16.5874 9.41014 19.4975 13 19.4975Z" fill="white"/>
<path d="M12.9995 6.50002H24.2559C23.1153 4.52368 21.4744 2.8825 19.4983 1.74148C17.5222 0.600466 15.2805 -0.00015918 12.9986 3.1644e-08C10.7167 0.000159243 8.47512 0.601097 6.49916 1.74239C4.5232 2.88368 2.88256 4.52509 1.74219 6.50159L7.37042 16.25L7.37546 16.2487C6.80292 15.2614 6.50078 14.1406 6.4995 12.9993C6.49821 11.858 6.79783 10.7365 7.36815 9.7479C7.93847 8.7593 8.75933 7.93853 9.74799 7.36832C10.7366 6.79811 11.8582 6.49861 12.9995 6.50002Z" fill="url(#paint0_linear_133_10670)"/>
<path d="M13.0013 18.1457C15.8433 18.1457 18.1471 15.8418 18.1471 12.9998C18.1471 10.1579 15.8433 7.854 13.0013 7.854C10.1593 7.854 7.85547 10.1579 7.85547 12.9998C7.85547 15.8418 10.1593 18.1457 13.0013 18.1457Z" fill="#1A73E8"/>
<path d="M18.6286 16.2513L13.0004 25.9998C15.2822 26.0001 17.524 25.3996 19.5002 24.2587C21.4764 23.1179 23.1173 21.4768 24.2581 19.5006C25.3989 17.5243 25.9993 15.2826 25.9989 13.0007C25.9985 10.7188 25.3973 8.4773 24.2558 6.50146H12.9994L12.998 6.5065C14.1394 6.5043 15.2611 6.80303 16.2501 7.37256C17.2392 7.9421 18.0606 8.76232 18.6316 9.75053C19.2026 10.7387 19.503 11.86 19.5024 13.0013C19.5019 14.1426 19.2005 15.2637 18.6286 16.2513Z" fill="url(#paint1_linear_133_10670)"/>
<path d="M7.3704 16.2513L1.74217 6.50293C0.600948 8.47893 8.50476e-05 10.7206 9.02773e-09 13.0024C-8.50295e-05 15.2843 0.60061 17.526 1.74169 19.5021C2.88276 21.4782 4.52399 23.119 6.50036 24.2596C8.47672 25.4002 10.7186 26.0003 13.0004 25.9997L18.6287 16.2512L18.625 16.2476C18.0563 17.237 17.2367 18.0591 16.2489 18.6309C15.2612 19.2026 14.1401 19.5039 12.9988 19.5043C11.8575 19.5047 10.7363 19.2042 9.74811 18.6331C8.75996 18.062 7.93984 17.2405 7.3704 16.2513Z" fill="url(#paint2_linear_133_10670)"/>
<defs>
<linearGradient id="paint0_linear_133_10670" x1="1.74219" y1="8.12501" x2="24.2559" y2="8.12501" gradientUnits="userSpaceOnUse">
<stop stop-color="#D93025"/>
<stop offset="1" stop-color="#EA4335"/>
</linearGradient>
<linearGradient id="paint1_linear_133_10670" x1="11.2244" y1="25.8259" x2="22.4813" y2="6.32846" gradientUnits="userSpaceOnUse">
<stop stop-color="#FCC934"/>
<stop offset="1" stop-color="#FBBC04"/>
</linearGradient>
<linearGradient id="paint2_linear_133_10670" x1="14.4064" y1="25.188" x2="3.14947" y2="5.69043" gradientUnits="userSpaceOnUse">
<stop stop-color="#1E8E3E"/>
<stop offset="1" stop-color="#34A853"/>
</linearGradient>
</defs>
</svg>
