<svg width="24" height="24" viewBox="0 0 24 24" fill="none" xmlns="http://www.w3.org/2000/svg">
<mask id="mask0_133_10571" style="mask-type:luminance" maskUnits="userSpaceOnUse" x="0" y="0" width="24" height="24">
<path d="M0 24H24.0002V-0.000263214H0V24Z" fill="white"/>
</mask>
<g mask="url(#mask0_133_10571)">
<path d="M11 9.40332C11 10.2853 10.285 11 9.40332 11H1.59668C0.714667 11 0 10.2853 0 9.40332V1.59668C0 0.714667 0.714667 0 1.59668 0H9.40332C10.285 0 11 0.714667 11 1.59668V9.40332Z" fill="#424969"/>
<path d="M24 9.40332C24 10.2853 23.285 11 22.4033 11H14.5967C13.715 11 13 10.2853 13 9.40332V1.59668C13 0.714667 13.715 0 14.5967 0H22.4033C23.285 0 24 0.714667 24 1.59668V9.40332Z" fill="#424969"/>
<path d="M11 22.4033C11 23.2853 10.285 24 9.40332 24H1.59668C0.714667 24 0 23.2853 0 22.4033V14.5967C0 13.715 0.714667 13 1.59668 13H9.40332C10.285 13 11 13.715 11 14.5967V22.4033Z" fill="#424969"/>
<path d="M24 22.4033C24 23.2853 23.285 24 22.4033 24H14.5967C13.715 24 13 23.2853 13 22.4033V14.5967C13 13.7147 13.715 13 14.5967 13H22.4033C23.285 13 24 13.7147 24 14.5967V22.4033Z" fill="#424969"/>
<path d="M18.3598 3.99142C17.8471 3.99142 17.4263 4.15293 17.096 4.47559C16.766 4.79825 16.6011 5.21009 16.6011 5.71113C16.6011 6.19755 16.7668 6.60153 17.0975 6.92418C17.4285 7.24684 17.843 7.40835 18.3405 7.40835C18.8398 7.40835 19.2573 7.24384 19.5913 6.91481C19.9257 6.58541 20.0925 6.17581 20.0925 5.68527C20.0925 5.20784 19.9257 4.80612 19.5913 4.48009C19.2573 4.15443 18.8465 3.99142 18.3598 3.99142ZM18.3341 3.37833C19.026 3.37833 19.6025 3.59868 20.0627 4.03976C20.523 4.48084 20.7531 5.03359 20.7531 5.69839C20.7531 6.36281 20.5207 6.91331 20.0564 7.34877C19.5917 7.78423 19.0059 8.00195 18.2988 8.00195C17.6236 8.00195 17.0617 7.78423 16.6119 7.34877C16.162 6.91331 15.9375 6.36731 15.9375 5.71113C15.9375 5.03808 16.1639 4.48084 16.6167 4.03976C17.0695 3.59868 17.6419 3.37833 18.3341 3.37833Z" fill="white"/>
<path d="M5.28439 16.6339H4.48266V19.9864H5.30376C5.62438 19.9864 5.87313 19.9639 6.05075 19.9201C6.228 19.8759 6.37621 19.82 6.49463 19.7522C6.61342 19.6844 6.72178 19.6012 6.82009 19.5022C7.13661 19.1796 7.2945 18.7722 7.2945 18.2795C7.2945 17.7957 7.13214 17.401 6.80743 17.0953C6.68752 16.9813 6.55011 16.8876 6.39557 16.8146C6.24029 16.7415 6.0932 16.6931 5.95468 16.6695C5.81578 16.6459 5.59235 16.6339 5.28439 16.6339ZM3.8418 20.3555V16.2663C3.8418 16.1396 3.9308 16.0598 4.05368 16.0598H5.3518C5.96101 16.0598 6.44287 16.1513 6.79774 16.3353C7.15262 16.5193 7.43451 16.7898 7.64416 17.147C7.85381 17.5041 7.95845 17.8935 7.95845 18.3151C7.95845 18.616 7.90073 18.9045 7.78529 19.1796C7.66986 19.455 7.50526 19.6971 7.29152 19.9059C7.07368 20.121 6.82009 20.2832 6.53149 20.393C6.36281 20.4597 6.2079 20.5039 6.06676 20.5268C5.92563 20.5493 5.6564 20.5605 5.2587 20.5605C5.2587 20.5605 4.19779 20.559 4.05145 20.5605C3.91776 20.562 3.8418 20.4485 3.8418 20.3555Z" fill="white"/>
<path d="M19.36 19.985C19.3563 19.985 17.6865 19.9861 17.6865 19.9861V18.5857L19.2431 18.5835C19.3984 18.5801 19.5235 18.4527 19.5235 18.2953C19.5235 18.136 19.3954 18.0067 19.2367 18.0067C19.2315 18.0067 17.6865 18.0082 17.6865 18.0082V16.6337H19.2915C19.2915 16.6337 19.2956 16.6329 19.2974 16.6329C19.4553 16.6329 19.5834 16.504 19.5834 16.3451C19.5834 16.1862 19.4553 16.0573 19.2974 16.0573C19.2922 16.0573 17.8005 16.0592 17.2479 16.0592C17.1283 16.0592 17.0449 16.1562 17.0449 16.2627V20.3549C17.0449 20.4714 17.1399 20.5606 17.2479 20.5606C17.8113 20.5606 19.3548 20.5625 19.36 20.5625C19.5186 20.5625 19.6467 20.4332 19.6467 20.2736C19.6467 20.1143 19.5186 19.985 19.36 19.985Z" fill="white"/>
<path d="M7.24193 7.11425C7.19874 7.11425 7.11905 7.13973 7.11905 7.13973C6.7381 7.31698 6.35083 7.40543 5.95648 7.40543C5.43701 7.40543 5.01064 7.24616 4.67736 6.92762C4.34408 6.60946 4.17725 6.20286 4.17725 5.7082C4.17725 5.21766 4.34668 4.80956 4.68555 4.48353C5.02404 4.15787 5.45004 3.99486 5.96281 3.99486C6.32476 3.99486 6.68672 4.06906 7.06059 4.22645C7.10043 4.24594 7.15033 4.2628 7.19762 4.2628C7.36482 4.2628 7.50037 4.12639 7.50037 3.95813C7.50037 3.82884 7.39163 3.70705 7.30524 3.67333C6.80625 3.47846 6.34785 3.38177 5.93079 3.38177C5.24896 3.38177 4.67587 3.6055 4.21077 4.05294C3.74604 4.50039 3.51367 5.05202 3.51367 5.7082C3.51367 6.12117 3.61496 6.50528 3.81828 6.86017C4.02122 7.21505 4.29679 7.49349 4.64533 7.69585C4.99351 7.89784 5.41802 7.99902 5.91813 7.99902C6.44728 7.99902 6.92765 7.90121 7.34955 7.71047C7.47244 7.664 7.5484 7.54558 7.5484 7.42266C7.5484 7.25253 7.41099 7.11425 7.24193 7.11425Z" fill="white"/>
</g>
</svg>
