<svg width="17" height="17" viewBox="0 0 17 17" fill="none" xmlns="http://www.w3.org/2000/svg">
<g clip-path="url(#clip0_776_5814)">
<path d="M15.209 0.932861H2.07684C1.36247 0.932861 0.78125 1.51405 0.78125 2.22846V10.8389C0.78125 11.5533 1.36247 12.1345 2.07684 12.1345H6.33784C6.32922 12.9719 6.12594 13.8193 5.89919 14.3187H4.994C4.51194 14.3187 4.11975 14.7109 4.11975 15.193C4.11975 15.6751 4.51194 16.0673 4.994 16.0673H12.0062C12.4882 16.0673 12.8804 15.6751 12.8804 15.193C12.8804 14.7109 12.4882 14.3187 12.0062 14.3187H11.0987C10.8614 13.8102 10.6451 12.9599 10.6291 12.1345H14.9232C15.6375 12.1345 16.2188 11.5533 16.2188 10.8389V1.9428C16.2188 1.38592 15.7658 0.932861 15.209 0.932861ZM2.07684 1.37036H15.209C15.5245 1.37036 15.7812 1.62717 15.7812 1.9428V9.55499H1.21875V2.22846C1.21875 1.7553 1.60369 1.37036 2.07684 1.37036ZM12.4429 15.193C12.4429 15.4338 12.247 15.6298 12.0062 15.6298H4.99397C4.75316 15.6298 4.55722 15.4338 4.55722 15.193C4.55722 14.9522 4.75316 14.7562 4.99397 14.7562H12.0062C12.247 14.7562 12.4429 14.9522 12.4429 15.193ZM10.6212 14.3187H6.37437C6.61409 13.709 6.76734 12.8822 6.77519 12.1345H10.1916C10.2056 12.873 10.3698 13.7003 10.6212 14.3187ZM14.9232 11.697H2.07684C1.60369 11.697 1.21875 11.312 1.21875 10.8389V9.99249H15.7812V10.8389C15.7812 11.312 15.3963 11.697 14.9232 11.697ZM9.31078 10.8447C9.31078 10.9655 9.21284 11.0635 9.09203 11.0635H7.908C7.78719 11.0635 7.68925 10.9655 7.68925 10.8447C7.68925 10.7239 7.78719 10.626 7.908 10.626H9.09203C9.21284 10.626 9.31078 10.7239 9.31078 10.8447ZM2.38753 6.26695H3.88459C3.97953 6.96849 3.63209 7.38036 3.61703 7.39783C3.55647 7.46589 3.54444 7.56436 3.58684 7.64502C3.62497 7.71752 3.69994 7.76195 3.78038 7.76195C3.78941 7.76195 3.7985 7.76139 3.80759 7.76027C4.71953 7.64627 5.16478 7.19264 5.37772 6.8322C5.50334 6.61955 5.56409 6.4137 5.59347 6.26695H7.35422C7.6565 6.26695 7.90244 6.02105 7.90244 5.71877V2.57389C7.90244 2.27161 7.6565 2.02567 7.35422 2.02567H2.38753C2.08525 2.02567 1.83934 2.27161 1.83934 2.57389V5.71877C1.83934 6.02105 2.08525 6.26695 2.38753 6.26695ZM2.27684 2.57389C2.27684 2.51286 2.3265 2.46317 2.38753 2.46317H7.35422C7.41528 2.46317 7.46494 2.51286 7.46494 2.57389V5.71877C7.46494 5.7798 7.41528 5.82945 7.35422 5.82945H5.40216C5.28309 5.82945 5.18594 5.92464 5.18344 6.04367C5.18337 6.04633 5.17309 6.31836 5.00103 6.60964C4.82991 6.89933 4.56384 7.10542 4.20712 7.22555C4.31837 6.93558 4.39791 6.51852 4.28038 5.99983C4.25778 5.90017 4.16922 5.82942 4.06703 5.82942H2.38753C2.3265 5.82942 2.27684 5.77977 2.27684 5.71874V2.57389ZM8.63575 8.10511H13.1517L13.8822 8.83561C13.9232 8.87661 13.9788 8.89967 14.0368 8.89967C14.0949 8.89967 14.1505 8.87664 14.1915 8.83561L15.0966 7.93052C15.1821 7.84508 15.1821 7.70658 15.0966 7.62114L14.4452 6.96971V3.36977C14.4452 3.24896 14.3472 3.15102 14.2264 3.15102H8.63575C8.51494 3.15102 8.417 3.24896 8.417 3.36977V7.88636C8.417 8.00721 8.51497 8.10511 8.63575 8.10511ZM14.0368 8.37158L12.236 6.57074C12.195 6.52974 12.1393 6.50667 12.0813 6.50667C12.0233 6.50667 11.9677 6.5297 11.9266 6.57074L11.7574 6.73999L11.8199 5.55895L13.0009 5.49642L12.8317 5.66567C12.7463 5.75108 12.7463 5.88958 12.8317 5.97502L14.6325 7.77583L14.0368 8.37158ZM8.8545 3.58852H14.0077V6.53221L13.2958 5.82033L13.7136 5.40249C13.7777 5.33846 13.7956 5.24155 13.7587 5.1588C13.7218 5.07605 13.6378 5.02395 13.5473 5.02936L11.6003 5.13245C11.4886 5.13836 11.3994 5.22761 11.3935 5.33933L11.2904 7.28636C11.2856 7.37683 11.3371 7.46086 11.4198 7.49777C11.5026 7.53461 11.5995 7.51667 11.6635 7.45264L12.0813 7.0348L12.7142 7.66764H8.8545V3.58852ZM11.115 4.8088C11.115 4.92961 11.0171 5.02755 10.8963 5.02755H10.442V5.4818C10.442 5.60261 10.3441 5.70055 10.2233 5.70055C10.1025 5.70055 10.0045 5.60261 10.0045 5.4818V5.02755H9.55031C9.4295 5.02755 9.33156 4.92961 9.33156 4.8088C9.33156 4.68799 9.4295 4.59005 9.55031 4.59005H10.0046V4.13583C10.0046 4.01502 10.1025 3.91708 10.2233 3.91708C10.3441 3.91708 10.4421 4.01502 10.4421 4.13583V4.59005H10.8963C11.0171 4.59005 11.115 4.68799 11.115 4.8088Z" fill="#81869E"/>
</g>
<defs>
<clipPath id="clip0_776_5814">
<rect width="16" height="16" fill="white" transform="translate(0.5 0.5)"/>
</clipPath>
</defs>
</svg>
