<svg width="17" height="17" viewBox="0 0 17 17" fill="none" xmlns="http://www.w3.org/2000/svg">
<g clip-path="url(#clip0_776_5754)">
<path d="M8.83457 1.03125C12.9596 1.03125 16.2971 4.36875 16.2971 8.4875C16.2971 12.6063 12.9596 15.95 8.83457 15.95C4.70957 15.95 1.37207 12.6125 1.37207 8.49375C1.37207 4.375 4.70957 1.03125 8.83457 1.03125Z" fill="#E74D89"/>
<path d="M8.83496 16.4812C4.42246 16.4812 0.834961 12.9 0.834961 8.49375C0.834961 4.08125 4.42246 0.5 8.83496 0.5C13.2475 0.5 16.835 4.08125 16.835 8.4875C16.835 12.8938 13.2475 16.4812 8.83496 16.4812ZM15.5787 9.58125C15.3475 9.50625 13.4662 8.95 11.3225 9.2875C12.2162 11.7375 12.5787 13.7375 12.6475 14.15C14.185 13.1187 15.2787 11.4812 15.5787 9.58125ZM11.5037 14.7812C11.4037 14.1812 11.0037 12.0938 10.0475 9.60625C10.035 9.6125 10.0162 9.61875 10.0037 9.61875C6.14746 10.9625 4.76621 13.6313 4.64121 13.8813C5.79746 14.7812 7.25371 15.3188 8.83496 15.3188C9.77871 15.325 10.685 15.1313 11.5037 14.7812ZM3.75996 13.0625C3.91621 12.8 5.79121 9.7 9.31621 8.55625C9.40371 8.525 9.49746 8.5 9.58496 8.475C9.41621 8.0875 9.22871 7.7 9.02871 7.31875C5.61621 8.3375 2.30371 8.29375 2.00371 8.2875C2.00371 8.35625 1.99746 8.425 1.99746 8.49375C2.00371 10.25 2.66621 11.85 3.75996 13.0625ZM2.14746 7.1C2.45371 7.10625 5.26621 7.11875 8.46621 6.26875C7.33496 4.25625 6.10996 2.56875 5.93496 2.325C4.01621 3.225 2.59121 4.9875 2.14746 7.1ZM7.23496 1.8625C7.42246 2.1125 8.66621 3.8 9.78496 5.85625C12.2162 4.94375 13.2412 3.56875 13.3662 3.39375C12.16 2.325 10.5725 1.675 8.83496 1.675C8.28496 1.675 7.74746 1.74375 7.23496 1.8625ZM14.1225 4.18125C13.9787 4.375 12.835 5.84375 10.31 6.875C10.4662 7.2 10.6225 7.53125 10.7662 7.8625C10.8162 7.98125 10.8662 8.1 10.9162 8.2125C13.1912 7.925 15.4475 8.3875 15.6725 8.43125C15.6537 6.825 15.0787 5.34375 14.1225 4.18125Z" fill="#B2215A"/>
</g>
<defs>
<clipPath id="clip0_776_5754">
<rect width="16" height="16" fill="white" transform="translate(0.834961 0.5)"/>
</clipPath>
</defs>
</svg>
