<svg width="32" height="32" viewBox="0 0 32 32" fill="none" xmlns="http://www.w3.org/2000/svg">
<path d="M29.0014 16.2886C29.0014 15.2197 28.9129 14.4397 28.7214 13.6309H16.2667V18.4552H23.5773C23.43 19.6542 22.6341 21.4597 20.8653 22.673L20.8405 22.8345L24.7785 25.8242L25.0513 25.8509C27.5569 23.5831 29.0014 20.2464 29.0014 16.2886Z" fill="#4285F4"/>
<path d="M16.266 28.9993C19.8475 28.9993 22.8543 27.8437 25.0505 25.8504L20.8646 22.6725C19.7444 23.4381 18.241 23.9725 16.266 23.9725C12.7581 23.9725 9.78079 21.7048 8.71946 18.5703L8.5639 18.5833L4.4692 21.6889L4.41565 21.8347C6.59702 26.0814 11.0777 28.9993 16.266 28.9993Z" fill="#34A853"/>
<path d="M8.71973 18.5715C8.43969 17.7626 8.27763 16.8959 8.27763 16.0004C8.27763 15.1048 8.4397 14.2382 8.705 13.4293L8.69758 13.257L4.55156 10.1016L4.41591 10.1648C3.51685 11.927 3.00098 13.906 3.00098 16.0004C3.00098 18.0948 3.51685 20.0737 4.41591 21.8359L8.71973 18.5715Z" fill="#FBBC05"/>
<path d="M16.266 8.02663C18.7569 8.02663 20.4372 9.08107 21.3953 9.96224L25.139 6.38C22.8398 4.28556 19.8476 3 16.266 3C11.0778 3 6.59704 5.91775 4.41565 10.1644L8.70476 13.4289C9.78082 10.2944 12.7581 8.02663 16.266 8.02663Z" fill="#EB4335"/>
</svg>
