<svg width="16" height="17" viewBox="0 0 16 17" fill="none" xmlns="http://www.w3.org/2000/svg">
<path d="M4.62663 3.83339C4.62645 4.18701 4.48581 4.52608 4.23563 4.776C3.98546 5.02593 3.64625 5.16623 3.29263 5.16606C2.93901 5.16588 2.59994 5.02523 2.35001 4.77506C2.10009 4.52489 1.95978 4.18568 1.95996 3.83206C1.96014 3.47843 2.10078 3.13937 2.35096 2.88944C2.60113 2.63952 2.94034 2.49921 3.29396 2.49939C3.64758 2.49957 3.98665 2.64021 4.23657 2.89039C4.4865 3.14056 4.6268 3.47977 4.62663 3.83339ZM4.66663 6.15339H1.99996V14.5001H4.66663V6.15339ZM8.87996 6.15339H6.22663V14.5001H8.85329V10.1201C8.85329 7.68006 12.0333 7.45339 12.0333 10.1201V14.5001H14.6666V9.21339C14.6666 5.10006 9.95996 5.25339 8.85329 7.27339L8.87996 6.15339Z" fill="#1D8EDB"/>
</svg>
