<svg width="17" height="17" viewBox="0 0 17 17" fill="none" xmlns="http://www.w3.org/2000/svg">
<g clip-path="url(#clip0_776_5807)">
<path d="M16.478 4.35591C16.5162 5.25623 16.5012 5.9131 16.468 6.39216C16.4121 7.18748 15.7574 7.81623 14.9284 7.8856C14.4521 7.92435 13.8034 7.95248 12.9284 7.95248H12.8109C11.8746 7.94998 11.1918 7.91716 10.6918 7.87216C9.86117 7.79841 9.20304 7.14029 9.12929 6.30966C9.08429 5.81091 9.05148 5.12654 9.04898 4.1906C9.04648 3.25466 9.07492 2.57216 9.11554 2.07216C9.18492 1.24279 9.81336 0.588101 10.6105 0.531226C10.8902 0.511538 11.2302 0.498413 11.6443 0.498413L11.6427 0.499976C11.9384 0.499976 12.2702 0.506538 12.6452 0.522476C13.5452 0.562476 14.2049 0.632163 14.6884 0.705288C15.4884 0.828726 16.1721 1.51248 16.2955 2.31248C16.3687 2.79591 16.4399 3.4556 16.478 4.35591ZM15.2837 6.30904C15.3202 5.78123 15.323 5.14154 15.2918 4.40623C15.2687 3.76591 15.2118 3.12685 15.1218 2.49248C15.0765 2.20466 14.7959 1.92435 14.5077 1.87904C13.8734 1.78904 13.2343 1.73216 12.594 1.70904C12.258 1.69466 11.9377 1.68748 11.6427 1.68748L11.6443 1.68591C11.2968 1.68591 10.9768 1.69748 10.693 1.71716C10.488 1.7331 10.3215 1.9206 10.3005 2.1706C10.2568 2.70966 10.2359 3.38841 10.238 4.18748C10.2402 4.99404 10.2655 5.67216 10.3134 6.20341C10.3359 6.46091 10.5396 6.66529 10.7968 6.68904C11.3302 6.73685 12.0084 6.76216 12.8134 6.76435H12.9277C13.6777 6.76435 14.3177 6.74341 14.8302 6.70185C15.0784 6.68091 15.269 6.5156 15.2837 6.30904Z" fill="#81869E"/>
<path d="M16.4674 10.6103C16.5008 11.0894 16.5164 11.7466 16.4774 12.6466C16.4383 13.5466 16.3677 14.2062 16.2946 14.6887C16.1711 15.4897 15.4877 16.1734 14.6864 16.2969C14.2039 16.37 13.5443 16.4406 12.6443 16.4797C12.2693 16.4956 11.9368 16.5022 11.6414 16.5022C11.2277 16.5022 10.8893 16.4891 10.608 16.4694C9.813 16.4141 9.18394 15.7591 9.11457 14.93C9.07394 14.4316 9.0455 13.7478 9.048 12.8116C9.0505 11.8753 9.08332 11.1925 9.12832 10.6925C9.20207 9.86187 9.86019 9.20375 10.6908 9.13C11.1893 9.085 11.8724 9.05218 12.8099 9.04968H12.9277V9.05C13.8027 9.05 14.4505 9.07812 14.9277 9.11687C15.7568 9.18624 16.4118 9.81531 16.4674 10.6103ZM15.2914 12.5928C15.3227 11.8569 15.3199 11.2166 15.2833 10.6906C15.2677 10.4853 15.0783 10.3187 14.8302 10.2978C14.3177 10.2566 13.6777 10.2353 12.9277 10.2353V10.2372H12.8133C12.0077 10.2394 11.3283 10.2647 10.7971 10.3125C10.5396 10.335 10.3352 10.5387 10.3118 10.7959C10.2636 11.3291 10.2383 12.0116 10.2361 12.8125C10.2339 13.6134 10.2549 14.2922 10.2986 14.83C10.3199 15.0778 10.4849 15.2681 10.6914 15.2828C10.9749 15.3025 11.2949 15.3125 11.6421 15.3125C11.938 15.3125 12.2577 15.3053 12.5943 15.2909C13.2346 15.2675 13.873 15.2106 14.5074 15.1206C14.7955 15.0756 15.0761 14.795 15.1214 14.5069C15.2114 13.8722 15.268 13.2334 15.2914 12.5928Z" fill="#81869E"/>
<path d="M7.88703 2.07188C7.92765 2.57031 7.95609 3.25406 7.95359 4.19031C7.95109 5.12656 7.91828 5.81094 7.87359 6.30938C7.79953 7.13969 7.1414 7.79781 6.31109 7.87188C5.81265 7.91688 5.12984 7.94969 4.19234 7.95219H4.07265C3.19765 7.95219 2.54953 7.92406 2.07265 7.88531C1.24328 7.81594 0.588904 7.1875 0.533279 6.39188C0.499842 5.91281 0.483592 5.25563 0.523279 4.35563C0.562967 3.45563 0.632967 2.79594 0.705779 2.3125C0.829217 1.5125 1.51297 0.82875 2.31297 0.705313C2.7964 0.632188 3.45609 0.5625 4.35609 0.5225C4.73109 0.506875 5.0639 0.5 5.35922 0.5V0.501563C5.77297 0.501563 6.11297 0.513125 6.39234 0.532813C7.18797 0.588125 7.8164 1.24281 7.88703 2.07188ZM6.76484 4.18906C6.76703 3.39 6.74609 2.71094 6.70234 2.17125C6.68109 1.92344 6.51609 1.73344 6.30953 1.71875C6.0264 1.6975 5.70672 1.6875 5.35922 1.6875C5.06297 1.6875 4.74359 1.69469 4.40672 1.70906C3.7664 1.73219 3.12765 1.78906 2.49328 1.87875C2.20547 1.92406 1.92484 2.20469 1.87953 2.49281C1.78953 3.12719 1.73265 3.76594 1.70953 4.40625C1.67828 5.14188 1.68109 5.78125 1.71765 6.31094C1.73328 6.51594 1.92265 6.6825 2.17078 6.70344C2.68203 6.74469 3.32172 6.76594 4.07172 6.76594H4.18797C4.99234 6.76375 5.67047 6.73844 6.20422 6.69063C6.46203 6.66781 6.66672 6.46313 6.68953 6.20531C6.73734 5.67156 6.76265 4.99344 6.76484 4.18906Z" fill="#81869E"/>
<path d="M7.9526 12.8103C7.95541 13.7462 7.92666 14.4303 7.88604 14.9287C7.81697 15.7578 7.1876 16.4128 6.3926 16.4681C6.11322 16.4878 5.77322 16.5009 5.35947 16.5009C5.06416 16.5009 4.73135 16.494 4.35635 16.4784C3.45635 16.4393 2.79666 16.3687 2.31416 16.2956C1.51322 16.1722 0.831034 15.4884 0.706034 14.6875C0.632909 14.204 0.561972 13.5447 0.523534 12.6443C0.485097 11.744 0.500722 11.0872 0.533534 10.6081C0.589159 9.81247 1.24385 9.18403 2.07416 9.11497C2.5501 9.07622 3.19916 9.0481 4.07416 9.0481L4.19135 9.04841C5.12728 9.05091 5.8101 9.08372 6.3101 9.12872C7.14041 9.20278 7.79854 9.86091 7.8726 10.6912C7.91728 11.1897 7.94979 11.8743 7.9526 12.8103ZM6.7026 14.8287C6.74635 14.2893 6.76729 13.6109 6.7651 12.8122C6.76291 12.0084 6.7376 11.33 6.68979 10.7959C6.66697 10.5381 6.46229 10.3334 6.20447 10.3106C5.67135 10.2628 4.99322 10.2375 4.18822 10.2353H4.07416V10.2356C3.32291 10.2356 2.68291 10.2565 2.17135 10.2981C1.92291 10.319 1.7326 10.4843 1.71791 10.6909C1.68135 11.2187 1.67853 11.8584 1.70978 12.5937C1.73291 13.2337 1.78978 13.8722 1.87978 14.5062C1.92478 14.7943 2.20541 15.0753 2.49353 15.1206C3.12822 15.2106 3.76697 15.2675 4.4076 15.2906C4.74385 15.305 5.06447 15.3122 5.35947 15.3122C5.70697 15.3122 6.02666 15.3022 6.3101 15.2825C6.5151 15.2678 6.68197 15.0787 6.7026 14.8287Z" fill="#81869E"/>
</g>
<defs>
<clipPath id="clip0_776_5807">
<rect width="16" height="16" fill="white" transform="translate(0.5 0.5)"/>
</clipPath>
</defs>
</svg>
