<svg width="17" height="17" viewBox="0 0 17 17" fill="none" xmlns="http://www.w3.org/2000/svg">
<g clip-path="url(#clip0_776_5761)">
<path fill-rule="evenodd" clip-rule="evenodd" d="M2.16829 15.1667H15.5016C16.2376 15.1667 16.835 14.5694 16.835 13.8334V3.16671C16.835 2.43071 16.2376 1.83337 15.5016 1.83337H2.16829C1.43229 1.83337 0.834961 2.43071 0.834961 3.16671V13.8334C0.834961 14.5694 1.43229 15.1667 2.16829 15.1667ZM15.5016 5.16671V13.8334H2.16829V5.16671H15.5016ZM11.203 11.7627L12.5363 12.4294C12.8656 12.5947 13.2669 12.46 13.4309 12.132C13.5963 11.8027 13.4616 11.4014 13.1336 11.2374L11.8003 10.5707C11.471 10.4054 11.0696 10.54 10.9056 10.868C10.7403 11.1974 10.875 11.5987 11.203 11.7627ZM5.50163 11.0534V11.8334C5.50163 12.2014 5.80029 12.5 6.16829 12.5C6.53629 12.5 6.83496 12.2014 6.83496 11.8334V11.1667H7.50163C8.32963 11.1667 9.12695 11.7187 9.12695 11.7187C9.33229 11.8574 9.59631 11.8707 9.81364 11.756C10.0323 11.64 10.1683 11.4134 10.1683 11.1667V7.16671C10.1683 6.92004 10.0323 6.69337 9.81364 6.57737C9.59631 6.46271 9.33229 6.47604 9.12695 6.61471C9.12695 6.61471 8.32963 7.16671 7.50163 7.16671H6.16829C5.06429 7.16671 4.16829 8.06271 4.16829 9.16671C4.16829 10.0374 4.72563 10.7774 5.50163 11.0534ZM6.16829 9.83337C5.80029 9.83337 5.50163 9.53471 5.50163 9.16671C5.50163 8.79871 5.80029 8.50004 6.16829 8.50004H7.50163C7.97496 8.50004 8.44163 8.38004 8.83496 8.23338V10.1C8.44163 9.95337 7.97496 9.83337 7.50163 9.83337H6.16829ZM11.5016 9.83337H12.835C13.203 9.83337 13.5016 9.53471 13.5016 9.16671C13.5016 8.79871 13.203 8.50004 12.835 8.50004H11.5016C11.1336 8.50004 10.835 8.79871 10.835 9.16671C10.835 9.53471 11.1336 9.83337 11.5016 9.83337ZM11.8003 7.76271L13.1336 7.09604C13.4616 6.93204 13.5963 6.53071 13.4309 6.20138C13.2669 5.87337 12.8656 5.73871 12.5363 5.90404L11.203 6.57071C10.875 6.73471 10.7403 7.13604 10.9056 7.46537C11.0696 7.79337 11.471 7.92804 11.8003 7.76271ZM14.1683 3.16671V3.83337H15.5016V3.16671H14.1683Z" fill="#81869E"/>
</g>
<defs>
<clipPath id="clip0_776_5761">
<rect width="16" height="16" fill="white" transform="translate(0.834961 0.5)"/>
</clipPath>
</defs>
</svg>
