<svg width="16" height="17" viewBox="0 0 16 17" fill="none" xmlns="http://www.w3.org/2000/svg">
<path fill-rule="evenodd" clip-rule="evenodd" d="M9.55434 9.83049C9.67381 8.2379 11.0143 6.9718 12.6361 6.9718C14.2579 6.9718 15.5984 8.2379 15.7178 9.83049C15.7273 9.9563 15.629 10.0622 15.5028 10.0622H9.76934C9.64315 10.0622 9.5449 9.95633 9.55434 9.83049Z" fill="#FFDA2D"/>
<path fill-rule="evenodd" clip-rule="evenodd" d="M12.4102 6.98002C12.4847 6.97458 12.5599 6.9718 12.6358 6.9718C14.2576 6.9718 15.5981 8.2379 15.7176 9.83052C15.727 9.95633 15.6287 10.0622 15.5026 10.0622H15.0513C15.1775 10.0622 15.2757 9.95633 15.2663 9.83052C15.1523 8.3124 13.9291 7.09096 12.4102 6.98002Z" fill="#FFC700"/>
<path d="M14.31 5.43756C14.3866 4.51785 13.7031 3.71022 12.7834 3.63365C11.8637 3.55709 11.056 4.24059 10.9795 5.16029C10.9029 6.07999 11.5864 6.88763 12.5061 6.96419C13.4258 7.04076 14.2334 6.35726 14.31 5.43756Z" fill="#FFD6BD"/>
<path fill-rule="evenodd" clip-rule="evenodd" d="M12.6363 3.63135C12.568 3.63135 12.5007 3.63554 12.4346 3.6435C13.2619 3.74313 13.9031 4.44741 13.9031 5.3016C13.9031 6.15579 13.2619 6.8601 12.4346 6.95969C12.5007 6.96766 12.568 6.97185 12.6363 6.97185C13.5588 6.97185 14.3066 6.22403 14.3066 5.30157C14.3066 4.37916 13.5588 3.63135 12.6363 3.63135Z" fill="#F9C6AA"/>
<path fill-rule="evenodd" clip-rule="evenodd" d="M0.281873 9.83049C0.401342 8.2379 1.74181 6.9718 3.36365 6.9718C4.98547 6.9718 6.32594 8.2379 6.4454 9.83049C6.45484 9.9563 6.35659 10.0622 6.2304 10.0622H0.496873C0.370686 10.0622 0.272467 9.95633 0.281873 9.83049Z" fill="#72D561"/>
<path fill-rule="evenodd" clip-rule="evenodd" d="M3.1377 6.98002C3.21223 6.97458 3.28748 6.9718 3.36335 6.9718C4.98516 6.9718 6.32563 8.2379 6.4451 9.83052C6.45454 9.95633 6.35629 10.0622 6.23013 10.0622H5.77882C5.90501 10.0622 6.00326 9.95633 5.99382 9.83052C5.87991 8.3124 4.6566 7.09096 3.1377 6.98002Z" fill="#3CBE52"/>
<path d="M3.46585 6.96861C4.38648 6.91141 5.08643 6.11873 5.02924 5.19811C4.97204 4.27748 4.17936 3.57753 3.25874 3.63472C2.33811 3.69192 1.63816 4.4846 1.69535 5.40522C1.75255 6.32585 2.54523 7.0258 3.46585 6.96861Z" fill="#FFD6BD"/>
<path fill-rule="evenodd" clip-rule="evenodd" d="M3.36383 3.63123C3.29555 3.63123 3.22823 3.63541 3.16211 3.64338C3.98942 3.74301 4.63067 4.44729 4.63067 5.30148C4.63067 6.15566 3.98945 6.85998 3.16211 6.95957C3.22827 6.96754 3.29555 6.97173 3.36383 6.97173C4.2863 6.97173 5.03411 6.22391 5.03411 5.30144C5.03408 4.37904 4.2863 3.63123 3.36383 3.63123Z" fill="#F9C6AA"/>
<path fill-rule="evenodd" clip-rule="evenodd" d="M4.9186 8.89299C5.03806 7.3004 6.37853 6.0343 8.00038 6.0343C9.62219 6.0343 10.9627 7.3004 11.0821 8.89299C11.0916 9.0188 10.9933 9.12471 10.8671 9.12471H5.1336C5.00741 9.12471 4.90916 9.01883 4.9186 8.89299Z" fill="#64B5F6"/>
<path fill-rule="evenodd" clip-rule="evenodd" d="M7.77441 6.04252C7.84895 6.03708 7.9242 6.0343 8.00007 6.0343C9.62188 6.0343 10.9624 7.3004 11.0818 8.89302C11.0913 9.01883 10.993 9.12474 10.8669 9.12474H10.4155C10.5417 9.12474 10.64 9.01883 10.6305 8.89302C10.5166 7.37489 9.29332 6.15346 7.77441 6.04252Z" fill="#42A5F5"/>
<path d="M9.6648 4.42173C9.69524 3.50018 8.97286 2.72844 8.05131 2.698C7.12976 2.66756 6.35802 3.38994 6.32758 4.31149C6.29714 5.23304 7.01952 6.00478 7.94107 6.03522C8.86262 6.06566 9.63436 5.34328 9.6648 4.42173Z" fill="#FFD6BD"/>
<path fill-rule="evenodd" clip-rule="evenodd" d="M8.00055 2.69385C7.93227 2.69385 7.86495 2.69804 7.79883 2.706C8.62614 2.80563 9.26739 3.50994 9.26739 4.3641C9.26739 5.21829 8.62617 5.9226 7.79883 6.02219C7.86498 6.03016 7.93227 6.03435 8.00055 6.03435C8.92302 6.03435 9.67083 5.28654 9.67083 4.36407C9.67083 3.44163 8.92302 2.69385 8.00055 2.69385Z" fill="#F9C6AA"/>
<path fill-rule="evenodd" clip-rule="evenodd" d="M4.34289 6.99731H11.6569C11.7831 6.99731 11.8918 7.04691 11.9746 7.14231C12.0573 7.23772 12.091 7.35231 12.0732 7.47735L11.5109 11.4176H4.48889L3.92652 7.47735C3.90867 7.35235 3.94242 7.23772 4.02517 7.14231C4.10789 7.04691 4.21661 6.99731 4.34289 6.99731Z" fill="#B4D2D7"/>
<path fill-rule="evenodd" clip-rule="evenodd" d="M4.34301 6.99731H11.657C11.7833 6.99731 11.8919 7.04691 11.9747 7.14231C12.0574 7.23772 12.0912 7.35231 12.0734 7.47735L11.511 11.4176H11.1535L11.6604 7.86638C11.6783 7.74138 11.6445 7.62675 11.5618 7.53135C11.479 7.43594 11.3703 7.38635 11.244 7.38635H3.93004L3.92285 7.38641C3.92857 7.29666 3.96307 7.21403 4.02529 7.14231C4.10801 7.04691 4.21673 6.99731 4.34301 6.99731Z" fill="#9BB9C3"/>
<path fill-rule="evenodd" clip-rule="evenodd" d="M7.99943 9.63774C8.30515 9.63774 8.55452 9.38837 8.55452 9.08265C8.55452 8.77693 8.30515 8.52759 7.99943 8.52759C7.69371 8.52759 7.44434 8.77693 7.44434 9.08265C7.44434 9.38837 7.69371 9.63774 7.99943 9.63774Z" fill="#E6F8FF"/>
<path fill-rule="evenodd" clip-rule="evenodd" d="M7.9994 8.52759C8.17827 8.52759 8.33734 8.61221 8.43887 8.74359C8.36305 8.70474 8.27712 8.68281 8.18609 8.68281C7.87952 8.68281 7.63099 8.93134 7.63099 9.2379C7.63099 9.36559 7.67415 9.48321 7.74662 9.57699C7.56715 9.48503 7.44434 9.29818 7.44434 9.08268C7.4443 8.77612 7.69284 8.52759 7.9994 8.52759Z" fill="#D0F1FF"/>
<path fill-rule="evenodd" clip-rule="evenodd" d="M0.942383 11.8805H15.0571C15.1259 11.8805 15.1821 11.9367 15.1821 12.0055V14.1811C15.1821 14.2498 15.1259 14.3061 15.0571 14.3061H0.942383C0.873633 14.3061 0.817383 14.2498 0.817383 14.1811V12.0055C0.817383 11.9367 0.873633 11.8805 0.942383 11.8805Z" fill="#DA8C36"/>
<path fill-rule="evenodd" clip-rule="evenodd" d="M14.5088 11.8805H15.0572C15.1259 11.8805 15.1822 11.9367 15.1822 12.0055V14.1811C15.1822 14.2498 15.1259 14.3061 15.0572 14.3061H14.5088C14.5775 14.3061 14.6338 14.2498 14.6338 14.1811V12.0055C14.6338 11.9367 14.5775 11.8805 14.5088 11.8805Z" fill="#C97629"/>
<path fill-rule="evenodd" clip-rule="evenodd" d="M0.443406 11.3138H15.5566C15.6458 11.3138 15.7187 11.3868 15.7187 11.476V12.2294C15.7187 12.3186 15.6458 12.3916 15.5566 12.3916H0.443406C0.354219 12.3916 0.28125 12.3186 0.28125 12.2294V11.476C0.28125 11.3868 0.354219 11.3138 0.443406 11.3138Z" fill="#C97629"/>
<path fill-rule="evenodd" clip-rule="evenodd" d="M15.3506 11.3138H15.5566C15.6458 11.3138 15.7187 11.3868 15.7187 11.476V12.2294C15.7187 12.3186 15.6458 12.3916 15.5566 12.3916H0.443406C0.354219 12.3916 0.28125 12.3186 0.28125 12.2294V12.0232H15.1885C15.2777 12.0232 15.3506 11.9503 15.3506 11.8611V11.3138Z" fill="#B06328"/>
<path fill-rule="evenodd" clip-rule="evenodd" d="M15.4677 12.1417H0.531398V11.5639H15.4677V12.1417ZM14.9313 14.0561H1.06643V12.6416H14.9313V14.0561ZM4.17337 7.44207C4.16599 7.38888 4.17777 7.34685 4.21318 7.30619C4.24856 7.2655 4.28834 7.24738 4.34287 7.24738H11.6563C11.7108 7.24738 11.7506 7.2655 11.786 7.30619C11.8199 7.34688 11.8331 7.38888 11.8258 7.44207L11.3084 11.0638H4.69071L4.17337 7.44207ZM0.534367 9.81235C0.662617 8.35688 1.89771 7.22228 3.36274 7.22185V7.222L3.36421 7.22185C3.47474 7.222 3.5853 7.22863 3.69437 7.24144C3.67077 7.3281 3.6649 7.41978 3.67815 7.51278L4.00684 9.81235H0.534367ZM1.9434 5.30169C1.9434 4.51847 2.58012 3.88144 3.36274 3.88144C4.14684 3.88144 4.78359 4.51844 4.78359 5.30169C4.78359 6.08447 4.14687 6.72147 3.36424 6.72191H3.36277C2.58012 6.72147 1.9434 6.08447 1.9434 5.30169ZM7.99959 6.28447C8.55965 6.28447 9.09321 6.44588 9.55012 6.74741H6.44909C6.90596 6.44588 7.43952 6.28447 7.99959 6.28447ZM6.57877 4.36416C6.57877 3.58094 7.21696 2.94391 7.99959 2.94391C8.78221 2.94391 9.41893 3.58091 9.41893 4.36416C9.41893 5.14722 8.78221 5.78441 7.99959 5.78441C7.21696 5.78438 6.57877 5.14722 6.57877 4.36416ZM11.2156 5.30169C11.2156 4.51847 11.8523 3.88144 12.6364 3.88144C13.4191 3.88144 14.0558 4.51844 14.0558 5.30169C14.0558 6.08447 13.4191 6.72147 12.6364 6.72191C12.635 6.72191 12.635 6.72191 12.635 6.72191C11.8523 6.72147 11.2156 6.08447 11.2156 5.30169ZM15.4648 9.81235H11.9923L12.3195 7.51278C12.3343 7.41978 12.3284 7.3281 12.3048 7.24144C12.4138 7.22863 12.5244 7.22197 12.6349 7.22185C12.6349 7.22185 12.6349 7.222 12.6364 7.222V7.22185C14.1015 7.22228 15.3366 8.35691 15.4648 9.81235ZM15.5562 11.0638H11.814L11.9216 10.3123H15.5031C15.6328 10.3123 15.7566 10.2582 15.8451 10.1636C15.932 10.0691 15.9762 9.94103 15.9674 9.81194C15.8642 8.44935 14.9371 7.319 13.702 6.89822C14.2164 6.55347 14.5569 5.9666 14.5569 5.30172C14.5569 4.24288 13.6946 3.38141 12.6364 3.38141C11.5767 3.38141 10.7159 4.24291 10.7159 5.30172C10.7159 5.87785 10.9709 6.39503 11.3733 6.74744H10.3401C9.97752 6.39047 9.53827 6.12282 9.06371 5.96141C9.57959 5.61682 9.92005 5.02947 9.92005 4.36416C9.92005 3.30532 9.05784 2.44385 7.99959 2.44385C6.93987 2.44385 6.07912 3.30532 6.07912 4.36416C6.07912 5.02947 6.41959 5.61682 6.93543 5.96141C6.45937 6.12282 6.02162 6.39044 5.65905 6.74744H4.6244C5.02824 6.39503 5.28321 5.87785 5.28321 5.30172C5.28321 4.24288 4.42246 3.38141 3.36274 3.38141C2.30449 3.38141 1.44227 4.24291 1.44227 5.30172C1.44227 5.9666 1.78274 6.5535 2.29712 6.89822C1.06052 7.319 0.13493 8.44932 0.0317734 9.81191C0.0229297 9.94103 0.0671484 10.0691 0.155586 10.1639C0.242555 10.2582 0.366367 10.3123 0.496055 10.3123H4.07759L4.18518 11.0638H0.442961C0.215992 11.0638 0.0302734 11.2488 0.0302734 11.4761V12.2295C0.0302734 12.4567 0.215992 12.6416 0.442961 12.6416H0.566773V14.3061C0.566773 14.4442 0.678773 14.5561 0.817336 14.5561H15.1818C15.3203 14.5561 15.4324 14.4442 15.4324 14.3061V12.6416H15.5562C15.7831 12.6416 15.9689 12.4567 15.9689 12.2295V11.4761C15.9689 11.2488 15.7832 11.0638 15.5562 11.0638ZM7.99959 9.38788C8.16762 9.38788 8.30468 9.25094 8.30468 9.08278C8.30468 8.91463 8.16762 8.77769 7.99959 8.77769C7.83155 8.77769 7.69449 8.91463 7.69449 9.08278C7.69449 9.25097 7.83155 9.38788 7.99959 9.38788ZM7.99959 8.2776C7.55596 8.2776 7.19484 8.63885 7.19484 9.08278C7.19484 9.52672 7.55593 9.88782 7.99959 9.88782C8.44324 9.88782 8.80434 9.52672 8.80434 9.08278C8.80434 8.63885 8.44321 8.2776 7.99959 8.2776Z" fill="black"/>
</svg>
