<svg width="16" height="17" viewBox="0 0 16 17" fill="none" xmlns="http://www.w3.org/2000/svg">
<path d="M14.973 4.49996C14.4597 4.73329 13.9064 4.88663 13.333 4.95996C13.9197 4.60663 14.373 4.04663 14.5864 3.37329C14.033 3.70663 13.4197 3.93996 12.773 4.07329C12.2464 3.49996 11.5064 3.16663 10.6664 3.16663C9.0997 3.16663 7.8197 4.44663 7.8197 6.02663C7.8197 6.25329 7.84637 6.47329 7.89303 6.67996C5.5197 6.55996 3.40637 5.41996 1.9997 3.69329C1.75303 4.11329 1.61303 4.60663 1.61303 5.12663C1.61303 6.11996 2.11303 6.99996 2.88637 7.49996C2.41303 7.49996 1.97303 7.36663 1.58637 7.16663V7.18663C1.58637 8.57329 2.57303 9.73329 3.8797 9.99329C3.46026 10.1086 3.01973 10.1246 2.59303 10.04C2.7741 10.6083 3.12873 11.1056 3.60704 11.4619C4.08536 11.8183 4.66333 12.0158 5.2597 12.0266C4.24881 12.827 2.99571 13.2596 1.70637 13.2533C1.4797 13.2533 1.25303 13.24 1.02637 13.2133C2.29303 14.0266 3.7997 14.5 5.41303 14.5C10.6664 14.5 13.553 10.14 13.553 6.35996C13.553 6.23329 13.553 6.11329 13.5464 5.98663C14.1064 5.58663 14.5864 5.07996 14.973 4.49996Z" fill="#289BF0"/>
</svg>
