<svg width="30" height="30" viewBox="0 0 30 30" fill="none" xmlns="http://www.w3.org/2000/svg">
<path d="M13.8806 3.2558C13.8806 1.56351 12.5482 0.193359 10.9071 0.193359H0V14.9993C0 23.1784 6.21519 29.8053 13.8806 29.8053V3.2558Z" fill="url(#paint0_linear_133_3808)"/>
<path d="M15.7313 18.8982C15.7313 17.2551 17.0638 15.9247 18.7049 15.9247H29.6119C29.6119 23.5921 23.3967 29.8053 15.7313 29.8053V18.8982Z" fill="url(#paint1_linear_133_3808)"/>
<path d="M22.6716 0.193359C26.5049 0.193359 29.6119 3.30096 29.6119 7.13366C29.6119 10.9664 26.5049 14.074 22.6716 14.074C18.8384 14.074 15.7313 10.9664 15.7313 7.13366C15.7313 3.30096 18.8384 0.193359 22.6716 0.193359Z" fill="url(#paint2_linear_133_3808)"/>
<defs>
<linearGradient id="paint0_linear_133_3808" x1="1.38806" y1="-2.12008" x2="18.4261" y2="-3.13725" gradientUnits="userSpaceOnUse">
<stop stop-color="#FF808D"/>
<stop offset="1" stop-color="#AC66F3"/>
</linearGradient>
<linearGradient id="paint1_linear_133_3808" x1="1.38806" y1="-2.12008" x2="18.4261" y2="-3.13725" gradientUnits="userSpaceOnUse">
<stop stop-color="#FF808D"/>
<stop offset="1" stop-color="#AC66F3"/>
</linearGradient>
<linearGradient id="paint2_linear_133_3808" x1="1.38806" y1="-2.12008" x2="18.4261" y2="-3.13725" gradientUnits="userSpaceOnUse">
<stop stop-color="#FF808D"/>
<stop offset="1" stop-color="#AC66F3"/>
</linearGradient>
</defs>
</svg>
