<svg width="24" height="24" viewBox="0 0 24 24" fill="none" xmlns="http://www.w3.org/2000/svg">
<g filter="url(#filter0_i_133_9513)">
<path d="M12 11.7959C14.7189 11.7959 16.9231 9.60303 16.9231 6.89796C16.9231 4.19289 14.7189 2 12 2C9.28106 2 7.07692 4.19289 7.07692 6.89796C7.07692 9.60303 9.28106 11.7959 12 11.7959Z" fill="url(#paint0_linear_133_9513)"/>
<path d="M14.5641 13.8368H9.4359C6.46154 13.8368 4 16.2858 4 19.245C4 19.9593 4.30769 20.5715 4.92308 20.8777C5.84615 21.3879 7.89744 22.0001 12 22.0001C16.1026 22.0001 18.1538 21.3879 19.0769 20.8777C19.5897 20.5715 20 19.9593 20 19.245C20 16.1838 17.5385 13.8368 14.5641 13.8368Z" fill="url(#paint1_linear_133_9513)"/>
</g>
<defs>
<filter id="filter0_i_133_9513" x="4" y="2" width="16" height="20" filterUnits="userSpaceOnUse" color-interpolation-filters="sRGB">
<feFlood flood-opacity="0" result="BackgroundImageFix"/>
<feBlend mode="normal" in="SourceGraphic" in2="BackgroundImageFix" result="shape"/>
<feColorMatrix in="SourceAlpha" type="matrix" values="0 0 0 0 0 0 0 0 0 0 0 0 0 0 0 0 0 0 127 0" result="hardAlpha"/>
<feOffset dy="1"/>
<feComposite in2="hardAlpha" operator="arithmetic" k2="-1" k3="1"/>
<feColorMatrix type="matrix" values="0 0 0 0 1 0 0 0 0 1 0 0 0 0 1 0 0 0 0.3 0"/>
<feBlend mode="normal" in2="shape" result="effect1_innerShadow_133_9513"/>
</filter>
<linearGradient id="paint0_linear_133_9513" x1="9.5" y1="-2.3258e-07" x2="20" y2="22.0001" gradientUnits="userSpaceOnUse">
<stop stop-color="#FFD334"/>
<stop offset="0.429261" stop-color="#FF628A"/>
<stop offset="1" stop-color="#A144FF"/>
</linearGradient>
<linearGradient id="paint1_linear_133_9513" x1="9.5" y1="-2.3258e-07" x2="20" y2="22.0001" gradientUnits="userSpaceOnUse">
<stop stop-color="#FFD334"/>
<stop offset="0.429261" stop-color="#FF628A"/>
<stop offset="1" stop-color="#A144FF"/>
</linearGradient>
</defs>
</svg>
