<svg width="169" height="41" viewBox="0 0 169 41" fill="none" xmlns="http://www.w3.org/2000/svg">
<path fill-rule="evenodd" clip-rule="evenodd" d="M168.082 38.4948H165.174C158.117 38.4948 152.376 32.6309 152.376 25.4211V0.917023H158.805V11.2829H168.085V17.8502H158.805V25.4211C158.805 29.0101 161.66 31.9274 165.174 31.9274H168.082V38.4948ZM112.317 38.4942H118.746V24.2393C118.746 17.0295 113.005 11.1657 105.948 11.1657C103.631 11.1657 101.456 11.7977 99.5796 12.9019V0.917023H93.1501V24.2393V25.6096V38.4942H99.5796V25.6096V24.2393C99.5796 20.6503 102.434 17.733 105.948 17.733C109.462 17.733 112.317 20.6503 112.317 24.2393V38.4942ZM50.3398 25.421C50.3398 32.6307 56.0809 38.4946 63.138 38.4946C70.195 38.4946 75.936 32.6307 75.936 25.421V11.2829H69.5065V25.421C69.5065 29.0099 66.6519 31.9273 63.138 31.9273C59.624 31.9273 56.7694 29.0099 56.7694 25.421V11.2829H50.3398V25.421ZM135.379 38.4946C128.322 38.4946 122.581 32.6307 122.581 25.421V11.2829H129.01V25.421C129.01 29.0099 131.865 31.9273 135.379 31.9273C138.893 31.9273 141.747 29.0099 141.747 25.421V11.2829H148.177V25.421C148.177 32.6307 142.436 38.4946 135.379 38.4946ZM80.7565 11.2829V38.4946H87.186V11.2829H80.7565ZM87.9285 4.95989C87.9285 7.19237 86.1569 9.00277 83.9723 9.00277C81.7876 9.00277 80.016 7.19237 80.016 4.95989C80.016 2.72742 81.7876 0.917023 83.9723 0.917023C86.1569 0.917023 87.9285 2.72742 87.9285 4.95989Z" fill="#F9F9FE"/>
<path d="M19.103 5.12371C19.103 2.83692 17.3025 0.985443 15.0849 0.985443H0.346191V20.9927C0.346191 32.0451 8.74477 41 19.103 41V5.12371Z" fill="#F9F9FE"/>
<path d="M21.6039 26.2613C21.6039 24.0409 23.4044 22.2432 25.6221 22.2432H40.3608C40.3608 32.6042 31.9622 41 21.6039 41V26.2613Z" fill="#F9F9FE"/>
<path d="M30.9823 0.985443C36.1622 0.985443 40.3608 5.18473 40.3608 10.3639C40.3608 15.543 36.1622 19.7423 30.9823 19.7423C25.8025 19.7423 21.6039 15.543 21.6039 10.3639C21.6039 5.18473 25.8025 0.985443 30.9823 0.985443Z" fill="#F9F9FE"/>
</svg>
