<svg width="169" height="41" viewBox="0 0 169 41" fill="none" xmlns="http://www.w3.org/2000/svg">
<path fill-rule="evenodd" clip-rule="evenodd" d="M168.081 38.4949H165.173C158.116 38.4949 152.375 32.6311 152.375 25.4215V0.917969H158.805V11.2836H168.083V17.8508H158.805V25.4215C158.805 29.0104 161.659 31.9277 165.173 31.9277H168.081V38.4949ZM112.319 38.4943H118.748V24.2398C118.748 17.0302 113.008 11.1664 105.951 11.1664C103.634 11.1664 101.459 11.7985 99.5821 12.9027V0.917969H93.1528V24.2398V25.61V38.4943H99.5821V25.61V24.2398C99.5821 20.6509 102.437 17.7336 105.951 17.7336C109.464 17.7336 112.319 20.6509 112.319 24.2398V38.4943ZM50.3419 25.4214C50.3419 32.631 56.0828 38.4948 63.1398 38.4948C70.1967 38.4948 75.9376 32.631 75.9376 25.4214V11.2836H69.5082V25.4214C69.5082 29.0103 66.6537 31.9276 63.1398 31.9276C59.6259 31.9276 56.7713 29.0103 56.7713 25.4214V11.2836H50.3419V25.4214ZM135.378 38.4948C128.321 38.4948 122.58 32.631 122.58 25.4214V11.2836H129.009V25.4214C129.009 29.0103 131.864 31.9276 135.378 31.9276C138.892 31.9276 141.746 29.0103 141.746 25.4214V11.2836H148.176V25.4214C148.176 32.631 142.435 38.4948 135.378 38.4948ZM80.7592 11.2836V38.4948H87.1886V11.2836H80.7592ZM87.929 4.96075C87.929 7.19317 86.1575 9.00353 83.9729 9.00353C81.7883 9.00353 80.0168 7.19317 80.0168 4.96075C80.0168 2.72833 81.7883 0.917969 83.9729 0.917969C86.1575 0.917969 87.929 2.72833 87.929 4.96075Z" fill="#0A0E1E"/>
<path d="M19.1059 5.12456C19.1059 2.83783 17.3055 0.986389 15.0879 0.986389H0.349518V20.9932C0.349518 32.0453 8.7479 41 19.1059 41V5.12456Z" fill="#0A0E1E"/>
<path d="M21.6068 26.2617C21.6068 24.0413 23.4072 22.2436 25.6248 22.2436H40.3632C40.3632 32.6044 31.9648 41 21.6068 41V26.2617Z" fill="#0A0E1E"/>
<path d="M30.985 0.986389C36.1647 0.986389 40.3632 5.18558 40.3632 10.3646C40.3632 15.5436 36.1647 19.7428 30.985 19.7428C25.8052 19.7428 21.6068 15.5436 21.6068 10.3646C21.6068 5.18558 25.8052 0.986389 30.985 0.986389Z" fill="#0A0E1E"/>
</svg>
